<?xml version="1.0" encoding="UTF-8"?>
<!DOCTYPE svg PUBLIC "-//W3C//DTD SVG 1.1//EN" "http://www.w3.org/Graphics/SVG/1.1/DTD/svg11.dtd">
<!-- Creator: CorelDRAW -->
<svg xmlns="http://www.w3.org/2000/svg" xml:space="preserve" width="206.216mm" height="205.086mm" version="1.1" style="shape-rendering:geometricPrecision; text-rendering:geometricPrecision; image-rendering:optimizeQuality; fill-rule:evenodd; clip-rule:evenodd"
viewBox="0 0 1470.94 1462.88"
 xmlns:xlink="http://www.w3.org/1999/xlink"
 xmlns:xodm="http://www.corel.com/coreldraw/odm/2003">
 <defs>
  <style type="text/css">
   <![CDATA[
    .fil0 {fill:none}
    .fil1 {fill:#0054f9;fill-rule:nonzero}
   ]]>
  </style>
 </defs>
 <g id="Layer_x0020_1">
  <metadata id="CorelCorpID_0Corel-Layer"/>
  <circle class="fil0" cx="733.05" cy="731.76" r="550.76"/>
  <path class="fil1" d="M828.19 1284.93l-83.99 177.95 -50.13 -1.27 -75.14 -181.98 52.96 1.34 58.29 156.6 -20.05 -0.51 66.14 -153.45 51.93 1.31zm-44.33 33.86l-14.06 37.2 -87.92 -2.22 -12.16 -37.87 114.15 2.89z"/>
  <polygon id="_1" class="fil1" points="579.25,1261.14 594.39,1456.3 542.26,1438.66 530.82,1270.27 561.52,1280.65 448.72,1407.01 400.97,1390.86 531.75,1245.06 "/>
  <polygon id="_2" class="fil1" points="468.31,1216.15 371.16,1367.7 328.29,1340.22 425.44,1188.67 "/>
  <path id="_3" class="fil1" d="M422.91 1196.82l-181.74 75.45 -36.29 -34.61 66.53 -185.3 38.34 36.56 -61.97 155.18 -14.52 -13.84 152.05 -69.29 37.6 35.85zm-55.59 -4.68l-35.4 18.12 -63.66 -60.69 16.42 -36.23 82.64 78.79z"/>
  <path id="_4" class="fil1" d="M165.92 1054.25l-37.87 -73.93 35.02 -17.94 37.87 73.93 -35.02 17.94zm88.31 -49.28l23.21 45.32 -160.22 82.07 -64.36 -125.66 35.02 -17.94 41.15 80.34 125.2 -64.13z"/>
  <polygon id="_5" class="fil1" points="210.98,918.57 35.57,959.06 24.12,909.44 160.18,878.04 140.87,794.34 180.21,785.26 "/>
  <polygon id="_6" class="fil1" points="181.7,755.02 105.6,753.09 136.49,742.04 0,819.11 1.36,765.38 100.27,709.74 99.48,740.85 3.52,680.02 4.77,630.66 137.2,714.27 106.89,702.19 182.99,704.11 "/>
  <path id="_7" class="fil1" d="M212.14 532.93l-116.45 -158.62 25 -43.47 195.8 20.62 -26.41 45.93 -165.46 -23.34 10 -17.39 103.41 131.25 -25.89 45.03zm-8.66 -55.11l-26.01 -30.08 43.84 -76.25 39.09 7.34 -56.92 98.99z"/>
  <polygon id="_8" class="fil1" points="356.69,329.31 180.71,243.58 222.31,207.55 373.33,282.92 348.84,304.13 296.95,142.89 335.05,109.89 394.6,296.48 "/>
  <polygon id="_9" class="fil1" points="452.01,256.96 369.95,96.73 415.27,73.52 497.33,233.75 "/>
  <path id="_10" class="fil1" d="M491.73 227.78l27.27 -194.88 48.24 -13.7 125.86 151.4 -50.96 14.47 -102.23 -132.18 19.3 -5.48 -17.51 166.18 -49.97 14.19zm32.25 -45.52l2.36 -39.7 84.61 -24.02 22.87 32.54 -109.84 31.19z"/>
  <path id="_11" class="fil1" d="M741.69 80.12l83.04 2.1 -1 39.34 -83.04 -2.1 0.99 -39.33zm1.04 101.13l-50.9 -1.29 4.55 -179.96 141.14 3.57 -1 39.33 -90.24 -2.28 -3.56 140.63z"/>
  <polygon id="_12" class="fil1" points="838.64,189.24 887.81,16.07 936.79,29.98 898.65,164.31 981.28,187.77 970.25,226.61 "/>
  <polygon id="_13" class="fil1" points="994.22,246.69 1032.16,180.7 1027.16,213.13 1024.43,56.41 1071.02,83.2 1072.82,196.67 1045.84,181.15 1145.04,125.76 1187.84,150.37 1051.24,226.97 1076.3,206.08 1038.36,272.08 "/>
  <path id="_14" class="fil1" d="M1173.52 383.68l196.45 -11.33 22.86 44.63 -123.88 153.02 -24.15 -47.15 109.65 -126.08 9.14 17.85 -166.39 15.3 -23.68 -46.24zm50.94 22.74l39.4 -5.44 40.09 78.28 -27.44 28.79 -52.05 -101.63z"/>
  <polygon id="_15" class="fil1" points="1271.37,613.77 1435.07,506.43 1444.74,560.61 1302.72,651.8 1297.02,619.9 1462.1,657.82 1470.97,707.44 1280.19,663.14 "/>
  <polygon id="_16" class="fil1" points="1283.79,732.65 1463.75,737.21 1462.46,788.11 1282.5,783.56 "/>
  <path id="_17" class="fil1" d="M1291.23 782.22l151.47 125.62 -13.7 48.24 -194.95 27.52 14.47 -50.96 166.18 -17.51 -5.48 19.3 -132.18 -102.23 14.19 -49.97zm21.77 51.36l32.54 22.87 -24.02 84.61 -39.7 2.36 31.19 -109.84z"/>
  <path id="_18" class="fil1" d="M1288.52 1072.89l-44.83 69.93 -33.12 -21.24 44.83 -69.93 33.12 21.24zm-87.03 -51.52l27.48 -42.87 151.55 97.16 -76.2 118.86 -33.12 -21.24 48.72 -75.99 -118.42 -75.92z"/>
  <polygon id="_19" class="fil1" points="1145.31,1099.46 1269.53,1229.75 1232.67,1264.89 1136.31,1163.82 1074.15,1223.09 1046.28,1193.87 "/>
  <polygon id="_20" class="fil1" points="1017.12,1205.01 1051.82,1272.76 1027.34,1250.92 1160.3,1333.94 1112.46,1358.44 1016.3,1298.18 1043.99,1284 1036.46,1397.36 992.52,1419.87 1002.62,1263.58 1006.5,1295.98 971.8,1228.22 "/>
 </g>
</svg>
