<svg xmlns="http://www.w3.org/2000/svg" viewBox="0 0 128 128"><title>icon19.2</title><g id="ring"><path d="M107.57,84.39h-2.11A19.5,19.5,0,0,0,90.84,67.51,27.612,27.612,0,0,0,72.37,34.59L79.82,21.7a7.012,7.012,0,0,0-3.39-9.97L66.67,7.7a6.96,6.96,0,0,0-5.34,0l-9.76,4.03a7.012,7.012,0,0,0-3.39,9.97l7.45,12.89A27.612,27.612,0,0,0,37.16,67.51,19.5,19.5,0,0,0,22.54,84.39H20.43a12.01,12.01,0,0,0-12,12v12.44a12.01,12.01,0,0,0,12,12h87.14a12.01,12.01,0,0,0,12-12V96.39A12.01,12.01,0,0,0,107.57,84.39ZM66,11.75l8.9,3.68a2.981,2.981,0,0,1,1.45,4.27L68.31,33.63c-.41-.07-2.11-.25-2.31-.26ZM51.65,19.7a2.981,2.981,0,0,1,1.45-4.27L62,11.74V33.36c-.193.017-1.9.2-2.31.27ZM59,37.83c.02-.01,1.98-.386,2.53-.41.814-.036,1.63-.13,2.47-.13s1.659.054,2.47.13c1.039.1,2.51.4,2.53.41A23.621,23.621,0,0,1,86.86,66.94c-.26-.02-4.16-.02-4.16-.02a19.64,19.64,0,1,0-37.4,0s-3.9,0-4.16.02A23.621,23.621,0,0,1,59,37.83Zm20.64,23.1a15.242,15.242,0,0,1-1.22,5.99H49.58a15.242,15.242,0,0,1-1.22-5.99,15.64,15.64,0,1,1,31.28,0ZM39.26,71.15a23.657,23.657,0,0,1,2.65-.23H86.09a14.3,14.3,0,0,1,2.65.23,15.483,15.483,0,0,1,12.69,13.24H26.57A15.483,15.483,0,0,1,39.26,71.15Zm76.31,37.68a8.011,8.011,0,0,1-8,8H20.43a8.011,8.011,0,0,1-8-8V96.39a8.011,8.011,0,0,1,8-8h87.14a8.011,8.011,0,0,1,8,8Z"/></g></svg>