<svg width="24" height="24" viewBox="0 0 24 24" fill="none" xmlns="http://www.w3.org/2000/svg">
<path d="M7.85006 12.83L9.58006 13.41C10.0601 13.57 10.4301 13.94 10.5901 14.42L11.1701 16.15C11.6601 17.64 13.7601 17.61 14.2201 16.12L16.1701 9.84C16.5501 8.59 15.4001 7.44001 14.1701 7.82001L7.88006 9.76999C6.39006 10.24 6.37006 12.34 7.85006 12.83Z" stroke="#000000" stroke-width="1.5" stroke-linecap="round" stroke-linejoin="round"/>
<path d="M12 22C6.47715 22 2 17.5228 2 12C2 6.47715 6.47715 2 12 2C17.5228 2 22 6.47715 22 12C22 17.5228 17.5228 22 12 22Z" stroke="#000000" stroke-width="1.5" stroke-linecap="round" stroke-linejoin="round"/>
</svg>
