<svg width="512" height="512" viewBox="0 0 512 512" fill="none" xmlns="http://www.w3.org/2000/svg">
<path fill-rule="evenodd" clip-rule="evenodd" d="M255.383 0.948793C246.126 3.15879 236.075 11.0638 232.14 19.2298C231.009 21.5788 225.866 39.2498 220.713 58.4998L211.343 93.4998L117.421 93.9998L23.5 94.4998L19.962 96.7008C18.016 97.9108 15.428 100.672 14.212 102.837L12 106.772L12.016 286.136L12.033 465.5L14.266 469.425C15.659 471.872 18.16 474.226 20.907 475.675L25.315 478L127.907 478.013L230.5 478.026L292 494.58C325.825 503.685 356.073 511.39 359.217 511.703C372.162 512.991 387.795 503.878 392.867 492.088C394.034 489.375 418.481 399.708 447.193 292.828C498.754 100.896 499.397 98.3828 499.408 88.9998C499.417 81.4588 498.989 78.5718 497.334 74.9998C494.287 68.4258 487.678 61.4788 481.678 58.5428C474.128 54.8498 268.805 -0.0282069 263.024 0.101793C260.536 0.158793 257.097 0.539793 255.383 0.948793ZM259.815 18.0418C255.34 18.7968 249.275 23.2328 247.776 26.8478C247.17 28.3068 242.763 43.8998 237.981 61.4998L229.287 93.4998L264.394 94.0278C295.668 94.4978 299.937 94.7558 303.5 96.3948C309.742 99.2668 315.52 103.804 318.864 108.46C321.843 112.608 322.255 112.811 334.092 115.943C340.783 117.713 346.791 119.366 347.443 119.616C348.094 119.866 359.644 109.817 373.109 97.2848C386.574 84.7528 398.312 73.9208 399.193 73.2128C400.507 72.1568 401.978 72.2228 407.397 73.5848C411.029 74.4968 414 75.6328 414 76.1098C414 76.5868 407.007 88.5138 398.46 102.615C389.912 116.715 383.147 128.48 383.426 128.759C383.705 129.038 389.376 130.743 396.029 132.548L408.126 135.829L417.998 130.001L427.87 124.173L432.185 125.485C434.558 126.207 436.378 127.323 436.228 127.965C436.078 128.607 432.805 133.828 428.954 139.568L421.953 150.004L422.878 163.252C423.386 170.538 423.677 176.633 423.523 176.795C423.369 176.957 421.157 176.565 418.607 175.923C414.173 174.806 413.779 174.403 409.535 166.628C407.096 162.157 404.508 157.695 403.785 156.711C402.455 154.902 378.259 147.659 377.641 148.885C377.471 149.223 377.644 163 378.027 179.5C378.409 196 378.575 209.672 378.396 209.882C378.216 210.092 374.977 209.461 371.196 208.481L364.322 206.698L354.02 172.92L343.717 139.143L336.04 137.071C331.818 135.932 327.832 135 327.182 135C326.284 135 326.004 151.405 326.015 203.25C326.024 240.788 326.378 270.954 326.802 270.286C327.966 268.454 343.002 272.75 342.993 274.911C342.985 276.695 335.145 306.188 334.51 306.824C334.286 307.048 332.662 306.729 330.902 306.116C329.142 305.502 327.335 305 326.888 305C326.44 305 325.929 337.738 325.751 377.75C325.509 432.328 325.118 451.42 324.186 454.182C320.989 463.656 310.68 473.553 301.031 476.408L296.5 477.749L300.5 478.838C338.67 489.225 358.267 494.133 361.626 494.148C367.06 494.173 373.281 490.899 375.922 486.626C378.278 482.814 483 93.5278 483 88.5828C483 84.1598 479.474 77.8008 475.548 75.1438C473.065 73.4638 442.857 64.9678 370.283 45.5378C314.302 30.5508 267.375 18.0928 266 17.8538C264.625 17.6148 261.842 17.6998 259.815 18.0418ZM29 285.982V461L160.25 460.994C247.449 460.991 292.748 460.642 295.219 459.956C297.264 459.388 300.318 457.762 302.005 456.342C308.456 450.915 308 463.813 308 286.615C308 174.661 307.673 124.267 306.933 122.315C305.596 118.784 302.387 115.299 298.5 113.155C295.758 111.642 284.054 111.477 162.25 111.232L29 110.964V285.982ZM159 147.169C115.486 150.779 78.861 182.132 67.324 225.649C63.95 238.378 63.475 259.75 66.278 272.738C74.954 312.936 104.705 343.082 145.66 353.173C157.156 356.005 178.486 356.192 190.5 353.565C210.189 349.26 226.848 340.104 241.564 325.5C256.401 310.777 264.874 296.351 270.198 276.75C273.208 265.67 273.475 237.252 270.665 227C263.37 200.379 247.945 178.114 227.308 164.416C214.058 155.621 194.906 148.636 180.79 147.449C177.33 147.158 173.15 146.799 171.5 146.65C169.85 146.502 164.225 146.736 159 147.169ZM163.718 168.25C157.118 179.597 149.885 197.697 147.533 208.75L146.841 212H168.532H190.223L189.549 208.25C187.719 198.06 179.493 177.493 173.366 167.787C170.021 162.488 166.985 162.634 163.718 168.25ZM138.989 169.435C122.378 175.559 105.888 188.779 95.872 204L90.937 211.5L109.613 211.773C119.884 211.923 128.469 211.865 128.689 211.644C128.91 211.424 129.964 207.584 131.032 203.113C133.059 194.626 138.88 178.195 142.142 171.75C144.224 167.638 144.103 167.55 138.989 169.435ZM194.172 168.767C197.976 177.275 203.812 193.73 205.854 201.7L208.492 212H227.308H246.125L243.513 207.201C236.851 194.961 221.564 180.506 208.46 174.055C201.246 170.503 193.7 167.711 194.172 168.767ZM339.746 228.669C338.942 230.084 335.74 244.073 336.131 244.461C336.334 244.663 339.983 245.719 344.24 246.809L351.979 248.79L353.054 244.645C353.645 242.365 354.547 238.925 355.058 237C356.384 232.014 356.508 232.2 350.75 230.57C342.079 228.116 340.241 227.799 339.746 228.669ZM84.67 229.75C84.424 230.162 83.669 233.192 82.992 236.482C81.39 244.274 81.423 258.191 83.064 266.447L84.367 273H104.933H125.5V251V229H105.309C94.204 229 84.916 229.338 84.67 229.75ZM143.566 232.501C143.205 234.426 142.909 242.751 142.909 251C142.909 259.249 143.205 267.574 143.566 269.499L144.223 273H169.015H193.808L194.538 262.29C195.23 252.135 194.51 231.635 193.399 229.836C193.115 229.376 181.934 229 168.552 229H144.223L143.566 232.501ZM211.5 251V273H232.15H252.801L254.11 267.75C255.796 260.994 255.82 242.161 254.152 234.75L252.858 229H232.179H211.5V251ZM372.511 238.25C370.999 242.684 369.014 252.214 369.454 252.926C370.293 254.283 384.059 257.353 384.925 256.376C386.169 254.975 389.198 242.96 388.661 241.56C388.393 240.86 385.229 239.547 381.631 238.643C373.778 236.671 373.06 236.64 372.511 238.25ZM404.046 253.273C402.843 257.665 402.228 261.588 402.679 261.991C404.144 263.3 417.279 266.122 418.073 265.299C418.936 264.406 422 253.036 422 250.729C422 249.713 419.524 248.626 414.117 247.268L406.235 245.288L404.046 253.273ZM373.15 299.133C370.794 308.007 369.234 315.611 369.683 316.032C371.434 317.673 385.147 320.781 385.557 319.63C387.079 315.352 394.06 287.727 393.708 287.374C393.15 286.817 379.854 283 378.47 283C377.899 283 375.505 290.26 373.15 299.133ZM92 291.261C92 293.67 101.307 306.376 107.884 312.947C111.523 316.582 117.918 321.684 122.096 324.285C129.151 328.678 140.601 334 142.997 334C143.567 334 142.952 331.863 141.63 329.25C137.518 321.124 132.725 306.598 129.585 292.75L128.962 290H110.481C96.279 290 92 290.292 92 291.261ZM147.414 292.75C149.539 302.006 155.81 318.916 160.301 327.5C165.033 336.544 165.825 337.529 168.577 337.799C171.495 338.086 171.829 337.695 176.683 328.299C181.882 318.237 185.649 308.786 188.422 298.846C191.107 289.225 192.862 290 168.392 290H146.783L147.414 292.75ZM208.103 292.25C207.636 293.488 206.939 296.075 206.553 298C205.349 304.003 199.952 320.151 196.9 326.881C195.295 330.42 194.141 333.474 194.335 333.668C194.882 334.215 202.06 331.508 208.071 328.488C220.838 322.075 233.124 311.045 241.4 298.564C243.93 294.749 246 291.262 246 290.814C246 290.366 237.664 290 227.475 290C209.182 290 208.94 290.028 208.103 292.25ZM343.769 408.719C334.622 442.92 328.469 467.672 329.029 468.018C330.665 469.029 344.042 472.291 344.535 471.799C344.999 471.335 376 356.167 376 354.907C376 354.542 372.962 353.494 369.25 352.578C365.538 351.662 361.818 350.711 360.985 350.464C359.759 350.1 356.474 361.215 343.769 408.719ZM81.422 409.344C81.138 410.083 81.04 414.02 81.203 418.094L81.5 425.5L168.75 425.755L256 426.011V417.005V408H168.969C97.033 408 81.848 408.233 81.422 409.344Z" fill="#0054f9"/>
</svg>
