<svg width="512" height="542" viewBox="0 0 512 542" fill="none" xmlns="http://www.w3.org/2000/svg">
<path fill-rule="evenodd" clip-rule="evenodd" d="M404.445 23.4043C402.48 27.536 401.013 31.0516 401.186 31.2178C401.359 31.3829 408.683 35.3177 417.463 39.9617L433.426 48.4051L421.803 54.2528C401.685 64.3761 376.697 79.5722 354.885 94.9483L345.271 101.726L338.991 97.8298C335.537 95.6872 328.839 92.0276 324.106 89.6977C319.373 87.3677 315.337 85.314 315.138 85.133C314.939 84.952 316.361 82.7522 318.299 80.2465C328.231 67.3963 334.78 48.0695 335.717 28.8465L336.297 16.9373L328.899 16.9458C314.231 16.9617 300.957 20.4561 288.081 27.6926C278.773 32.9242 274.805 36.1752 263.304 47.9922C256.792 54.6847 253.582 57.2856 252.304 56.9098C251.312 56.6177 235.76 50.1253 217.743 42.4801C190.139 30.7679 184.154 28.5819 179.69 28.5819C171.286 28.5819 166.209 32.0022 151.63 47.4852L138.76 61.1527L145.63 65.1595C149.409 67.3634 155.77 71.1447 159.766 73.5626L167.032 77.9589L158.266 81.4247C126.918 93.8166 96.873 114.749 75.012 139.428C2.61699 221.154 -3.68001 344.98 60.006 434.547C67.804 445.515 80.281 459.889 88.288 467.131L93.809 472.124L98.943 465.851L104.076 459.578L94.885 450.241C89.83 445.106 82.611 437.093 78.842 432.435L71.99 423.967L77.019 423.178C90.254 421.102 101.843 409.107 103.526 395.747C105.052 383.627 104.526 384.56 118.128 369.799C134.332 352.215 135.5 349.843 135.5 334.515C135.5 320.397 133.947 316.586 123.458 304.964C113.404 293.824 106.08 289.743 96.141 289.743C88.104 289.743 80.565 292.9 74.305 298.886C72.13 300.968 69.117 303.165 67.61 303.772C66.103 304.378 57.474 304.875 48.435 304.875H32V296.037C32 291.176 32.291 283.554 32.647 279.099L33.293 271H49.969C69.688 271 74.142 269.847 80.526 263.088C87.499 255.707 89.602 245.71 86.339 235.461C84.963 231.14 82.107 227.481 69.694 214.14L54.71 198.035L60.265 188.204C75.692 160.905 98.305 135.973 123.185 118.831C139.222 107.782 160.674 97.5694 178.242 92.6194L187.883 89.903L198.692 96.3911C204.636 99.9607 209.705 103.092 209.955 103.351C210.205 103.611 199.067 115.836 185.205 130.519L160 157.216V169.76C160 179.372 159.708 182.181 158.75 181.775C158.063 181.483 150.392 178.244 141.705 174.575L125.91 167.904L107.975 186.868C98.11 197.298 90.368 206.133 90.77 206.502C91.171 206.869 101.929 211.564 114.675 216.934L137.85 226.698L147.073 251.231C152.146 264.723 156.581 276.112 156.928 276.536C157.276 276.962 165.622 268.766 175.475 258.323L193.389 239.337L187.088 222.617C183.622 213.421 180.562 205.301 180.286 204.573C179.903 203.559 182.556 203.25 191.636 203.25H203.486L228.705 176.568C242.575 161.894 254.15 150.126 254.427 150.419C254.703 150.712 263.537 167.363 274.057 187.422C284.577 207.481 293.503 224.249 293.891 224.685C295.119 226.063 320.708 197.814 322.931 192.627C326.986 183.163 326.378 180.421 311.5 141.069C304.075 121.429 298 104.841 298 104.207C298 103.572 299.061 101.997 300.358 100.707L302.717 98.3622L307.816 100.49C310.621 101.66 317.077 104.829 322.163 107.534L331.41 112.45L328.782 114.476C327.337 115.591 325.142 117.37 323.904 118.432L321.652 120.362L326.397 126.889C329.307 130.893 331.597 133.133 332.32 132.683C332.969 132.28 336.126 129.832 339.335 127.243C344.714 122.903 345.36 122.643 347.614 123.92C351.222 125.964 362.607 135.925 369.75 143.288L376 149.729V193.427V237.125H358.366C347.444 237.125 339.165 237.615 336.616 238.412C331.123 240.13 322.839 248.9 321.216 254.714C319.515 260.81 319.455 467.999 321.153 473.298C321.787 475.277 323.186 478.233 324.262 479.869C325.338 481.503 326.057 482.995 325.859 483.183C323.852 485.099 299.245 496.48 297.108 496.48C296.647 496.48 296.051 493.261 295.785 489.326C295.519 485.392 294.491 480.509 293.501 478.476C292.511 476.442 287.268 469.946 281.85 464.039L272 453.298V445.201C272 438.014 272.276 436.811 274.455 434.505C276.031 432.836 278.046 431.906 280.089 431.906C286.29 431.906 291.377 429.461 296.534 424.003C303.177 416.97 304 413.64 304 393.797C304 373.964 303.176 370.63 296.534 363.569C289.805 356.416 286.013 355.36 268.855 355.873C258.326 356.187 254.759 356.685 252 358.226C250.075 359.301 238.568 370.602 226.429 383.34L204.357 406.5H196.545C185.65 406.5 181.45 408.073 175.445 414.403C168.688 421.527 167.691 425.541 168.175 443.704C168.613 460.127 169.083 461.457 178.087 471.703L184 478.431V490.102C184 498.751 183.676 501.765 182.75 501.739C182.063 501.72 175.65 499.612 168.5 497.054C161.35 494.495 155.202 492.724 154.838 493.118C154.04 493.98 148.898 507.336 149.252 507.627C150.079 508.31 167.646 514.735 173.5 516.496C227.756 532.821 291.28 524.583 338.882 495.049L345.107 491.187H410.188C458.362 491.187 476.337 490.853 479.384 489.9C484.877 488.182 493.161 479.413 494.784 473.598C496.538 467.312 496.538 261 494.784 254.714C493.161 248.9 484.877 240.13 479.384 238.412C476.836 237.615 468.566 237.125 457.679 237.125H440.09L439.795 186.048L439.5 134.971L436.071 128.275C432.346 121.003 428.089 116.7 421.031 113.074C417.496 111.257 414.632 110.732 408 110.684C400.072 110.627 399.063 110.878 393 114.415C388.978 116.762 385.218 119.99 383.137 122.884C381.287 125.456 379.432 127.699 379.016 127.867C378.599 128.037 375.388 125.582 371.879 122.412C368.371 119.243 364.202 115.502 362.615 114.098L359.731 111.546L370.939 103.878C385.561 93.8749 405.24 81.9339 420.085 74.0559C426.621 70.5879 432.205 67.7498 432.492 67.7498C432.78 67.7498 430.285 73.517 426.947 80.5652C423.609 87.6133 421.018 93.5118 421.189 93.6716C421.817 94.2623 433.96 100.566 434.468 100.566C435.063 100.566 461 45.9756 461 44.7244C461 44.2776 449.079 37.6085 434.509 29.903L408.018 15.8936L404.445 23.4043ZM308.5 36.9151C295.871 40.7695 288.545 45.9809 272.725 62.3605L257.95 77.6593L219.96 61.5888C199.066 52.7506 180.812 45.5194 179.397 45.5194C177.643 45.5194 175.027 47.3476 171.175 51.2665C168.067 54.4274 165.764 57.2666 166.055 57.5746C166.347 57.8837 178.041 64.8747 192.043 73.1095C206.044 81.3454 221.942 90.7128 227.37 93.9267L237.24 99.7702L206.62 132.197L176 164.624V175.468V186.312H186.244H196.488L227.12 153.898L257.752 121.484L263.272 131.932C266.308 137.678 275.157 154.508 282.937 169.329C290.716 184.152 297.32 196.531 297.612 196.84C297.903 197.148 300.585 194.71 303.571 191.42C307.273 187.342 309 184.573 309 182.716C309 181.218 302.169 161.895 293.82 139.777L278.639 99.5606L293.099 83.9198C308.793 66.9432 314.104 58.4077 317.414 44.8376C320.116 33.7584 319.791 33.4694 308.5 36.9151ZM401.5 128.467C397.796 130.282 394.475 134.017 393.067 137.95C392.368 139.903 392 157.529 392 189.028V237.125H408.029H424.057L423.779 187.447C423.508 139.163 423.442 137.688 421.438 134.848C420.304 133.241 418.2 130.996 416.763 129.86C413.449 127.241 405.485 126.513 401.5 128.467ZM124.024 194.225C121.05 197.414 118.816 200.196 119.059 200.409C119.301 200.621 126.025 203.527 134 206.866C141.975 210.205 149.029 213.496 149.675 214.18C150.321 214.864 153.43 222.331 156.584 230.773C159.738 239.216 162.483 246.334 162.684 246.59C163.227 247.284 173.999 235.791 174.003 234.514C174.005 233.912 171.271 226.192 167.927 217.358L161.847 201.295L146.673 194.858C138.328 191.318 131.035 188.424 130.466 188.426C129.897 188.428 126.998 191.038 124.024 194.225ZM243.736 199.292C215.404 233.093 185.707 280.956 165.42 325.517C139.984 381.389 124.578 435.044 115.554 499.188C114.166 509.052 112.789 518.611 112.494 520.431L111.956 523.739L119.628 524.947C123.848 525.612 127.428 526.021 127.583 525.856C127.738 525.692 129.497 514.371 131.493 500.698C141.17 434.385 156.786 381.463 183.07 325.903C203.029 283.714 233.025 236.562 260.117 204.791C261.935 202.658 261.877 202.547 256.061 197.128L250.16 191.63L243.736 199.292ZM43.655 225.612C41.646 231.653 39.297 239.692 38.434 243.476C37.571 247.261 36.64 251.19 36.365 252.21C35.905 253.916 37.063 254.062 51.01 254.062H66.154L69.077 250.968C71.108 248.818 72 246.824 72 244.434C72 241.452 70.36 239.244 59.654 227.811L47.307 214.628L43.655 225.612ZM338.455 256.661L336 259.259V364.156V469.053L338.455 471.651L340.909 474.25H408H475.091L477.545 471.651L480 469.053V364.156V259.259L477.545 256.661L475.091 254.062H408H340.909L338.455 256.661ZM249.18 264.312C244.072 266.976 240.774 272.294 240.243 278.719C239.801 284.079 239.501 284.542 229.495 295.347C223.834 301.461 218.482 307.987 217.601 309.85C215.625 314.033 215.517 323.831 217.394 328.587C218.161 330.53 220.486 333.492 222.562 335.17C226.271 338.168 226.594 338.227 241.081 338.56C258.482 338.96 259.261 338.685 269 328.668L275.5 321.983L284.678 321.633C294.561 321.257 297.148 320.077 301.438 313.995C303.339 311.298 303.5 309.608 303.5 292.276V273.481L300.618 269.482C296.024 263.106 293.618 262.528 271.782 262.555C255.982 262.574 251.9 262.892 249.18 264.312ZM360 364.156V457.312H368H376V364.156V271H368H360V364.156ZM400 364.156V457.312H408H416V364.156V271H408H400V364.156ZM440 364.156V457.312H448H456V364.156V271H448H440V364.156ZM256 283.745C256 290.179 253.15 294.825 242.073 306.443C235.202 313.651 232 317.773 232 319.41C232 321.751 232.261 321.812 242.281 321.812H252.563L258.531 315.378C266.788 306.476 270.057 304.875 279.96 304.875H288V292.172V279.469H272H256V283.745ZM92.311 306.955C90.557 307.396 86.957 309.794 84.311 312.285C75.606 320.477 73.009 321.234 52.25 321.631L34 321.981V324.426C34 325.771 34.707 330.854 35.571 335.722C39.203 356.185 46.133 377.098 55.342 395.385L60.674 405.971L68.347 406.28C81.505 406.81 86.528 402.527 88.079 389.451C89.475 377.683 91.634 373.895 105.408 359.045C112.259 351.657 118.346 344.277 118.933 342.642C120.421 338.5 120.265 329.812 118.629 325.748C116.82 321.251 102.8 306.992 100.188 306.992C99.075 306.992 97.564 306.804 96.832 306.573C96.099 306.343 94.065 306.515 92.311 306.955ZM237.571 395.785C225.432 408.523 213.925 419.798 212 420.842C209.625 422.13 205.178 422.938 198.161 423.354C184.283 424.176 184 424.531 184 441.048V453.131L189.913 459.859C199.135 470.353 199.418 471.207 199.824 489.741L200.175 505.761L213.305 507.097C229.367 508.731 249.018 507.93 265.5 504.97C272.1 503.785 278.063 502.595 278.75 502.327C279.59 502 280 499.364 280 494.286V486.733L270.15 475.992C264.732 470.085 259.472 463.584 258.461 461.547C256.038 456.661 255.231 440.189 257.074 433.194C259.612 423.559 270.376 414.969 279.911 414.969C281.954 414.969 283.969 414.039 285.545 412.37C287.935 409.841 288 409.346 288 393.797C288 378.247 287.935 377.753 285.545 375.224C283.219 372.76 282.481 372.625 271.367 372.625H259.643L237.571 395.785ZM352 516.594V525.062H364H376V516.594V508.125H364H352V516.594ZM448 516.594V525.062H460H472V516.594V508.125H460H448V516.594Z" fill="#0054f9"/>
</svg>
