<svg width="512" height="512" viewBox="0 0 512 512" fill="none" xmlns="http://www.w3.org/2000/svg">
<g clip-path="url(#clip0_114_59)">
<path fill-rule="evenodd" clip-rule="evenodd" d="M209.265 1.54182C200.721 3.84282 193.878 7.89482 187.414 14.4818C182.143 19.8528 180.7 20.7688 176.646 21.3248C167.95 22.5168 160.142 28.3518 156.351 36.4928C154.201 41.1098 154.019 42.8118 154.01 58.3268L154 75.1538L156.923 78.0768C162.611 83.7648 171.778 80.8588 173.378 72.8608C173.72 71.1498 174 64.1808 174 57.3748C174 46.2428 174.205 44.7948 176.045 42.9548C177.827 41.1728 178.85 40.9968 184.026 41.5818C191.429 42.4198 193.576 41.1848 197.834 33.6408C209.072 13.7278 236.152 16.2568 244.065 37.9588C246.978 45.9478 249.228 47.4768 257.615 47.1668C268.599 46.7618 272.944 50.6328 274.106 61.8598C274.691 67.5118 275.217 68.8048 277.908 71.2088C282.963 75.7258 290.456 74.1418 292.992 68.0198C294.782 63.6988 293.791 52.6648 291.042 46.2978C286.863 36.6208 273.478 26.9998 264.196 26.9998C261.958 26.9998 260.883 26.0238 258.223 21.5748C248.513 5.34182 227.334 -3.32518 209.265 1.54182ZM383.23 1.54982C373.73 4.10782 363.421 10.8258 358.971 17.3588C357.213 19.9398 355.759 20.9878 353.932 20.9928C349.369 21.0048 341.593 23.8658 337.966 26.8658C330.777 32.8128 326.144 46.1148 329.212 51.9998C331.185 55.7828 337.029 58.3198 340.623 56.9528C345.062 55.2648 346.973 53.0208 347.667 48.6788C348.701 42.2138 350.792 40.8778 358.756 41.5918C366.398 42.2768 368.306 41.2068 371.912 34.2118C374.19 29.7908 379.168 24.9218 384 22.3878C389.147 19.6888 400.196 19.8708 405.643 22.7448C411.063 25.6048 416.542 32.1048 418.499 37.9968C419.36 40.5908 421.211 43.7888 422.612 45.1048C424.871 47.2278 425.941 47.4648 432.116 47.2138C443.165 46.7638 447.225 50.3038 448.302 61.3268C448.947 67.9308 450.952 71.6508 454.617 73.0448C458.28 74.4368 503.296 74.2778 506.405 72.8608C509.664 71.3758 512.326 65.7618 511.517 62.0788C511.176 60.5238 509.76 58.1818 508.37 56.8758C505.923 54.5738 505.255 54.4898 486.982 54.1898L468.121 53.8798L466.557 49.1898C462.971 38.4388 451.601 28.8488 440.694 27.3758C436.259 26.7778 435.634 26.3308 432.612 21.6078C421.915 4.88482 401.557 -3.38418 383.23 1.54982ZM158.303 99.1968C153.178 101.673 153 103.389 153 150.401V194H123.547C103.652 194 93.2829 194.369 91.5949 195.139C86.7499 197.346 85.9999 201 85.9999 222.401V242H69.9499C57.8199 242 53.2099 242.357 51.0709 243.463C47.8209 245.144 47.4539 245.991 34.4569 281.75L25.6439 306H16.7259C1.53393 306 -1.36307 309.365 1.42393 323.775C7.18693 353.572 21.4529 388.168 38.8669 414.578L45.7389 425H42.9069C38.3439 425 29.3879 421.165 23.9939 416.901C17.3399 411.642 14.5719 410.656 10.3589 412.047C6.02693 413.476 3.99993 416.462 3.99993 421.416C3.99993 424.906 4.65093 426.018 9.38093 430.598C15.2729 436.306 26.0089 441.956 34.9999 444.082C44.1609 446.248 57.3369 445.608 66.4319 442.555C76.2149 439.271 80.8519 436.572 89.0459 429.398C98.0409 421.523 106.518 417.646 115.813 417.159C128.208 416.508 135.081 419.248 147.82 429.917C160.886 440.861 172.475 445.296 188 445.296C203.774 445.296 214.695 441.034 228.5 429.489C240.881 419.136 247.951 416.403 260.254 417.217C269.812 417.849 276.565 420.878 285.954 428.744C295.544 436.778 299.825 439.282 309.61 442.577C316.093 444.761 319.283 445.231 327.5 445.213C344.114 445.176 354.844 440.813 370.082 427.896C378.322 420.911 385.431 417.833 394.746 417.217C406.963 416.409 414.104 419.14 426.279 429.276C440.331 440.975 451.461 445.265 467.5 445.167C481.633 445.08 492.512 441.351 503.812 432.719C510.148 427.879 512.415 424.028 511.573 419.538C510.064 411.496 500.997 409.076 494.202 414.902C488.847 419.494 478.936 424.043 472.274 424.966C469.098 425.407 466.393 425.675 466.262 425.563C466.132 425.45 469.17 420.588 473.015 414.757C489.926 389.11 503.561 356.825 509.444 328.5C510.357 324.1 511.531 319.719 512.053 318.764C513.272 316.528 513.287 311.705 512.072 312.456C511.562 312.771 510.887 312.22 510.573 311.231C509.421 307.599 504.743 306 495.274 306H486.356L477.543 281.75C464.546 245.991 464.179 245.144 460.929 243.463C458.79 242.357 454.18 242 442.05 242H426V222.401C426 201 425.25 197.346 420.405 195.139C418.717 194.369 408.348 194 388.453 194H359V150.401C359 102.973 358.852 101.621 353.405 99.1388C349.933 97.5568 292.067 97.5568 288.595 99.1388C283.148 101.621 283 102.973 283 150.401V194H256H229V150.401C229 102.973 228.852 101.621 223.405 99.1388C220.084 97.6258 161.446 97.6778 158.303 99.1968ZM173 156V194H191H209V156V118H191H173V156ZM303 156V194H321H339V156V118H321H303V156ZM106 228V242H201.923H297.847L300.805 244.489C302.432 245.858 304 248.22 304.29 249.739C304.979 253.342 302.78 258.491 299.835 260.17C297.942 261.248 275.266 261.595 180.122 262L62.7429 262.5L54.8879 284C50.5679 295.825 47.0259 305.613 47.0169 305.75C47.0079 305.887 141.05 306 256 306C370.95 306 464.992 305.887 464.983 305.75C464.974 305.613 461.432 295.825 457.112 284L449.258 262.5L409.208 262L369.159 261.5L366.631 259.124C365.241 257.818 363.824 255.476 363.483 253.921C362.674 250.238 365.336 244.624 368.595 243.139C370.159 242.426 377.626 242 388.547 242H406V228V214H256H106V228ZM329.5 243.11C324.17 246.175 322.421 252.66 325.61 257.528C326.496 258.88 328.898 260.488 330.948 261.103C338.576 263.388 345.664 255.917 342.668 248.75C341.921 246.963 340.605 244.916 339.744 244.202C337.52 242.357 331.858 241.754 329.5 243.11ZM91.3029 275.197C88.2879 276.654 85.7079 282.394 86.4829 285.921C88.0369 292.997 97.1989 295.98 102.392 291.102C105.773 287.925 106.523 283.904 104.521 279.685C102.094 274.571 96.5179 272.677 91.3029 275.197ZM139 275.273C137.625 275.956 135.692 278.165 134.704 280.181C133.079 283.498 133.048 284.18 134.376 287.357C136.437 292.291 141.101 294.586 146.052 293.103C154.685 290.516 155.474 279.289 147.316 275.117C144.503 273.679 142.115 273.724 139 275.273ZM186.5 275.11C181.17 278.175 179.421 284.66 182.61 289.528C183.496 290.88 185.898 292.488 187.948 293.103C195.576 295.388 202.664 287.917 199.668 280.75C198.921 278.962 197.605 276.916 196.744 276.202C194.52 274.357 188.858 273.754 186.5 275.11ZM233.303 275.197C230.288 276.654 227.708 282.394 228.483 285.921C230.037 292.997 239.199 295.98 244.392 291.102C247.773 287.925 248.523 283.904 246.521 279.685C244.094 274.571 238.518 272.677 233.303 275.197ZM0.231934 316C0.231934 317.925 0.437934 318.712 0.688934 317.75C0.940934 316.788 0.940934 315.212 0.688934 314.25C0.437934 313.288 0.231934 314.075 0.231934 316ZM24.4969 334.75C30.9119 358.602 45.1169 389.043 59.2259 409.173L67.4079 420.845L70.3099 418.78C71.9049 417.643 75.7349 414.505 78.8189 411.806C81.9039 409.106 87.6909 405.285 91.6799 403.314L98.9319 399.73L95.0129 395.277C87.3529 386.575 84.4639 377.236 86.1499 366.629C90.4779 339.396 123.802 328.619 143.196 348.181C150.386 355.433 152.5 360.845 152.5 372C152.5 380.68 152.241 381.97 149.5 386.942C147.85 389.935 144.73 394.09 142.566 396.175C140.403 398.26 138.828 400.116 139.066 400.3C139.305 400.484 141.988 401.865 145.03 403.369C148.071 404.873 153.952 408.959 158.098 412.447C167.481 420.342 173.72 423.626 181.76 424.9C194.334 426.893 204.626 423.37 217.409 412.698C221.759 409.066 227.906 404.838 231.07 403.301L236.823 400.506L231.856 395.254C226.034 389.099 223.309 383.483 222.404 375.777C220.733 361.561 228.736 347.402 242 341.109C246.588 338.933 248.91 338.5 256 338.5C263.128 338.5 265.387 338.926 270 341.138C282.034 346.91 289.946 359.183 289.988 372.145C290.011 379.2 286.393 388.181 281.184 393.996L276.311 399.437L283.905 403.183C288.082 405.244 294.65 409.684 298.5 413.05C309.854 422.976 321.011 426.817 333 424.927C341.848 423.532 346.698 421.174 354.843 414.309C361.446 408.743 370.179 402.828 373.5 401.672C374.05 401.481 372.394 399.274 369.82 396.768C367.247 394.262 363.874 389.801 362.325 386.856C359.813 382.077 359.509 380.477 359.505 372C359.501 363.858 359.857 361.787 362 357.511C369.098 343.347 385.256 335.506 400.133 339.008C425.49 344.975 434.822 375.695 417.203 395.197C414.135 398.593 413.975 399.043 415.643 399.589C421.854 401.624 430.528 406.763 437.349 412.451C441.666 416.05 445.554 418.775 445.989 418.507C446.424 418.238 450.429 412.602 454.89 405.981C468.568 385.682 481.263 357.954 487.503 334.75L489.856 326H256H22.1439L24.4969 334.75ZM113.5 359.167C106.462 363.059 103.826 369.638 106.499 376.637C110.558 387.264 122.801 388.968 130.381 379.959C135.513 373.86 132.98 363.117 125.583 359.606C121.686 357.757 116.397 357.565 113.5 359.167ZM249.241 359.995C242.581 364.055 240.367 371.291 243.752 377.929C250.194 390.563 268.22 387.04 269.665 372.864C270.438 365.28 263.749 358.007 256 358.007C254.075 358.007 251.033 358.902 249.241 359.995ZM386.256 359.645C378.985 363.229 376.543 373.926 381.619 379.959C389.199 388.968 401.442 387.264 405.501 376.637C410.075 364.658 397.897 353.906 386.256 359.645ZM107.182 464.119C97.1739 465.783 85.8939 471.713 75.9739 480.523C59.3379 495.298 38.5449 495.598 21.5699 481.308C13.7289 474.708 3.99993 478.153 3.99993 487.531C3.99993 490.806 4.63393 492.457 6.74993 494.686C20.2099 508.871 42.6209 515.084 62.2339 510.068C72.3789 507.473 79.9809 503.417 89.1119 495.725C97.9849 488.25 103.358 485.42 111.561 483.904C123.825 481.637 134.44 485.06 146.328 495.114C150.823 498.915 157.65 503.601 161.5 505.526C183.72 516.636 208.773 513.037 228.502 495.899C237.044 488.479 242.747 485.465 251.188 483.91C256.021 483.019 259.213 483 263.944 483.833C272.492 485.339 277.617 488.005 286.762 495.705C312.155 517.082 342.783 517.195 368 496.004C380.946 485.125 392.193 481.452 404.666 484.029C412.634 485.675 418.242 488.726 426.5 495.909C449.473 515.891 481.032 517.191 503.794 499.093C512.462 492.201 514.039 485.948 508.505 480.414C504.659 476.568 499.335 477.087 493.245 481.9C486.651 487.113 481.702 489.521 474.545 490.998C461.959 493.596 450.829 490.136 438.717 479.861C417.673 462.008 394.56 458.385 371.529 469.328C367.663 471.165 361.575 475.145 358 478.173C348.889 485.889 343.914 488.807 336.73 490.648C323.589 494.014 311.545 490.392 298 479.001C272.926 457.913 241.822 457.922 217.5 479.023C208.818 486.556 203.152 489.554 194.629 491.124C181.828 493.483 171.071 489.894 158.5 479.069C143.253 465.941 126.161 460.961 107.182 464.119Z" fill="black"/>
</g>
<defs>
<clipPath id="clip0_114_59">
<rect width="512" height="512" fill="white"/>
</clipPath>
</defs>
</svg>
