<svg width="513" height="513" viewBox="0 0 513 513" fill="none" xmlns="http://www.w3.org/2000/svg">
<g clip-path="url(#clip0_114_51)">
<path fill-rule="evenodd" clip-rule="evenodd" d="M235.886 10.5653C225.285 11.6803 213.231 14.1343 203.134 17.2333C193.613 20.1563 189.634 23.6433 189.634 29.0653C189.634 33.7243 193.981 38.6683 198.134 38.7333C199.784 38.7593 205.903 37.4233 211.731 35.7643C243.366 26.7613 274.48 28.1903 305.16 40.0563C328.71 49.1643 351.945 67.0393 367.24 87.8163C374.736 97.9993 374.732 98.0013 360.484 91.0663C335.195 78.7573 300.098 69.5883 278.16 69.5583C273.22 69.5523 272.941 69.3813 261.844 59.5873C255.634 54.1063 249.571 48.9343 248.371 48.0943C242.176 43.7543 233.634 48.7193 233.634 56.6593C233.634 60.3893 234.183 61.4343 238.132 65.2183C243.279 70.1493 243.968 69.6033 230.134 71.5633C219.775 73.0303 200.891 77.4353 197.445 79.1873C191.256 82.3323 189.803 89.2353 194.223 94.4883C196.382 97.0553 197.532 97.5653 201.158 97.5653C203.548 97.5653 206.706 97.1083 208.176 96.5493C214.105 94.2953 235.97 90.5603 249.384 89.5103C259.817 88.6943 267.397 88.6913 277.681 89.4993C290.163 90.4803 311.729 93.8873 313.884 95.2193C314.325 95.4923 310.287 99.3033 304.91 103.689C288.458 117.107 287.634 118.011 287.634 122.654C287.634 129.723 294.537 134.458 301.146 131.922C302.068 131.568 310.681 124.846 320.286 116.983L337.75 102.686L342.442 104.684C356.679 110.748 383.634 126.39 383.634 128.588C383.634 130.059 372.851 142.076 366.841 147.304C347.54 164.091 326.759 174.698 301.186 180.813C293.393 182.677 289.212 182.978 271.134 182.978C247.996 182.978 241.381 181.947 223.082 175.492C206.06 169.487 194.378 162.659 175.988 147.969C159.101 134.479 142.628 125.621 125.861 121.012C120.247 119.47 119.656 119.066 120.241 117.177C121.419 113.374 126.807 103.211 131.7 95.5653C138.522 84.9043 139.072 83.1193 136.907 78.6903C134.736 74.2513 130.701 72.1423 126.047 73.0153C122.014 73.7723 117.678 79.0943 109.722 93.0533C104.714 101.84 97.1663 119.657 96.0163 125.403C95.3053 128.958 97.8743 134.285 100.932 135.596C102.143 136.116 107.184 137.408 112.134 138.467C132.201 142.762 146.971 150.075 164.462 164.374C187.884 183.522 210.401 194.535 238.885 200.772C247.777 202.719 252.047 203.016 271.134 203.016C290.172 203.016 294.502 202.716 303.298 200.789C318.544 197.449 330.796 193.165 344.134 186.511C360.821 178.187 373.004 169.23 387.793 154.411L400.452 141.728L408.982 150.396C413.674 155.164 419.903 162.058 422.823 165.716C425.744 169.374 429.168 172.861 430.431 173.466C437.14 176.677 444.634 172.139 444.634 164.865C444.634 161.631 443.566 159.649 437.993 152.538C434.341 147.878 425.858 138.665 419.142 132.065C407.263 120.391 406.815 119.793 402.682 110.065C380.572 58.0293 334.63 21.5223 279.404 12.1063C268.297 10.2123 246.562 9.44329 235.886 10.5653ZM153.034 43.9653C148.421 48.5783 148.421 52.5523 153.034 57.1653C156.814 60.9453 159.998 61.4623 164.654 59.0553C173.795 54.3283 169.66 40.5653 159.1 40.5653C157.401 40.5653 155.2 41.7993 153.034 43.9653ZM62.6343 172.271C59.1383 173.549 56.4563 177.427 53.1583 185.974C48.7393 197.428 45.2983 208.954 43.1393 219.54C41.6043 227.066 40.8733 228.559 34.7953 236.569C-10.1777 295.846 -10.6037 374.915 33.7313 434.273C69.8663 482.652 131.886 507.4 191.134 497.081C200.779 495.401 204.318 493.552 206.527 489.04C207.795 486.451 207.636 485.332 204.763 476.63C203.025 471.369 200.899 463.69 200.037 459.565C197.938 449.523 197.953 429.62 200.067 417.722C208.084 372.614 199.506 330.909 174.529 293.569C163.133 276.532 141.728 256.464 122.938 245.2C108.515 236.554 88.3483 228.873 72.1993 225.873C67.2133 224.947 62.9853 224.088 62.8043 223.964C62.1203 223.496 67.9673 203.647 71.8503 193.256C76.5343 180.723 76.3523 177.639 70.7043 173.833C67.3603 171.58 65.5073 171.221 62.6343 172.271ZM447.315 228.899C431.621 244.807 422.149 250.975 400.74 259.226C364.359 273.247 338.338 293.49 318.38 323.3C290.961 364.253 283.816 418.722 299.727 465.502C301.314 470.168 302.275 474.324 301.863 474.736C300.598 476.001 282.692 480.421 272.134 482.074C261.504 483.738 258.027 485.423 255.784 489.999C253.908 493.828 256.047 499.318 260.408 501.865C263.499 503.67 264.042 503.681 273.881 502.126C285.312 500.32 300.569 496.643 310.572 493.283C316.68 491.231 317.732 491.156 324.653 492.284C334.518 493.893 360.945 494.058 371.634 492.578C405.345 487.911 436.765 472.789 460.977 449.578C473.351 437.715 481.469 427.614 489.6 413.965C517.883 366.485 520.149 307.479 495.573 258.426C489.616 246.538 482.621 235.694 475.342 227.065C468.388 218.822 466.726 217.613 462.315 217.587C458.762 217.567 457.718 218.354 447.315 228.899ZM457.096 247.638C445.03 259.973 431.101 268.549 407.741 278.027C381.013 288.872 367.742 297.465 351.095 314.704C331.121 335.389 317.857 361.814 313.106 390.387C311.759 398.485 311.497 404.517 311.888 418.387C312.324 433.821 312.77 437.535 315.4 447.647C317.056 454.017 319.254 461.16 320.284 463.522L322.156 467.814L333.145 462.13C342.871 457.099 359.228 446.76 365.28 441.817L367.425 440.065L364.051 419.565C359.861 394.102 359.801 391.671 363.27 388.201C368.208 383.264 377.103 385.291 379.554 391.911C379.992 393.096 381.375 400.733 382.625 408.883L384.899 423.701L388.369 420.383C393.141 415.819 402.338 404.462 408.015 396.12C420.229 378.174 428.927 359.677 435.551 337.565C440.049 322.553 442.134 319.565 448.113 319.565C452.226 319.565 457.184 323.431 457.904 327.199C458.705 331.387 451.846 354.902 445.742 368.898C444.583 371.556 443.634 373.899 443.634 374.104C443.634 374.309 445.491 373.821 447.76 373.021C456.961 369.774 463.277 372.483 464.301 380.115C464.753 383.488 464.404 384.684 462.212 387.29C460.045 389.865 456.897 391.319 444.358 395.534L429.134 400.651L423.488 408.858C407.506 432.087 387.035 452.095 363.134 467.844L354.134 473.775L362.634 473.232C394.241 471.214 426.049 456.267 450.149 432.107C471.205 410.998 484.436 386.205 490.319 356.835C492.999 343.453 492.716 316.444 489.75 302.565C485.558 282.953 479.05 267.297 468.58 251.645C465.24 246.651 462.406 242.565 462.283 242.565C462.16 242.565 459.826 244.848 457.096 247.638ZM59.5313 243.935C59.4753 244.007 59.0943 249.24 58.6863 255.565C57.9973 266.217 58.9403 291.803 60.1633 295.656C60.5173 296.771 67.6153 299.903 81.4143 305.034C97.1143 310.872 102.8 313.448 104.884 315.668C108.508 319.528 108.568 324.301 105.045 328.488C101.319 332.916 97.5653 332.559 80.5283 326.153C72.6113 323.176 66.0103 321.074 65.8583 321.481C65.2643 323.073 73.0803 343.679 78.5953 355.065C88.2443 374.982 99.8803 391.528 116.316 408.704C124.98 417.758 125.634 418.73 125.634 422.549C125.634 428.959 119.546 433.764 113.383 432.217C109.485 431.238 80.7783 400.62 80.6613 397.315C80.6463 396.902 80.2563 396.565 79.7933 396.565C79.3313 396.565 78.4103 398.989 77.7473 401.952C76.4593 407.705 74.8373 409.777 70.2573 411.518C66.6103 412.905 60.8733 410.353 58.6693 406.362C57.3043 403.889 57.4513 402.271 60.4033 387.324L63.6303 370.989L58.2453 359.027C46.3093 332.512 38.6343 300.763 38.6343 277.9C38.6343 273.931 38.2413 270.44 37.7603 270.143C35.6613 268.846 26.0113 295.01 22.9493 310.295C20.3183 323.433 20.5523 350.784 23.4073 363.748C29.9333 393.38 42.3593 416.373 63.0783 437.153C83.6183 457.754 107.252 470.591 135.946 476.733C144.178 478.495 149.621 478.929 164.301 478.99C174.292 479.031 182.737 478.795 183.067 478.465C183.398 478.135 182.775 474.085 181.683 469.465C177.536 451.911 177.139 430.223 180.642 412.565C182.7 402.193 183.497 386.29 182.547 374.57C177.892 317.153 139.591 268.126 85.2853 250.068C77.2353 247.391 60.0373 243.296 59.5313 243.935Z" fill="black"/>
</g>
<defs>
<clipPath id="clip0_114_51">
<rect width="512" height="512" fill="white" transform="translate(0.634277 0.56543)"/>
</clipPath>
</defs>
</svg>
