<svg width="25" height="25" viewBox="0 0 25 25" fill="none" xmlns="http://www.w3.org/2000/svg">
<path d="M13.2909 1.41211L15.9199 7.4082C16.0187 7.63386 16.1764 7.82884 16.3763 7.97279C16.5763 8.11674 16.8112 8.20438 17.0566 8.22656L23.4609 8.80078C24.1855 8.90625 24.4745 9.79492 23.9491 10.3066L19.1249 14.3594C18.7343 14.6875 18.5566 15.2031 18.664 15.7012L20.0663 22.2656C20.1894 22.9863 19.4335 23.5371 18.7851 23.1953L13.1952 19.9219C12.9844 19.7981 12.7444 19.7329 12.4999 19.7329C12.2555 19.7329 12.0154 19.7981 11.8046 19.9219L6.21477 23.1934C5.56829 23.5332 4.81048 22.9844 4.93352 22.2637L6.33587 15.6992C6.44133 15.2012 6.26555 14.6855 5.87493 14.3574L1.04876 10.3086C0.525319 9.79883 0.814382 8.9082 1.53704 8.80273L7.94134 8.22852C8.18671 8.20633 8.42163 8.11869 8.62158 7.97474C8.82153 7.8308 8.97917 7.63582 9.07805 7.41016L11.707 1.41406C12.0331 0.757813 12.9667 0.757813 13.2909 1.41211Z" fill="#FDD835"/>
<path d="M13.0995 7.76758L12.6542 3.34961C12.6366 3.10352 12.5858 2.68164 12.9803 2.68164C13.2928 2.68164 13.4628 3.33203 13.4628 3.33203L14.7987 6.87891C15.3026 8.22852 15.0956 8.69141 14.6093 8.96484C14.0507 9.27734 13.2264 9.0332 13.0995 7.76758Z" fill="#FFFF8D"/>
<path d="M18.6094 13.9668L22.4415 10.9766C22.6309 10.8184 22.9727 10.5664 22.6993 10.2793C22.4825 10.0527 21.8965 10.3789 21.8965 10.3789L18.543 11.6895C17.543 12.0352 16.879 12.5469 16.8204 13.1914C16.7442 14.0508 17.5157 14.7129 18.6094 13.9668Z" fill="#F4B400"/>
</svg>
