<svg width="48" height="48" viewBox="0 0 48 48" fill="none" xmlns="http://www.w3.org/2000/svg">
<path fill-rule="evenodd" clip-rule="evenodd" d="M30.445 20.664C32.165 20.268 33.725 19.627 34.829 18.256C35.86 16.975 36.301 15.288 36.491 13.266C37.971 13.722 39.112 14.766 39.998 16.393C41.065 18.353 41.728 21.137 41.933 24.616C35.974 24.084 31.802 27.367 30.756 31.4H25.802L24 34.765L22.198 31.4H17.244C16.198 27.367 12.026 24.084 6.067 24.616C6.271 21.137 6.935 18.353 8.002 16.394C8.888 14.765 10.029 13.722 11.509 13.265C11.699 15.288 12.14 16.975 13.171 18.255C14.271 19.623 15.825 20.264 17.539 20.66L17.283 18.526C14.367 17.668 13.513 16.014 13.388 11C13.2247 11 13.0637 11.004 12.905 11.012C12.3956 11.0369 11.8895 11.1082 11.393 11.225C6.698 12.342 4.4 17.549 4.048 24.933C4.01581 25.6215 3.99981 26.3107 4 27C4.696 26.8227 5.36333 26.6993 6.002 26.63C12.086 25.951 15.5 29.87 15.5 33.4H21L24 39L27 33.4H32.5C32.5 29.87 35.914 25.951 41.999 26.63C42.637 26.6993 43.304 26.8227 44 27C44 26.2933 43.984 25.6043 43.952 24.933C43.602 17.549 41.302 12.343 36.607 11.225C36.1105 11.1082 35.6044 11.0369 35.095 11.012C34.9341 11.0041 34.7731 11.0001 34.612 11C34.486 16.006 33.636 17.663 30.73 18.522L30.445 20.664Z" fill="black"/>
<path fill-rule="evenodd" clip-rule="evenodd" d="M18.8901 12.006C19.0206 11.9915 19.1527 12.0029 19.2788 12.0395C19.405 12.0761 19.5227 12.1372 19.6252 12.2193C19.7277 12.3014 19.813 12.4029 19.8763 12.5179C19.9396 12.633 19.9796 12.7594 19.9941 12.89L20.9941 21.89C21.0085 22.0205 20.9971 22.1526 20.9605 22.2787C20.9239 22.4048 20.8628 22.5225 20.7807 22.625C20.6986 22.7276 20.5972 22.8129 20.4821 22.8762C20.367 22.9395 20.2406 22.9795 20.1101 22.994C19.8465 23.0231 19.582 22.9464 19.375 22.7806C19.168 22.6148 19.0352 22.3736 19.0061 22.11L18.0061 13.11C17.9916 12.9794 18.003 12.8473 18.0396 12.7212C18.0762 12.5951 18.1373 12.4774 18.2194 12.3749C18.3015 12.2723 18.403 12.187 18.518 12.1237C18.6331 12.0604 18.7595 12.0204 18.8901 12.006ZM29.1101 12.006C28.9795 11.9915 28.8474 12.0029 28.7213 12.0395C28.5952 12.0761 28.4775 12.1372 28.375 12.2193C28.2725 12.3014 28.1871 12.4029 28.1238 12.5179C28.0605 12.633 28.0205 12.7594 28.0061 12.89L27.0061 21.89C26.9769 22.1536 27.0536 22.418 27.2194 22.625C27.3852 22.8321 27.6264 22.9648 27.8901 22.994C28.1537 23.0231 28.4181 22.9464 28.6252 22.7806C28.8322 22.6148 28.9649 22.3736 28.9941 22.11L29.9941 13.11C30.0085 12.9794 29.9971 12.8473 29.9605 12.7212C29.9239 12.5951 29.8628 12.4774 29.7807 12.3749C29.6987 12.2723 29.5972 12.187 29.4821 12.1237C29.367 12.0604 29.2406 12.0204 29.1101 12.006Z" fill="black"/>
<path fill-rule="evenodd" clip-rule="evenodd" d="M24.005 16C22.977 16.006 21.901 16.29 20.385 16.923L19.615 15.077C21.227 14.403 22.585 14.007 23.995 14C25.407 13.993 26.771 14.376 28.398 15.083L27.602 16.917C26.1 16.265 25.027 15.995 24.005 16Z" fill="black"/>
</svg>
