<svg width="30" height="30" viewBox="0 0 30 30" fill="none" xmlns="http://www.w3.org/2000/svg">
<path fill-rule="evenodd" clip-rule="evenodd" d="M9.06256 9.0626V8.9126C9.06256 7.33787 9.68812 5.82765 10.8016 4.71415C11.9151 3.60065 13.4253 2.9751 15.0001 2.9751C16.5748 2.9751 18.085 3.60065 19.1985 4.71415C20.312 5.82765 20.9376 7.33787 20.9376 8.9126V9.0626H22.8138C23.5276 9.0626 24.1338 9.58635 24.2388 10.2926L24.5113 12.1588C25.0488 15.8313 25.0488 19.5638 24.5113 23.2363C24.385 24.0986 23.9749 24.8942 23.3458 25.4973C22.7166 26.1004 21.9044 26.4766 21.0376 26.5663L20.2513 26.6476C16.7599 27.0101 13.2403 27.0101 9.74881 26.6476L8.96256 26.5663C8.0957 26.4766 7.28349 26.1004 6.65437 25.4973C6.02525 24.8942 5.61511 24.0986 5.48881 23.2363C4.95067 19.5635 4.95067 15.8317 5.48881 12.1588L5.76256 10.2926C5.81268 9.9508 5.98411 9.63845 6.24552 9.41262C6.50693 9.18678 6.84086 9.06254 7.18631 9.0626H9.06256ZM13.9876 4.97885C14.5877 4.8244 15.2152 4.8093 15.8221 4.93469C16.429 5.06008 16.9991 5.32264 17.4889 5.70228C17.9787 6.08192 18.3751 6.56858 18.6479 7.12502C18.9206 7.68145 19.0625 8.29291 19.0626 8.9126V9.0626H10.9376V8.9126C10.9377 8.0115 11.2374 7.13602 11.7895 6.42389C12.3417 5.71177 13.1149 5.20343 13.9876 4.97885ZM9.06256 10.9376V13.7501C9.06256 13.9987 9.16133 14.2372 9.33715 14.413C9.51297 14.5888 9.75142 14.6876 10.0001 14.6876C10.2487 14.6876 10.4872 14.5888 10.663 14.413C10.8388 14.2372 10.9376 13.9987 10.9376 13.7501V10.9376H19.0626V13.7501C19.0626 13.9987 19.1613 14.2372 19.3372 14.413C19.513 14.5888 19.7514 14.6876 20.0001 14.6876C20.2487 14.6876 20.4872 14.5888 20.663 14.413C20.8388 14.2372 20.9376 13.9987 20.9376 13.7501V10.9376H22.4376L22.6563 12.4301C23.1676 15.9232 23.1676 19.472 22.6563 22.9651C22.5906 23.4151 22.3766 23.8303 22.0483 24.145C21.72 24.4597 21.2962 24.6559 20.8438 24.7026L20.0576 24.7826C16.6951 25.1326 13.3051 25.1326 9.94256 24.7826L9.15506 24.7013C8.70292 24.6544 8.27934 24.4581 7.9513 24.1434C7.62326 23.8287 7.4095 23.4136 7.34381 22.9638C6.83213 19.4712 6.83213 15.9227 7.34381 12.4301L7.56256 10.9376H9.06256Z" fill="black"/>
</svg>
