<svg width="512" height="512" viewBox="0 0 512 512" fill="none" xmlns="http://www.w3.org/2000/svg">
<path fill-rule="evenodd" clip-rule="evenodd" d="M448.882 65.3199C446.893 66.0639 443.743 67.6239 441.882 68.7869C440.022 69.9489 406.715 102.76 367.866 141.7C300.844 208.881 297.124 212.796 295.116 218.288C293.185 223.568 293 226.134 293 247.577C293 275.092 293.517 277.135 301.444 280.973C305.768 283.066 306.964 283.143 330.228 282.828C353.401 282.515 354.726 282.392 359.5 280.112C366.831 276.61 505.61 137.831 509.112 130.5C512.638 123.118 512.499 111.452 508.803 104.5C505.345 97.9969 477.223 70.0529 471 66.9369C465.438 64.1519 454.2 63.3299 448.882 65.3199ZM446.652 105.109C440.244 111.31 435 116.867 435 117.458C435 118.049 440.178 123.695 446.506 130.006L458.011 141.479L470.011 129.479L482.011 117.479L470.158 105.657L458.305 93.8349L446.652 105.109ZM32 104.882C28.975 105.859 24.951 107.466 23.058 108.454C17.861 111.166 9.323 119.692 6.017 125.47C0.0170002 135.956 0 136.193 0 206.824C0 271.184 0.000999928 271.23 2.184 275.114C4.485 279.208 10.648 283 15 283C19.352 283 25.515 279.208 27.816 275.114C29.998 271.232 30 271.156 30 207.848C30 148.074 30.105 144.272 31.851 141.017C32.87 139.118 34.928 136.65 36.425 135.532C39.124 133.517 40.336 133.496 183.5 133C327.349 132.502 327.863 132.493 330.615 130.438C340.036 123.404 340.217 111.541 331.001 105.25L327.704 103L182.602 103.054C46.454 103.104 37.161 103.217 32 104.882ZM367.75 183.972L323 228.629V240.814V253H334.746H346.492L391.74 207.76L436.989 162.519L425.26 150.76C418.809 144.292 413.299 139.071 413.016 139.157C412.732 139.244 392.363 159.41 367.75 183.972ZM117.762 189.942C100.028 195.611 85.408 213.325 74.623 242.209C67.964 260.044 61.503 289.515 57.962 318.209L56.763 327.918L52.132 329.417C49.584 330.242 42.134 332.256 35.576 333.893C29.018 335.53 22.493 337.718 21.076 338.755C9.718 347.074 16.214 365.58 30.361 365.203C32.637 365.143 38.837 364.022 44.139 362.712L53.778 360.332L53.308 391.416C52.853 421.56 52.902 422.599 54.91 425.759C61.01 435.357 73.264 435.318 80.408 425.677C82.377 423.02 82.538 421.162 83.143 394.177C83.496 378.405 84.109 361.877 84.505 357.449L85.223 349.399L95.627 344.559C145.716 321.259 182.012 282.79 187.064 247.648C190.815 221.556 174.609 199.045 145.645 190.114C137.015 187.453 125.765 187.384 117.762 189.942ZM124.248 220.522C117.966 223.702 114.275 227.958 109.091 238C104.049 247.768 100.602 257.503 96.522 273.5C92.903 287.689 88.45 312.784 89.385 313.719C90.22 314.554 109.533 302.727 119.268 295.418C129.078 288.054 141.987 274.854 147.91 266.133C158.994 249.81 160.442 237.55 152.396 228.149C148.39 223.469 140.43 219.269 134 218.443C130.366 217.975 128.489 218.376 124.248 220.522ZM444.071 254.752C442.185 255.713 439.71 257.77 438.571 259.322C436.532 262.101 436.492 263.285 436 335C435.506 406.964 435.474 407.889 433.408 410.677C432.257 412.23 429.828 414.512 428.01 415.75L424.704 418H274.587C130.4 418 124.331 418.073 120.984 419.852C110.286 425.537 110.306 440.866 121.02 446.248C124.287 447.89 133.723 447.996 275.5 447.987C398.391 447.978 427.431 447.727 431.5 446.639C449.339 441.866 462.193 427.59 464.994 409.437C465.7 404.864 465.969 378.753 465.782 332.823C465.503 263.912 465.477 263.114 463.408 260.323C458.269 253.388 450.905 251.267 444.071 254.752ZM195.766 295.09C191.819 296.883 187.232 301.586 168.179 323.371C155.609 337.742 144.802 350.483 144.162 351.684C143.523 352.886 143 355.857 143 358.286C143 369.557 155.979 376.858 165.094 370.716C166.958 369.459 175.201 360.797 183.412 351.466C191.622 342.135 198.653 334.37 199.036 334.211C199.419 334.052 200.051 336.733 200.44 340.168C201.35 348.216 203.226 352.606 207.733 357.231C214.469 364.144 224.856 365.665 233.882 361.06C236.014 359.973 241.316 355.219 245.664 350.497L253.57 341.91L258.68 349.205C261.491 353.217 264.856 357.491 266.159 358.702C269.645 361.944 275.296 364 280.718 364C286.718 364 343.067 348.072 346.836 345.31C358.011 337.121 352.161 318.977 338.302 318.838C336.211 318.817 323.34 322.007 309.699 325.927C296.059 329.848 284.505 332.812 284.023 332.514C283.542 332.217 280.646 328.403 277.588 324.038C270.915 314.516 268.744 312.337 263.5 309.902C254.017 305.497 243.551 308.617 234.776 318.462C232.016 321.558 229.477 323.81 229.132 323.465C228.788 323.121 227.995 319.265 227.371 314.897C226.588 309.416 225.432 305.74 223.641 303.033C217.928 294.401 205.241 290.786 195.766 295.09Z" fill="black"/>
</svg>
