<svg width="100" height="100" viewBox="0 0 100 100" fill="none" xmlns="http://www.w3.org/2000/svg">
<path d="M93.0663 89.4531C92.8099 89.7738 92.4929 90.041 92.1332 90.2391C91.7735 90.4373 91.3784 90.5626 90.9702 90.608C90.5621 90.6533 90.149 90.6178 89.7547 90.5034C89.3603 90.389 88.9923 90.198 88.6718 89.9414C88.5272 89.8242 73.5077 78.1249 49.9999 78.1249C26.4921 78.1249 11.4686 89.8437 11.328 89.9453C11.0071 90.2017 10.6389 90.3925 10.2443 90.5067C9.84971 90.6209 9.43649 90.6562 9.02824 90.6107C8.20374 90.5187 7.44953 90.103 6.93153 89.455C6.41353 88.807 6.17417 87.9798 6.2661 87.1553C6.35804 86.3307 6.77374 85.5765 7.42176 85.0585C8.05848 84.5507 22.4686 73.2382 45.8163 71.9921C44.6022 67.1532 44.1683 62.1514 44.5311 57.1757C45.2108 48.6953 48.7968 37.3984 61.328 28.8632C59.1898 28.3332 56.9915 28.085 54.7889 28.1249C47.3671 28.3671 42.703 32.6992 40.5311 41.3749C40.3636 42.0525 39.9742 42.6544 39.4248 43.0848C38.8754 43.5153 38.1978 43.7494 37.4999 43.7499C37.2443 43.7514 36.9896 43.7199 36.7421 43.6562C35.9382 43.4551 35.2471 42.943 34.8208 42.2324C34.3944 41.5219 34.2678 40.6711 34.4686 39.8671C38.0819 25.4335 47.4022 22.1249 54.5858 21.8984C57.4389 21.8364 60.2873 22.1583 63.0546 22.8554C61.5585 20.3828 59.371 17.8046 56.3319 16.5078C52.4257 14.8515 47.6718 15.5742 42.1483 18.6601C41.4231 19.0641 40.5671 19.1635 39.7686 18.9365C38.9701 18.7094 38.2946 18.1744 37.8905 17.4492C37.4865 16.724 37.3871 15.868 37.6142 15.0695C37.8413 14.271 38.3762 13.5954 39.1014 13.1913C46.4218 9.10932 53.0546 8.29291 58.8202 10.7695C63.6991 12.8632 66.9179 16.9335 68.9257 20.5351C71.3397 16.7695 74.3475 14.2187 77.6718 13.1367C82.3046 11.6249 87.2968 12.8554 92.5155 16.7968C93.1475 17.3063 93.5565 18.0417 93.6559 18.8474C93.7552 19.6531 93.5371 20.4658 93.0478 21.1136C92.5584 21.7613 91.8362 22.1932 91.034 22.3178C90.2319 22.4424 89.4127 22.2499 88.7499 21.7812C85.2694 19.1523 82.1991 18.2421 79.6288 19.0742C76.7811 19.9921 74.6015 22.9804 73.2343 25.5624C76.045 26.1325 78.7495 27.1381 81.2499 28.5429C86.9569 31.8046 93.7499 38.7187 93.7499 53.1288C93.7499 53.9576 93.4207 54.7525 92.8346 55.3386C92.2485 55.9246 91.4537 56.2538 90.6249 56.2538C89.7961 56.2538 89.0012 55.9246 88.4152 55.3386C87.8291 54.7525 87.4999 53.9576 87.4999 53.1288C87.4999 43.9648 84.3475 37.5038 78.1249 33.9882C77.3998 33.577 76.6496 33.2117 75.8788 32.8945C77.8464 36.8946 78.5365 41.403 77.8554 45.8085C77.3643 49.0679 76.1845 52.1853 74.3944 54.9531C73.9154 55.6249 73.1901 56.08 72.3768 56.219C71.5635 56.3581 70.7282 56.1699 70.0531 55.6955C69.3781 55.221 68.918 54.4988 68.7734 53.6865C68.6288 52.8742 68.8113 52.0376 69.2811 51.3593C69.5702 50.9335 75.66 41.8359 68.0077 32.0742C57.4608 38.0156 51.6444 46.6249 50.7577 57.6953C50.4125 62.4912 50.919 67.3103 52.2538 71.9296C76.7265 72.6367 91.91 84.5585 92.5663 85.0781C93.2102 85.5937 93.6241 86.343 93.7178 87.1625C93.8114 87.9821 93.5773 88.8055 93.0663 89.4531ZM9.37489 54.6874C9.37489 52.5242 10.0164 50.4096 11.2182 48.6109C12.42 46.8122 14.1282 45.4103 16.1268 44.5825C18.1254 43.7547 20.3245 43.5381 22.4462 43.9601C24.5679 44.3821 26.5167 45.4238 28.0464 46.9535C29.576 48.4831 30.6177 50.432 31.0397 52.5536C31.4618 54.6753 31.2452 56.8745 30.4173 58.873C29.5895 60.8716 28.1876 62.5798 26.3889 63.7816C24.5903 64.9835 22.4756 65.6249 20.3124 65.6249C17.4116 65.6249 14.6296 64.4726 12.5784 62.4214C10.5272 60.3702 9.37489 57.5882 9.37489 54.6874ZM15.6249 54.6874C15.6249 55.6145 15.8998 56.5208 16.4149 57.2917C16.9299 58.0625 17.662 58.6633 18.5186 59.0181C19.3751 59.3729 20.3176 59.4657 21.2269 59.2849C22.1362 59.104 22.9714 58.6576 23.627 58.002C24.2825 57.3464 24.729 56.5112 24.9098 55.6019C25.0907 54.6926 24.9979 53.7501 24.6431 52.8936C24.2883 52.0371 23.6875 51.305 22.9166 50.7899C22.1458 50.2749 21.2395 49.9999 20.3124 49.9999C19.0692 49.9999 17.8769 50.4938 16.9978 51.3729C16.1187 52.252 15.6249 53.4442 15.6249 54.6874Z" fill="black"/>
</svg>
