<svg width="512" height="512" viewBox="0 0 512 512" fill="none" xmlns="http://www.w3.org/2000/svg">
<path fill-rule="evenodd" clip-rule="evenodd" d="M142.5 1.88095C133.284 6.11295 132.1 9.93295 132.044 35.6079L132 55.7159L125.75 59.5229C112.817 67.4019 96.0531 80.8939 82.9451 93.9739C44.0721 132.763 20.6211 180.274 12.8431 236C11.1021 248.47 11.1151 286.643 12.8631 298.5C19.4531 343.188 34.6891 380.253 60.5451 414.5C70.8491 428.148 81.7921 440.012 93.4621 450.186C103.694 459.108 107.172 460.139 110.927 455.365C114.49 450.836 113.683 448.281 106.75 442.143C63.3381 403.706 37.7631 357.498 28.3531 300.5C26.9751 292.155 26.5391 284.069 26.5451 267C26.5541 245.113 27.1381 238.566 30.6491 221C41.8131 165.139 75.0071 113.857 121.675 80.3729C126.529 76.8899 130.838 74.0309 131.25 74.0199C131.662 74.0089 132 91.9859 132 113.969V153.938L124.481 163.557C108.108 184.503 97.7961 206.565 91.7911 233.5C89.8321 242.287 89.5621 246.351 89.5621 267C89.5621 287.568 89.8361 291.724 91.7611 300.314C97.9071 327.741 108.953 351.056 125.835 372.235L132 379.97V405.836C132 433.459 132.416 436.484 136.886 441.339C142.982 447.961 134.069 447.5 256 447.5C377.931 447.5 369.018 447.961 375.114 441.339C379.584 436.484 380 433.459 380 405.836V379.97L386.165 372.235C402.97 351.153 414.146 327.558 420.232 300.314C423.23 286.896 423.508 249.283 420.708 236C414.826 208.09 404.191 184.885 387.495 163.526L380 153.938V113.886C380 88.1839 380.351 73.9529 380.979 74.1669C383.124 74.8969 399.909 87.3049 406.47 93.0109C410.303 96.3449 414.499 99.3379 415.794 99.6629C420.985 100.966 425.756 95.8589 424.398 90.4509C423.457 86.6999 400.038 67.6739 385.734 59.0389L380 55.5769L379.956 35.5389C379.9 9.93995 378.71 6.10995 369.5 1.88095C365.696 0.133945 360.139 0.0439453 256 0.0439453C151.861 0.0439453 146.304 0.133945 142.5 1.88095ZM147.607 16.5819C147.273 17.4519 147.001 51.0889 147.002 91.3319L147.004 164.5L167.252 171.76C178.388 175.753 187.838 179.016 188.25 179.01C188.662 179.005 189 174.881 189 169.846V160.692L183.024 155.283C176 148.927 170.502 138.829 168.986 129.5C167.65 121.274 167.713 46.5749 169.06 41.7229C170.477 36.6199 175.388 31.2589 179.843 29.9509C182.218 29.2539 194.748 28.9869 215.58 29.1889L247.659 29.4999L251.331 32.3019C258.615 37.8609 258.465 36.8719 258.803 81.4019C258.996 106.753 258.71 123.892 258.017 128.402C256.405 138.898 252.183 147.077 244.472 154.637L237.955 161.027L238.227 179.256L238.5 197.484L255.5 203.737C264.85 207.176 273.288 210.247 274.25 210.562C275.905 211.104 276 207.548 276 145.227C276 82.8359 276.106 78.9069 277.978 71.5849C280.757 60.7209 284.312 54.6489 292.98 45.9659C304.286 34.6399 316.884 28.9999 330.879 28.9999C336.194 28.9999 337.384 29.3709 340.234 31.9179L343.5 34.8359L343.764 135.304L344.028 235.773L354.089 239.386C359.623 241.374 364.341 243 364.575 243C365.249 243 365.068 18.3419 364.393 16.5819C363.845 15.1529 353.364 14.9999 256 14.9999C158.636 14.9999 148.155 15.1529 147.607 16.5819ZM183.457 46.3169C183.137 47.5919 183.016 66.8289 183.187 89.0669L183.5 129.5L186.326 135.257C187.967 138.6 190.843 142.375 193.183 144.257C195.4 146.041 198.628 148.699 200.357 150.166L203.5 152.831L204 169.059L204.5 185.286L213.75 188.622L223 191.957V173.526C223 162.648 223.435 154.139 224.062 152.763C224.646 151.481 227.138 149.158 229.599 147.6C234.79 144.317 238.024 140.377 241.22 133.445C243.454 128.6 243.506 127.69 243.813 88.5699C243.985 66.6079 243.864 47.5949 243.544 46.3199C243.033 44.2819 242.357 43.9999 237.981 43.9999H233V74.4269V104.855L230.365 106.927C226.935 109.625 224.743 109.543 221.306 106.588L218.5 104.176L218.208 74.0879L217.916 43.9999H212.958H208V74.4269V104.855L205.365 106.927C201.935 109.625 199.743 109.543 196.306 106.588L193.5 104.176L193.208 74.0879L192.916 43.9999H188.477C184.67 43.9999 183.955 44.3299 183.457 46.3169ZM319 46.1979C305.416 51.3699 296.055 61.6659 292.359 75.4999C291.308 79.4359 291.021 94.9759 291.012 148.548L291 216.595L308.75 222.951C318.512 226.447 327.063 229.511 327.75 229.76C328.744 230.121 329 211.168 329 137.107V43.9999L326.75 44.0519C325.512 44.0809 322.025 45.0459 319 46.1979ZM436.057 112.943C432.393 116.607 433.374 120.148 440.847 130.247C481.083 184.616 495.282 253.645 479.88 320C474.55 342.962 461.139 374.052 448.316 393.173C425.271 427.538 395.94 453.692 360 471.922C337.329 483.422 314.309 490.794 289 494.66C272.859 497.126 238.787 497.127 223.036 494.662C196.962 490.582 172.213 482.47 149.143 470.442C135.39 463.273 132.194 462.666 129.073 466.635C124.597 472.325 126.758 475.583 139.679 482.626C163.404 495.559 192.341 505.059 222 509.653C237.97 512.126 273.893 512.138 290 509.675C344.964 501.272 390.964 478.242 429.034 440.068C448.035 421.015 461.725 402.41 473.539 379.585C506.236 316.417 509.795 242.409 483.329 176C475.323 155.912 464.82 137.135 452.283 120.5C446.11 112.31 445.168 111.472 441.807 111.193C439.127 110.97 437.55 111.45 436.057 112.943ZM126.802 186C117.607 200.68 110.367 218.747 106.364 237C103.689 249.2 103.694 284.725 106.373 297C110.349 315.218 116.677 331.107 126.192 346.764L131.5 355.5L132 321.354C132.465 289.575 132.632 287.061 134.405 285.104C136.891 282.358 142.305 282.305 145 285C146.963 286.963 147 288.333 147 358.965C147 429.091 147.049 430.956 148.934 431.965C150.232 432.66 185.443 433 256 433C326.557 433 361.768 432.66 363.066 431.965C364.955 430.954 365 428.94 365 345.642V260.354L256.671 221.177C197.09 199.63 148.04 182 147.671 182C147.302 182 147 199.1 147 220C147 256.667 146.93 258.07 145 260C142.305 262.695 136.891 262.642 134.405 259.896C132.618 257.923 132.469 255.337 132 218.146L131.5 178.5L126.802 186ZM380.052 267.25C380.112 367.245 379.086 358.389 388.684 341.779C397.979 325.692 404.57 306.179 407.081 287.319C408.763 274.683 407.702 245.976 405.143 234.911C402.466 223.333 398.667 212.238 393.875 202C390.121 193.981 381.363 179 380.429 179C380.193 179 380.024 218.713 380.052 267.25Z" fill="black"/>
</svg>
