<svg width="512" height="512" viewBox="0 0 512 512" fill="none" xmlns="http://www.w3.org/2000/svg">
<g clip-path="url(#clip0_55_115)">
<path fill-rule="evenodd" clip-rule="evenodd" d="M234.5 0.618932C180.678 6.20493 135.245 24.6629 94.008 57.6969C83.915 65.7819 62.529 87.0759 60.435 91.1259C57.67 96.4729 61.165 102 67.311 102C69.661 102 72.179 99.9129 81.298 90.4109C121.903 48.0999 171.371 23.6139 230.715 16.4509L235.93 15.8219L241.312 24.1639C250.018 37.6589 250.451 38.7219 250.414 46.4999C250.386 52.6319 249.742 55.0249 245.225 65.7969C236.76 85.9859 235.461 86.9999 218.067 86.9999C204.806 86.9999 201.659 85.9349 197.013 79.8789C191.029 72.0769 186.601 67.8809 181.5 65.1779C177.222 62.9109 175.273 62.5279 168 62.5299C158.447 62.5329 159.004 62.3039 131.369 77.5629C115.636 86.2489 114.696 86.9559 111.4 92.5799C104.565 104.243 109.293 119.04 121.663 124.703C129.325 128.211 135.146 127.619 146.488 122.177C155.391 117.904 160.365 117.035 163.24 119.25C164.133 119.938 168.719 126.575 173.431 134C182.606 148.456 183.961 152.916 180.208 156.312C179.223 157.203 169.681 160.911 159.005 164.55C135.889 172.43 133.167 173.738 126.944 179.96C120.533 186.372 117.588 192.564 114.501 206.129C110.542 223.522 111.095 222.778 105.662 218.008C100.68 213.634 94.271 211.047 88.352 211.022C82.479 210.997 78.137 213.023 63.062 222.822C57.871 226.196 53.475 228.808 53.293 228.626C53.111 228.444 50.285 209.891 47.014 187.397L41.066 146.5L48.033 134.615C51.865 128.079 55 121.646 55 120.32C55 117.112 50.756 113 47.447 113C43.755 113 40.62 116.715 33.019 130.093C17.821 156.843 7.58901 186.931 2.27501 220.5C-0.226991 236.299 -0.168992 275.865 2.37901 292.5C11.042 349.045 36.036 398.378 76.149 438.105C115.243 476.824 163.6 500.883 220 509.674C236.368 512.226 275.685 512.197 292.5 509.621C386.913 495.157 464.118 432.37 496.767 343.5C503.701 324.625 511 291.128 511 278.181C511 275.946 511.45 273.84 512 273.5C512.607 273.125 513 265.803 513 254.882C513 243.137 512.653 237.097 512 237.5C511.394 237.874 511 236.47 511 233.937C511 220.887 503.738 187.488 496.773 168.5C470.697 97.4179 414.428 41.1439 343.5 15.2139C330.478 10.4529 307.677 4.69193 293 2.45393C282.915 0.915933 243.539 -0.319068 234.5 0.618932ZM254 15.4239C254 15.8169 255.381 18.1469 257.07 20.6009C262.54 28.5519 265.289 35.8179 265.792 43.6549C266.372 52.6959 265.35 56.7859 258.24 73.8769C253.304 85.7429 251.86 88.2189 247.037 93.0739C239.395 100.767 235.385 102 218 102C200.636 102 196.685 100.784 189.045 93.0859C185.995 90.0139 182.278 85.8549 180.784 83.8459C177.496 79.4229 170.64 76.4699 165.777 77.3819C161.194 78.2419 128.009 96.3849 125.25 99.5389C124.013 100.954 123 103.021 123 104.133C123 106.6 128.195 112 130.568 112C131.514 112 136.611 110.033 141.894 107.63C147.178 105.226 153.212 102.952 155.304 102.575C160.457 101.646 169.092 104.264 173.426 108.069C176.272 110.568 192.248 134.476 195.766 141.5C200.46 150.873 195.938 165.116 186.578 170.434C184.335 171.709 173.5 175.831 162.5 179.594C134.931 189.025 133.553 190.374 128.471 212.898C125.679 225.27 124.431 228.345 120.845 231.683C114.014 238.043 104.834 237.369 96.232 229.876C92.594 226.707 88.9 225.441 86.252 226.456C85.289 226.825 78.091 231.261 70.257 236.314C60.687 242.486 56.012 246.087 56.007 247.29C55.996 250.002 59.468 256.178 62.658 259.123C64.221 260.565 69.843 264.278 75.151 267.373L84.802 273H116.933C141.632 273 149.809 273.312 152.282 274.348C160.624 277.844 166.972 287.248 166.99 296.139C166.996 299.097 167.634 301.522 168.75 302.831C169.713 303.96 176.125 306.996 183 309.579C197.345 314.968 202.772 318.322 206.791 324.278C211.293 330.951 212.5 334.915 212.5 343.035C212.5 351.466 213.389 349.378 192.145 390.875C182.057 410.579 180.036 416.475 179.962 426.417C179.941 429.332 182.813 443.719 186.695 460.144L193.465 488.789L202.982 490.915C222.182 495.203 232.72 496.311 255 496.382C276.816 496.452 285.789 495.639 304.5 491.897C340.389 484.72 376.069 468.054 406.337 444.332C417.176 435.838 439.52 412.788 448.353 400.99C472.838 368.286 488.411 330.753 494.421 289.96C497.546 268.751 497.696 236.021 494.663 237.37C483.576 242.299 480.61 243.088 473.101 243.105L465.223 243.122L467.612 251.805C473.062 271.616 472.842 280.471 466.573 293.5C460.808 305.482 405.386 402.258 401.936 406.368C394.28 415.487 378.773 417.842 368.403 411.459C363.075 408.18 357.667 401.062 356.033 395.177C355.405 392.917 355.009 373.447 355.006 344.636C355 299.105 354.941 297.669 352.932 294.136C349.283 287.718 347.157 286.83 332.111 285.436C312.378 283.609 303.728 279.944 292.389 268.609C281.008 257.231 276 245.289 276 229.529C276 214.21 280.301 202.672 290.115 191.661C295.042 186.132 295.055 186.1 292.783 184.921C291.527 184.269 288.687 182.272 286.471 180.482C271.465 168.364 271.852 138.181 287.208 122.972C289.778 120.426 303.122 111.847 320.47 101.585C346.756 86.0369 349.527 84.1469 350.378 81.1759C351.146 78.4989 350.952 77.4099 349.31 75.2009C346.712 71.7059 342.77 71.3319 336.129 73.9489C322.106 79.4759 307.335 72.8409 303.381 59.2379C300.422 49.0609 303.518 41.2959 314.424 31.5349C323.332 23.5629 323.69 24.2629 309.047 21.0229C291.682 17.1809 254 13.3479 254 15.4239ZM330 38.0959C318.4 47.9529 318 48.4529 318 53.1189C318 59.1479 324.553 62.9149 329.984 60.0089C331.003 59.4629 334.39 58.3519 337.511 57.5389C354.869 53.0179 369.872 68.5429 365.015 85.9999C363.016 93.1839 358.947 96.3639 328.665 114.409C312.624 123.968 298.515 132.849 297.312 134.144C293.044 138.739 291.045 144.923 291.022 153.602C291.004 160.381 291.368 162.244 293.25 165.01C297.095 170.66 300.449 172.5 306.901 172.5C316.501 172.5 320.073 168.68 323.927 154.295C325.327 149.067 329.079 144.511 334.086 141.956C337.67 140.128 340.149 140 372.094 140C409.551 140 411.599 140.253 417.92 145.663C431.167 157.003 428.302 178.294 412.541 185.633C402.87 190.136 395 187.725 395 180.258C395 176.682 398.834 173 402.558 173C403.817 173 406.231 171.835 407.923 170.411C412.818 166.292 412.018 159.201 406.316 156.163C404.788 155.35 394.663 155 372.637 155C345.339 155 340.933 155.209 339.571 156.571C338.707 157.436 338 159.022 338 160.096C338 161.171 337.134 164.514 336.076 167.525L334.151 173H353.621C372.959 173 373.107 173.017 375.545 175.455C378.545 178.454 378.677 181.87 375.927 185.365L373.855 188H351.477C338.703 188 326.824 188.483 323.799 189.125C311.332 191.773 300.37 200.384 294.683 212C291.721 218.05 291.5 219.228 291.5 229C291.5 238.714 291.737 240 294.665 246.18C299.032 255.399 304.751 261.273 313.63 265.661C320.398 269.006 321.942 269.353 333.238 270.065C339.982 270.489 347.155 271.436 349.178 272.168C358.161 275.42 366.588 284.258 369.007 292.965C369.584 295.043 369.991 315.58 369.994 342.782C370 392.997 370.055 393.538 375.514 397.832C378.883 400.482 384.409 400.66 388.338 398.245C390.435 396.956 399.381 382.018 422.6 341.035C439.884 310.529 454.467 283.979 455.007 282.035C457.004 274.847 456.134 267.261 451.319 249.87L446.638 232.962L448.697 230.231L450.757 227.5L464.353 227.835C477.184 228.151 478.246 228.028 483.225 225.65C486.126 224.263 489.748 221.987 491.274 220.592L494.049 218.054L492.037 208.184C479.251 145.442 442.682 91.0819 389.208 55.3299C375.297 46.0289 351.805 33.8769 341.5 30.6509C339.977 30.1739 337.235 31.9489 330 38.0959ZM26.781 182.183C2.66801 257.152 16.499 338.126 64.311 401.912C68.264 407.185 78.024 418.038 85.999 426.029C102.635 442.697 114.285 451.84 134.267 463.909L138.033 466.184L134.679 458.842C111.787 408.726 98.094 379.664 95.573 375.838C93.839 373.207 87.488 367.088 81 361.796C68.565 351.656 64.241 345.998 61.343 336.079C58.614 326.742 59.81 318.93 66.852 300.077C70.226 291.044 72.877 283.58 72.743 283.49C72.609 283.399 68.722 281.115 64.103 278.413C53.615 272.276 47.469 266.231 43.861 258.503C41.447 253.332 40.29 247.163 35.518 214C32.471 192.825 29.86 175.133 29.717 174.683C29.573 174.234 28.252 177.609 26.781 182.183ZM0.415009 256C0.415009 266.175 0.564009 270.337 0.745009 265.25C0.927009 260.162 0.927009 251.837 0.745009 246.75C0.564009 241.662 0.415009 245.825 0.415009 256ZM81.5 304.257C76.558 317.636 75.509 321.558 75.554 326.5C75.645 336.674 77.611 339.275 98 356.188C101.575 359.154 106.122 364.037 108.105 367.04C110.087 370.043 122.162 395.225 134.937 423C147.713 450.775 158.772 474.449 159.513 475.608C160.793 477.612 174.73 483.604 175.746 482.588C176.005 482.329 173.855 472.303 170.968 460.308C163.623 429.793 163.248 416.771 169.301 402.5C170.468 399.75 177.126 386.475 184.096 373C191.067 359.525 197.082 347.039 197.464 345.253C198.385 340.941 196.467 335.244 192.783 331.351C190.572 329.015 186.413 326.967 176.671 323.418C165.353 319.295 162.911 318.004 158.992 314.067C154.329 309.383 152 304.055 152 298.068C152 294.512 150.494 291.13 148.087 289.282C146.924 288.389 138.621 288.057 117 288.038L87.5 288.013L81.5 304.257Z" fill="#0054f9"/>
</g>
<defs>
<clipPath id="clip0_55_115">
<rect width="512" height="512" fill="white"/>
</clipPath>
</defs>
</svg>
