<svg width="512" height="512" viewBox="0 0 512 512" fill="none" xmlns="http://www.w3.org/2000/svg">
<g clip-path="url(#clip0_114_67)">
<path fill-rule="evenodd" clip-rule="evenodd" d="M50.4999 39.647C45.8489 42.132 43.8719 44.163 41.8809 48.5C40.1959 52.168 40.0419 55.839 40.0219 92.782C39.9979 136.072 40.1269 137.294 45.2979 142.831C50.0549 147.926 52.2929 148.433 71.7499 148.824L89.9999 149.191V156.595V164L55.2499 164.01C20.8659 164.019 20.4469 164.044 15.4439 166.374C9.39992 169.188 3.68892 175.528 1.55392 181.795C-0.407078 187.551 -0.463078 198.204 1.44892 201.901C3.06092 205.019 7.04292 208 9.59592 208C10.9639 208 11.1509 208.669 10.6419 211.75C10.3009 213.813 10.0169 253.818 10.0109 300.651L9.99992 385.802L6.45092 387.896C1.20792 390.99 -0.00107833 394.892 0.00392167 408.718C0.00692167 418.632 0.315922 421.007 1.95592 423.696C5.56992 429.623 7.99792 430.463 22.6089 430.846L35.8109 431.192L36.9829 435.846C40.0069 447.86 50.0279 460.859 61.3769 467.49C75.2209 475.578 96.7589 476.183 111.28 468.891C123.43 462.79 133.063 451.375 137.234 438.137L139.47 431.039L209.63 430.77C277.016 430.511 279.874 430.425 281.895 428.595C284.355 426.369 284.695 421.332 282.581 418.441C281.205 416.56 278.988 416.485 210.406 416L139.651 415.5L138.499 410.5C137.866 407.75 137.014 404.488 136.606 403.25L135.865 401H249.968C358.321 401 364.024 401.088 363.15 402.75C362.643 403.713 361.656 407.088 360.955 410.25L359.682 416H335.841C313.333 416 311.888 416.112 310 418C307.306 420.694 307.358 426.109 310.103 428.595C312.012 430.325 314.418 430.546 336.309 431L360.413 431.5L361.218 435.382C362.838 443.192 368.107 452.286 374.911 459.018C385.231 469.227 396.827 473.966 411.54 473.988C432.183 474.019 449.563 463.655 458.329 446.087C460.364 442.01 462.299 436.981 462.63 434.911L463.232 431.147L482.913 430.824C505.017 430.46 505.959 430.193 510.503 422.995C512.809 419.342 513 418.118 513 406.961C513 400.124 512.612 395.122 512.107 395.434C511.615 395.738 510.934 394.873 510.593 393.513C510.251 392.152 508.628 390.046 506.986 388.831L504 386.624V370.379C504 354.832 504.089 354.107 506.069 353.478C507.207 353.117 509.005 351.399 510.065 349.661C511.742 346.911 511.993 344.551 511.993 331.5C511.993 318.407 511.745 316.095 510.05 313.314C508.981 311.561 507.183 309.633 506.054 309.029C504.507 308.201 504 306.941 504 303.925C504 299.11 501.057 292.977 497.346 290.057C495.855 288.885 490.892 286.171 486.318 284.028L478 280.13V270.277C478 262.044 477.63 259.692 475.75 255.975C473.042 250.622 466.852 246.058 461.286 245.312L457.241 244.769L454.12 230.134C449.096 206.577 448.999 209.397 454.86 208.703C464.161 207.601 468 202.93 468 192.714C468 180.802 462.163 170.848 452.556 166.374L447.5 164.02L404.25 164.01L361 164V156.603V149.206L377.25 148.82C394.523 148.411 397.077 147.785 401.702 142.831C406.866 137.301 407 136.044 407 93C407 59.208 406.759 52.359 405.462 49.254C403.477 44.504 401.373 42.233 396.79 39.894C393.2 38.061 388.384 38 247.695 38C110.501 38 102.221 38.099 100.733 39.75C97.7679 43.04 97.6309 46.459 100.338 49.609L102.822 52.5L117.411 52.824L132 53.148V69.574V86H93.4749H54.9499L55.2249 69.75L55.4999 53.5L63.4999 52.952C67.8999 52.651 72.4759 51.867 73.6689 51.21C76.8839 49.44 77.6779 44.386 75.2509 41.13C73.3879 38.632 72.7939 38.489 63.3949 38.272C55.8899 38.099 52.7749 38.431 50.4999 39.647ZM147 77.5V102H154.5H162V77.5V53H154.5H147V77.5ZM177 69.51V86.019L224.75 85.76L272.5 85.5L272.775 69.25L273.05 53H225.025H177V69.51ZM287 77.5V102H295H303V77.5V53H295H287V77.5ZM317.225 69.25L317.5 85.5L354.75 85.762L392 86.024V71.094C392 62.882 391.727 55.452 391.393 54.582C390.855 53.179 386.61 53 353.868 53H316.95L317.225 69.25ZM54.9999 116.465C54.9999 130.731 55.1499 132.01 56.9339 132.965C58.1659 133.624 72.1409 134 95.4339 134H132V117.5V101H93.4999H54.9999V116.465ZM177 117.51V134.019L224.75 133.76L272.5 133.5L272.775 117.25L273.05 101H225.025H177V117.51ZM317.225 117.25L317.5 133.5L352.792 133.763C375.985 133.936 388.755 133.666 390.042 132.978C391.856 132.006 392 130.796 392 116.465V101H354.475H316.95L317.225 117.25ZM147 125.5V134H154.5H162V125.5V117H154.5H147V125.5ZM287.436 118.305C287.142 119.071 287.036 122.804 287.201 126.599L287.5 133.5H295H302.5V125.5V117.5L295.236 117.206C289.742 116.983 287.841 117.251 287.436 118.305ZM105 156.5V164H112.5H120V156.5V149H112.5H105V156.5ZM135 156.5V164H225.5H316V156.5V149H225.5H135V156.5ZM331 156.5V164H338.5H346V156.5V149H338.5H331V156.5ZM20.2169 180.561C17.2809 182.617 14.9999 187.16 14.9999 190.95V194H234H453V190.95C453 187.16 450.719 182.617 447.783 180.561C445.781 179.158 424.088 179 234 179C43.9119 179 22.2189 179.158 20.2169 180.561ZM26.5169 211.333C25.1709 213.388 25.0189 223.892 25.2439 299.583L25.4999 385.5L37.2829 385.782L49.0649 386.064L53.7829 382.138C73.1039 366.057 103.086 366 121.275 382.011L125.807 386H249.433H373.059L378.22 381.92C381.059 379.676 385.465 376.784 388.012 375.494C406.326 366.213 431.364 369.077 445.452 382.063L449.724 386H469.362H489V370.632V355.263L484.834 354.705C467.161 352.334 460.58 325.462 474.641 313.085C477.113 310.909 480.567 308.842 482.317 308.49C488.435 307.261 489 306.913 489 304.367C489 302.214 487.862 301.343 480.75 298.05L472.5 294.231L468.07 296.816C464.462 298.921 462.011 299.479 454.866 299.821C450.041 300.051 444.982 299.961 443.624 299.62C439.545 298.597 435.116 294.145 433.98 289.927L432.923 286H395.173C357.997 286 357.357 285.966 353.02 283.75C350.598 282.512 347.24 279.771 345.558 277.659L342.5 273.818L342.211 241.409L341.921 209H321.961H302V240.04C302 268.874 301.861 271.352 300.044 274.914C297.593 279.718 293.014 283.627 288.205 285.02C285.638 285.764 250.816 286.002 174.836 285.797L65.1719 285.5L60.8359 282.487C58.3009 280.725 55.5649 277.625 54.2499 275.025C52.0619 270.698 51.9999 269.732 51.9999 239.788V209H40.0229C28.5799 209 27.9779 209.104 26.5169 211.333ZM66.9999 238.965C66.9999 267.567 67.0879 268.977 68.9339 269.965C70.1279 270.604 81.0339 271 97.4339 271H124V240V209H95.4999H66.9999V238.965ZM139 240V271H175.5H212V240V209H175.5H139V240ZM226 240V271H255.378C281.471 271 284.909 270.815 286.128 269.348C287.206 268.049 287.563 261.419 287.793 238.348L288.085 209H257.043H226V240ZM356.207 238.348C356.437 261.419 356.794 268.049 357.872 269.348C359.103 270.829 363.056 271 396.122 271H433L433.022 263.75C433.047 255.448 435.448 248.881 439.165 246.945C440.449 246.276 441.627 245.626 441.781 245.5C442.376 245.015 434.757 211.434 433.783 210.25C432.993 209.29 423.856 209 394.335 209H355.915L356.207 238.348ZM448 272.5V285H453.845C462.199 285 463 283.836 463 271.706C463 260.468 462.623 260 453.566 260H448V272.5ZM362.643 300.028C355.299 302.229 352.64 307.59 353.19 319.087C353.55 326.628 354.017 328.493 356.58 332.639C358.401 335.584 361.448 338.62 364.444 340.474L369.334 343.5L388.406 343.813C409.692 344.162 413.721 343.503 419.523 338.721C425.215 334.028 427.978 327.153 427.99 317.651C428.003 307.586 426.166 303.434 420.576 300.895C416.937 299.242 413.767 299.051 391 299.108C376.975 299.143 364.214 299.557 362.643 300.028ZM47.4549 312.455C46.1049 313.805 44.9999 316.075 44.9999 317.5C44.9999 318.925 46.1049 321.195 47.4549 322.545C49.8779 324.969 50.1369 325 67.8199 325C84.4249 325 85.9219 324.849 88.3649 322.927C91.6669 320.33 91.9779 314.978 88.9999 312C87.1439 310.144 85.6669 310 68.4549 310C50.0979 310 49.8839 310.025 47.4549 312.455ZM368 318.05C368 322.621 370.125 327.45 372.545 328.379C373.435 328.72 381.797 329 391.127 329C407.805 329 408.132 328.959 410.545 326.545C412.503 324.588 413 323.069 413 319.045V314H390.5H368V318.05ZM484.455 324.455C482.568 326.341 482 327.962 482 331.455C482 337.889 484.347 340 491.5 340H497V331V322H491.955C487.931 322 486.412 322.497 484.455 324.455ZM47.4549 333.455C46.1049 334.805 44.9999 337.075 44.9999 338.5C44.9999 339.925 46.1049 342.195 47.4549 343.545C49.8749 345.966 50.1549 346 67.5199 346C88.7429 346 90.9509 345.274 90.9849 338.289C90.9939 336.259 90.1949 334.328 88.8109 333.039C86.7739 331.141 85.3579 331 68.2659 331C50.1089 331 49.8819 331.027 47.4549 333.455ZM76.2859 386.393C65.5559 389.893 56.7079 397.999 52.8639 407.853C49.6889 415.99 49.7279 428.342 52.9539 436.493C55.8239 443.745 64.1559 452.497 71.4029 455.871C90.6399 464.828 112.752 456.645 121.804 437.218C124.089 432.315 124.461 430.217 124.417 422.5C124.325 406.622 117.612 395.38 104.312 388.833C98.7209 386.081 96.4809 385.561 89.1269 385.312C83.7419 385.129 78.9159 385.536 76.2859 386.393ZM399.909 386.838C385.896 391.468 377.092 402.201 374.965 417.248C371.513 441.668 393.824 463.451 417.768 459.038C440.94 454.768 454.035 432.936 447.106 410.125C444.276 400.806 436.96 392.607 427.782 388.47C419.565 384.765 408.198 384.099 399.909 386.838ZM0.388922 408.5C0.389922 415.65 0.549922 418.444 0.741922 414.708C0.934922 410.973 0.933922 405.123 0.738922 401.708C0.544922 398.294 0.386922 401.35 0.388922 408.5ZM78.4999 401.879C69.8799 405.833 65.5659 412.547 65.5709 422C65.5779 435.585 74.0879 444.03 87.7179 443.978C98.1849 443.938 106.349 437.968 109.03 428.393C114.105 410.268 95.4769 394.091 78.4999 401.879ZM403 401.541C387.303 408.579 384.964 430.328 398.827 440.343C402.536 443.023 404.191 443.521 410.418 443.836C416.26 444.131 418.467 443.803 421.686 442.16C437.153 434.27 438.345 412.874 423.852 403.283C418.718 399.886 408.581 399.039 403 401.541ZM14.9999 408.535V416.07L25.1759 415.785L35.3529 415.5L36.5899 410.5C37.2699 407.75 38.1429 404.488 38.5299 403.25C39.2329 401.002 39.2239 401 27.1169 401H14.9999V408.535ZM461.398 404.75C462.119 406.813 463.019 410.188 463.399 412.25L464.091 416H480.545H497V408.5V401H478.544H460.089L461.398 404.75ZM82.0729 417.635C78.6589 421.974 79.4799 426.162 84.2239 428.616C91.5579 432.409 98.5819 423.222 92.9609 417.189C90.0049 414.016 84.7499 414.231 82.0729 417.635ZM406.488 417.013C403.702 420.091 404.141 424.865 407.474 427.731C410.54 430.368 413.991 430.204 417.25 427.267C419.647 425.107 419.511 419.511 417 417C414.35 414.35 408.892 414.357 406.488 417.013Z" fill="black"/>
</g>
<defs>
<clipPath id="clip0_114_67">
<rect width="512" height="512" fill="white"/>
</clipPath>
</defs>
</svg>
