<svg width="64" height="64" viewBox="0 0 64 64" fill="none" xmlns="http://www.w3.org/2000/svg">
<g clip-path="url(#clip0_47_88)">
<path fill-rule="evenodd" clip-rule="evenodd" d="M32.6133 8C37.4715 7.99916 42.151 9.83243 45.7157 13.1332C49.2805 16.4339 51.4677 20.9587 51.84 25.8027L53.2906 44.664C54.2933 45.5481 55.0585 46.6693 55.5163 47.9253C55.9741 49.1812 56.1098 50.5319 55.9111 51.8538C55.7124 53.1757 55.1856 54.4268 54.3789 55.4927C53.5721 56.5586 52.5112 57.4054 51.2929 57.9556C50.0746 58.5058 48.7378 58.742 47.4047 58.6426C46.0717 58.5431 44.7848 58.1112 43.6616 57.3862C42.5385 56.6613 41.6149 55.6665 40.9752 54.4927C40.3356 53.3188 40.0003 52.0034 40 50.6667L16 50.6693C14.1107 50.6721 12.2814 50.0062 10.836 48.7895C9.3907 47.5728 8.4226 45.8839 8.1032 44.0218C7.78381 42.1597 8.13373 40.2447 9.09099 38.6159C10.0483 36.9871 11.5511 35.7496 13.3333 35.1227V27.2827C13.333 24.7506 13.8314 22.2432 14.8001 19.9037C15.7689 17.5642 17.189 15.4385 18.9793 13.6479C20.7697 11.8573 22.8952 10.4369 25.2346 9.46786C27.5739 8.49878 30.0812 8 32.6133 8ZM48 48C47.2927 48 46.6144 48.2809 46.1143 48.781C45.6143 49.2811 45.3333 49.9594 45.3333 50.6667C45.3333 51.3739 45.6143 52.0522 46.1143 52.5523C46.6144 53.0524 47.2927 53.3333 48 53.3333C48.7072 53.3333 49.3855 53.0524 49.8856 52.5523C50.3857 52.0522 50.6666 51.3739 50.6666 50.6667C50.6666 49.9594 50.3857 49.2811 49.8856 48.781C49.3855 48.2809 48.7072 48 48 48ZM40.7466 40H16C15.3203 40.0008 14.6666 40.261 14.1723 40.7276C13.6781 41.1942 13.3807 41.8319 13.3408 42.5104C13.301 43.1889 13.5218 43.857 13.958 44.3782C14.3943 44.8994 15.013 45.2344 15.688 45.3147L16 45.3333H42.0373L42.3973 44.9573L40.7466 40ZM32.6133 13.3333C29.0135 13.333 25.553 14.7247 22.9556 17.2172C20.3583 19.7096 18.8253 23.1099 18.6773 26.7067L18.6666 27.28V34.6667H38.968L37.4693 30.176C37.2568 29.5312 37.2983 28.8297 37.5852 28.2144C37.8721 27.5991 38.3829 27.1164 39.0135 26.8647C39.644 26.6131 40.3468 26.6114 40.9785 26.86C41.6103 27.1086 42.1234 27.5888 42.4133 28.2027L42.5306 28.4907L47.2666 42.6987L47.7866 42.6693L46.52 26.2107C46.2505 22.7071 44.6685 19.4343 42.0901 17.0468C39.5118 14.6593 36.1273 13.3331 32.6133 13.3333Z" fill="black"/>
</g>
<defs>
<clipPath id="clip0_47_88">
<rect width="64" height="64" fill="white"/>
</clipPath>
</defs>
</svg>
