<svg width="512" height="512" viewBox="0 0 512 512" fill="none" xmlns="http://www.w3.org/2000/svg">
<path fill-rule="evenodd" clip-rule="evenodd" d="M66.455 10.455L64 12.909V186.455V360H36H8V368V376H56H104V424V472H56H8V480V488H71.012H134.024L150 496L165.976 504H216.622C253.463 504 268.39 503.669 271.384 502.784C276.877 501.161 285.161 492.877 286.784 487.384C287.679 484.356 288 467.63 288 424.089V364.909L285.545 362.455L283.091 360H245.603H208.114L207.807 331.75C207.505 304.003 207.456 303.411 205.024 298.5C201.844 292.078 195.83 286.092 189.5 283.047C185.6 281.172 182.37 280.547 174.818 280.208C165.482 279.788 165.044 279.865 162.568 282.341L160 284.909V308.718V332.527L146.237 346.263L132.474 360H106.237H80V192V24H224H368V53.545V83.091L370.455 85.545L372.909 88H402.455H432V172V256H440H448V166.266V76.532L413.734 42.266L379.468 8H224.188H68.909L66.455 10.455ZM384 54V72H402.24H420.479L402.5 54C392.611 44.1 384.404 36 384.26 36C384.117 36 384 44.1 384 54ZM96 48V56H224H352V48V40H224H96V48ZM96 80V88H224H352V80V72H224H96V80ZM96 112V120H224H352V112V104H224H96V112ZM270 137.938C253.289 141.47 237.61 150.077 225.477 162.379C204.82 183.323 195.978 212.985 201.893 241.5C216.123 310.104 300.582 335.495 350.038 286.038C371.106 264.971 380.082 235.308 374.107 206.5C364.197 158.725 317.414 127.915 270 137.938ZM274 153.499C264.499 155.415 257.029 158.494 248.793 163.888C215.497 185.695 206.156 230.099 227.902 263.207C238.702 279.651 255.501 290.896 274.775 294.584C313.499 301.993 351.118 276.248 358.584 237.225C365.993 198.501 340.248 160.882 301.225 153.416C292.285 151.706 282.748 151.735 274 153.499ZM299.095 214.762C291.722 233.318 285.519 248.703 285.311 248.95C285.103 249.198 279.878 244.36 273.701 238.2C267.523 232.04 262.009 227 261.447 227C260.135 227 251 236.245 251 237.573C251 238.125 258.567 246.097 267.817 255.288C282.248 269.629 285.069 272 287.706 272C289.396 272 291.705 271.212 292.838 270.25C295.326 268.136 327.491 188.073 326.306 186.943C325.714 186.379 313.099 180.929 312.578 181.012C312.535 181.019 306.468 196.207 299.095 214.762ZM398.618 265.048C392.29 266.638 383.284 271.968 378.912 276.711C376.667 279.147 373.446 284.096 371.756 287.708C369.179 293.214 368.607 295.836 368.218 303.927C367.792 312.756 367.967 314.002 370.263 318.539C378.239 334.301 382.882 354.242 383.699 376.25L384.284 392H374.508C361.586 392 357.66 393.272 351.466 399.466C345.798 405.134 344 409.686 344 418.366V424H338.366C329.686 424 325.134 425.798 319.466 431.466C313.147 437.785 312 441.541 312 455.911C312 466.448 312.141 467.232 314.455 469.545C316.47 471.561 317.9 472 322.455 472H328V485.545C328 498.594 328.09 499.181 330.455 501.545L332.909 504H408H483.091L485.545 501.545C487.91 499.181 488 498.594 488 485.545V472H493.545C498.1 472 499.53 471.561 501.545 469.545C503.859 467.232 504 466.448 504 455.911C504 442.237 502.863 438.176 497.299 431.988C492.226 426.346 486.507 424 477.822 424H472V418.366C472 410.314 470.238 405.481 465.299 399.988C459.625 393.677 454.697 392 441.822 392H432L432.018 380.75C432.052 360.165 436.22 339.917 443.804 323.5C447.329 315.87 447.5 315.011 447.495 304.937C447.489 294.762 447.352 294.097 443.76 286.829C437.008 273.167 424.998 265.144 410.249 264.442C405.987 264.239 400.753 264.512 398.618 265.048ZM400 281.307C395.092 282.854 386.721 291.522 385.216 296.616C383.158 303.581 383.726 308.911 387.471 317.791C395.549 336.944 398.957 353.059 399.728 375.75L400.28 392H408H415.72L416.272 375.75C417.043 353.059 420.451 336.944 428.529 317.791C434.149 304.466 433.028 295.96 424.534 287.466C417.497 280.43 409.307 278.374 400 281.307ZM176 317.72V339.44L157.72 357.72L139.44 376H129.72H120V424V472H129.012H138.024L154 480L169.976 488H218.534H267.091L269.545 485.545C271.561 483.53 272 482.1 272 477.545V472H240H208V464V456H240H272V448V440H240H208V432V424H240H272V416V408H240H208V400V392H240H272V384V376H234.611C199.299 376 197.09 375.894 194.861 374.09L192.5 372.18L192 339.26L191.5 306.34L188.618 302.564C187.033 300.487 184.235 298.161 182.4 297.394C175.724 294.604 176 293.727 176 317.72ZM362.455 410.455C360.439 412.47 360 413.9 360 418.455V424H408H456V418.455C456 413.9 455.561 412.47 453.545 410.455L451.091 408H408H364.909L362.455 410.455ZM330.455 442.455C328.439 444.47 328 445.9 328 450.455V456H408H488V450.455C488 445.9 487.561 444.47 485.545 442.455L483.091 440H408H332.909L330.455 442.455ZM344 480V488H408H472V480V472H408H344V480Z" fill="#0054f9"/>
</svg>
