<svg width="20" height="20" viewBox="0 0 20 20" fill="none" xmlns="http://www.w3.org/2000/svg">
<path d="M10 17.5C14.1421 17.5 17.5 14.1421 17.5 10C17.5 5.85786 14.1421 2.5 10 2.5C5.85786 2.5 2.5 5.85786 2.5 10C2.5 14.1421 5.85786 17.5 10 17.5Z" stroke="#26292C" stroke-linecap="round" stroke-linejoin="round"/>
<path d="M3 7.5H17" stroke="#26292C" stroke-linecap="round" stroke-linejoin="round"/>
<path d="M3 12.5H17" stroke="#26292C" stroke-linecap="round" stroke-linejoin="round"/>
<path d="M9.58334 2.5C8.17946 4.74968 7.43518 7.34822 7.43518 10C7.43518 12.6518 8.17946 15.2503 9.58334 17.5" stroke="#26292C" stroke-linecap="round" stroke-linejoin="round"/>
<path d="M10.4167 2.5C11.8206 4.74968 12.5649 7.34822 12.5649 10C12.5649 12.6518 11.8206 15.2503 10.4167 17.5" stroke="#26292C" stroke-linecap="round" stroke-linejoin="round"/>
</svg>
