<svg width="24" height="24" viewBox="0 0 24 24" fill="none" xmlns="http://www.w3.org/2000/svg">
<path d="M22 12C22 6.477 17.523 2 12 2C6.477 2 2 6.477 2 12C2 17.523 6.477 22 12 22" stroke="#ffffff" stroke-width="1.5" stroke-linecap="round" stroke-linejoin="round"/>
<path d="M12.9999 2.05005C12.9999 2.05005 15.9999 6.00005 15.9999 12M10.9999 21.9501C10.9999 21.9501 7.99988 18 7.99988 12C7.99988 6.00005 10.9999 2.05005 10.9999 2.05005M2.62988 15.5H11.9999M2.62988 8.50005H21.3699M18.9999 17.5V19H20.4999" stroke="#ffffff" stroke-width="1.5" stroke-linecap="round" stroke-linejoin="round"/>
<path d="M19 23C20.0609 23 21.0783 22.5786 21.8284 21.8284C22.5786 21.0783 23 20.0609 23 19C23 17.9391 22.5786 16.9217 21.8284 16.1716C21.0783 15.4214 20.0609 15 19 15C17.9391 15 16.9217 15.4214 16.1716 16.1716C15.4214 16.9217 15 17.9391 15 19C15 20.0609 15.4214 21.0783 16.1716 21.8284C16.9217 22.5786 17.9391 23 19 23Z" stroke="#ffffff" stroke-width="1.5" stroke-linecap="round" stroke-linejoin="round"/>
</svg>
