<svg width="512" height="512" viewBox="0 0 512 512" fill="none" xmlns="http://www.w3.org/2000/svg">
<g clip-path="url(#clip0_55_109)">
<path fill-rule="evenodd" clip-rule="evenodd" d="M250.174 2.314C248.106 4.516 248 5.519 248 22.814V41H238.404C227.733 41 224.257 42.44 222.166 47.724C220.447 52.067 219.014 71.465 220.116 75.458C221.176 79.297 225.07 82.864 229.076 83.665L231.706 84.191L231.321 96.346C230.003 138.025 225.525 181.914 218.916 217.943C217.862 223.686 217 228.524 217 228.693C217 228.862 213.963 229.011 210.25 229.024C201.044 229.058 195.042 230.602 191.661 233.808C187.013 238.215 186 241.166 186 250.302C186 257.386 186.357 259.234 188.274 262.078C191.94 267.519 196.463 270 202.715 270C207.408 270 208.065 270.235 207.614 271.75C207.328 272.712 205.918 278.225 204.482 284C201.194 297.212 194.876 319.254 190.365 333.25L186.9 344H172.288C158.528 344 157.428 344.145 153.434 346.486C147.323 350.067 145 355.373 145 365.751C145 374.935 145.961 378.252 149.814 382.373C153.548 386.367 157.928 388 164.909 388H170.883L164.941 402.562C161.674 410.571 159 418.367 159 419.887C159 426.004 166.955 429.14 171.337 424.75C172.573 423.512 176.715 414.746 180.542 405.27L187.5 388.039L255.5 388.026L323.5 388.013L327.917 399.256C338.085 425.143 358.233 468.114 369.627 488.215C372.032 492.459 374 496.171 374 496.465C374 496.759 365.292 497 354.648 497H335.296L334.72 488.113C334.015 477.227 329.667 463.494 323.762 453.5C315.879 440.16 299.899 426.476 285.255 420.525C266.576 412.936 241.944 413.301 223.539 421.441C209.349 427.716 194.89 440.573 186.974 453.955C181.317 463.517 176.975 477.388 176.28 488.113L175.704 497H156.352C145.708 497 137 496.776 137 496.502C137 496.229 139.225 491.998 141.944 487.101C150.992 470.805 161 450.058 161 447.595C161 443.669 159.895 441.859 156.671 440.504C150.593 437.948 148.915 439.587 140.474 456.326C136.265 464.672 129.636 477.238 125.742 484.25L118.662 497H105.404C92.271 497 92.125 497.025 90.073 499.635C87.443 502.978 87.443 506.022 90.073 509.365L92.145 512H151.491C184.131 512 211.565 511.72 212.455 511.379C214.897 510.442 217.138 505.398 216.407 502.485C215.279 497.991 212.532 497 201.198 497H190.841L191.484 490.25C193.064 473.683 198.894 461.149 210.496 449.379C217.013 442.766 220.079 440.51 227 437.231C237.889 432.073 244.337 430.564 255.5 430.564C266.663 430.564 273.111 432.073 284 437.231C290.908 440.503 294.017 442.789 300.598 449.432C312.22 461.163 317.635 472.982 319.53 490.75L320.196 497H309.709C297.168 497 294.6 498.275 294.6 504.5C294.6 507.22 295.238 508.775 296.911 510.129C299.111 511.91 302.084 512 359.038 512H418.855L420.927 509.365C423.557 506.022 423.557 502.978 420.927 499.635C418.874 497.025 418.73 497 405.581 497H392.307L384.694 483.25C371.425 459.286 351.819 417.816 341.907 392.75L340.029 388H346.047C353.07 388 357.446 386.374 361.186 382.373C365.039 378.252 366 374.935 366 365.751C366 355.373 363.677 350.067 357.566 346.486C353.571 344.145 352.473 344 338.691 344H324.058L319.58 329.75C317.116 321.913 314.358 312.867 313.451 309.65C312.543 306.432 310.945 302.945 309.9 301.9C307.151 299.151 301.893 299.421 299.04 302.458C296.111 305.576 296.381 307.418 302.824 328.25L307.696 344H299.823C290.437 344 292.335 347.216 283.45 316.246C276.607 292.392 275.921 290.568 273.446 289.618C271.348 288.813 239.652 288.813 237.554 289.618C235.079 290.568 234.393 292.392 227.55 316.246C218.663 347.223 220.569 344 211.14 344H203.231L206.148 334.75C210.567 320.738 216.561 299.736 219.489 288C220.931 282.225 222.552 275.813 223.093 273.75L224.077 270H255.519H286.962L287.581 272.75C290.041 283.671 291.716 286 297.112 286C303.036 286 305.539 281.105 303.631 273.25L302.841 270H308.273C314.538 270 319.057 267.523 322.726 262.078C324.643 259.234 325 257.386 325 250.302C325 234.632 318.705 229.09 300.829 229.024C294.369 229.001 294.14 228.913 293.573 226.25C292.515 221.28 288 193.873 288 192.421C288 191.206 298.569 191 360.826 191H433.651L435.826 188.686C438.714 185.611 438.652 180.961 435.686 178.174C433.693 176.302 432.217 176 425.069 176C417.14 176 416.791 175.906 417.313 173.91C418.258 170.296 416.039 160.018 413.045 154.145C408.253 144.745 399.433 137.586 387.85 133.694C386.832 133.352 385.926 131.484 385.487 128.82C383.762 118.358 376.266 108.555 366 103.335C361.178 100.883 359.39 100.54 351.5 100.55C343.582 100.56 341.805 100.909 336.722 103.456C330.401 106.624 322.988 113.86 320.309 119.478C319.083 122.048 318.162 122.873 317.05 122.398C316.198 122.033 311.9 121.522 307.5 121.263C300.384 120.844 299.196 121.033 296.75 122.969C294.708 124.585 294 126.028 294 128.573C294 132.012 296.732 135.919 299.25 136.08C299.938 136.125 302.868 136.28 305.762 136.426C308.656 136.572 314.214 137.976 318.112 139.545C324.651 142.178 325.404 142.284 327.837 140.918C330.479 139.435 331.094 138.171 333.039 130.237C334.196 125.516 338.789 119.678 343.099 117.449C346.384 115.75 354.666 115.545 358.685 117.064C362.134 118.367 366.695 122.575 368.589 126.2C370.508 129.872 370.428 134 368.438 134C365.991 134 356.556 138.756 353.638 141.459C350.193 144.652 350.048 149.757 353.314 152.826C356.442 155.764 359.271 155.564 365.57 151.96C375.56 146.244 386.859 147.276 394.391 154.591C399.277 159.336 401.121 163.238 401.748 170.162L402.278 176H344.108C298.455 176 285.85 175.731 285.531 174.75C284.189 170.625 280.51 122.444 279.621 97.359L279.155 84.219L281.854 83.679C285.925 82.865 289.817 79.321 290.884 75.458C291.986 71.465 290.553 52.067 288.834 47.724C286.743 42.44 283.267 41 272.596 41H263V22.674C263 4.812 262.942 4.294 260.686 2.174C257.611 -0.714001 252.961 -0.652001 250.174 2.314ZM236 58.875C236 60.456 235.719 63.156 235.375 64.875L234.75 68H255.5H276.25L275.625 64.875C275.281 63.156 275 60.456 275 58.875V56H255.5H236V58.875ZM246.99 92.75C246.957 123.342 240.792 185.712 234.475 219.36C233.664 223.684 233 227.621 233 228.11C233 228.603 243.029 229 255.5 229C267.875 229 278 228.662 278 228.25C278 227.838 277.355 224.125 276.566 220C270.433 187.913 264.019 123.449 264.005 93.75L264 84H255.5H247L246.99 92.75ZM145.407 184.988C139.425 186.236 135.083 188.262 129.934 192.207L125.368 195.706L122.434 193.261C106.809 180.242 84.889 184.307 76.29 201.818C73.801 206.886 73.5 208.58 73.5 217.5C73.5 229.147 75.124 235.068 81.102 245.226C89.348 259.236 104.368 272.252 122.434 281.041C134.499 286.912 147.229 290.555 152.33 289.598C159.683 288.218 162.899 280.48 159.5 272.346C157.495 267.547 157.641 261.381 159.875 256.5C160.882 254.3 165.215 248.225 169.505 243C179.909 230.328 182.492 224.748 182.468 215C182.453 208.838 181.973 206.589 179.78 202.392C173.252 189.902 158.253 182.307 145.407 184.988ZM143.271 202.095C139.207 204.107 136.758 206.498 130.707 214.368C125.842 220.696 119.449 218.877 116.015 210.189C113.155 202.95 102.875 198.945 96.121 202.437C86.903 207.204 85.875 221.813 93.741 236.266C101.291 250.137 119.937 264.593 139.28 271.569L143.06 272.932L142.425 268.149C141.681 262.534 143.95 252.493 147.188 247.082C148.366 245.112 152.571 239.45 156.531 234.5C165.373 223.449 167 220.354 167 214.584C167 210.921 166.39 209.375 163.766 206.386C158.023 199.846 150.849 198.344 143.271 202.095ZM201.195 249.75L201.5 254.5H255.5H309.5L309.805 249.75L310.11 245H255.5H200.89L201.195 249.75ZM245.976 308.25C245.371 310.587 242.879 319.253 240.438 327.506C237.997 335.759 236 342.847 236 343.256C236 343.665 244.775 344 255.5 344C266.225 344 275 343.733 275 343.406C275 343.08 273.006 335.992 270.568 327.656C268.131 319.32 265.639 310.587 265.03 308.25L263.923 304H255.5H247.077L245.976 308.25ZM161 365.5V372H255.5H350V365.5V359H255.5H161V365.5Z" fill="#0054f9"/>
</g>
<defs>
<clipPath id="clip0_55_109">
<rect width="512" height="512" fill="white"/>
</clipPath>
</defs>
</svg>
