<svg width="100" height="100" viewBox="0 0 100 100" fill="none" xmlns="http://www.w3.org/2000/svg">
<path d="M49.9999 8.33325C26.9874 8.33325 8.33325 26.9874 8.33325 49.9999C8.33325 73.0124 26.9874 91.6666 49.9999 91.6666C73.0124 91.6666 91.6666 73.0124 91.6666 49.9999C91.6666 26.9874 73.0124 8.33325 49.9999 8.33325ZM41.9749 15.4999C47.2544 14.2717 52.7454 14.2717 58.0249 15.4999L50.0083 20.3041L41.9749 15.4999ZM34.3499 18.2208L46.8833 25.7208V34.8583L35.2541 43.3083L26.7374 40.3624L24.2916 25.6374C27.1782 22.5885 30.584 20.0772 34.3499 18.2208ZM19.1249 32.6458L20.6166 41.6333L14.6666 47.5833C15.0179 42.3335 16.5414 37.2293 19.1249 32.6458ZM15.0916 55.9958L24.7874 46.2999L33.2874 49.2374L37.7916 63.1249L33.7499 69.6874L20.0291 68.8791C17.5531 64.9502 15.8782 60.5727 15.0916 55.9958ZM25.3791 75.4541L33.3124 75.9208L36.1249 82.5958C32.1344 80.8937 28.4948 78.473 25.3791 75.4541ZM43.8708 84.8874L38.9374 73.1833L42.9499 66.6541H56.9999L60.7999 73.2416L56.4666 84.8249C52.3046 85.5893 48.0401 85.6105 43.8708 84.8874ZM63.9958 82.5416L66.3583 76.2208L73.3166 76.6583C70.5345 79.0942 67.388 81.0793 63.9916 82.5416M78.7083 70.7333L66.1083 69.9416L62.1999 63.1749L66.7291 49.2374L75.1166 46.3374L84.7499 56.8374C83.7621 61.851 81.701 66.5914 78.7083 70.7333ZM85.3666 48.2708L79.3666 41.7291L80.8749 32.6541C83.5694 37.4382 85.1076 42.7862 85.3666 48.2708ZM75.7083 25.6458L73.2541 40.3708L64.7541 43.3083L53.1249 34.8583V25.7166L65.6333 18.2166C69.4064 20.0764 72.818 22.5893 75.7083 25.6458ZM39.4374 47.9916L49.9999 40.3166L60.5624 47.9916L56.5291 60.4083H43.4708L39.4374 47.9916Z" fill="black"/>
</svg>
