<svg width="512" height="512" viewBox="0 0 512 512" fill="none" xmlns="http://www.w3.org/2000/svg">
<g clip-path="url(#clip0_55_113)">
<path fill-rule="evenodd" clip-rule="evenodd" d="M161.46 32.0259C158.423 33.1489 156.667 35.7469 156.667 39.1169C156.667 41.5809 158.367 43.8349 166.024 51.5239L175.382 60.9209L173.479 63.2099C167.423 70.4999 158.614 78.7879 152.5 82.9509C143.089 89.3589 138.299 91.6919 117.416 100.033L99.608 107.147L91.554 105.055C73.202 100.287 74.704 101.059 64.733 91.2799C59.486 86.1349 54.193 81.8359 52.62 81.4409C48.62 80.4369 44.591 83.6279 44.212 88.0989C43.951 91.1839 44.719 92.2889 52.462 99.9779C60.033 107.495 61 108.864 61 112.061C61 116.187 66.875 128.112 73.591 137.618C81.446 148.737 92.385 156.843 106.165 161.757C112.507 164.018 115.667 164.448 129.5 164.936L145.5 165.5L145.8 170.682L146.1 175.864L129.476 176.182L112.852 176.5L109.176 180.673C88.444 204.206 83.814 207.515 55.699 218.894L36.007 226.864L25.254 223.955C12.871 220.605 10.055 220.403 5.872 222.566C2.789 224.161 0 229.162 0 233.097C0 236.25 8.683 252.207 13.957 258.746C16.456 261.843 21.532 266.655 25.238 269.439L31.976 274.5L31.988 318.727L32 362.954L29.585 364.536C24.469 367.889 24 371.327 24 405.52V437L16.75 437.004C11.324 437.007 8.694 437.499 6.299 438.96C0.979 442.203 0 445.354 0.004 459.2C0.007 469.635 0.303 471.985 1.96 474.701C6.134 481.548 -15.958 481 256 481C529.983 481 505.658 481.67 510.505 473.991C512.823 470.32 513 469.148 513 457.461C513 450.542 512.616 445.119 512.146 445.41C511.677 445.7 510.786 444.825 510.167 443.466C508.177 439.099 503.351 437.008 495.25 437.004L488 437V405.52C488 371.327 487.531 367.889 482.415 364.536L480 362.954L480.012 318.727L480.024 274.5L486.762 269.439C495.253 263.061 501.078 255.839 507.75 243.417C512.441 234.684 514.546 227.926 512.107 229.434C511.615 229.738 510.928 228.85 510.58 227.462C509.801 224.36 504.54 221.001 500.5 221.026C498.85 221.037 492.662 222.354 486.749 223.954L475.997 226.863L457.275 219.29C446.978 215.124 435.414 209.868 431.578 207.608C424.623 203.512 412.628 192.411 403.897 181.993L399.295 176.5L382.597 176.182L365.9 175.864L366.2 170.682L366.5 165.5L382.5 164.936C396.333 164.448 399.493 164.018 405.835 161.757C419.615 156.843 430.554 148.737 438.409 137.618C445.125 128.112 451 116.187 451 112.061C451 108.864 451.967 107.495 459.538 99.9779C467.281 92.2889 468.049 91.1839 467.788 88.0989C467.409 83.6279 463.38 80.4369 459.38 81.4409C457.807 81.8359 452.514 86.1349 447.267 91.2799C437.296 101.059 438.798 100.287 420.446 105.055L412.392 107.147L394.584 100.033C373.79 91.7269 368.981 89.3909 359.456 82.9669C352.422 78.2239 337 62.8939 337 60.6459C337 59.9929 341.05 55.4269 346 50.4999C353.59 42.9449 355 41.0409 355 38.3429C355 36.0789 354.23 34.5399 352.365 33.0729C347.583 29.3109 345.702 30.1779 334.092 41.4999L323.325 51.9999H255.393H187.46L178.027 42.5269C168.369 32.8279 165.023 30.7079 161.46 32.0259ZM184 74.1339C173.84 87.2829 157.389 99.6629 140.655 106.753L131.809 110.5L216.877 111L301.945 111.5L304.139 113.694C307.014 116.57 307.014 121.43 304.139 124.306L301.945 126.5L228.223 126.805C134.759 127.191 112.146 126.034 87.356 119.596C83.976 118.718 80.737 118 80.157 118C78.195 118 85.466 129.345 91.013 134.94C94.045 137.998 99.257 141.948 102.594 143.719C115.099 150.352 106.514 150 256 150C405.486 150 396.901 150.352 409.406 143.719C412.743 141.948 417.955 137.998 420.987 134.94C426.748 129.13 433.796 117.991 431.698 118.012C431.039 118.018 428.025 118.692 425 119.509C407.46 124.248 378.718 126.958 345.718 126.986C326.914 127.002 322.547 126.027 321.427 121.566C320.503 117.885 321.673 114.258 324.262 112.779C325.86 111.866 334.183 111.357 353.352 111L380.204 110.5L371.352 106.753C354.618 99.6689 338.163 87.2879 328 74.1339L322.5 67.0159H256H189.5L184 74.1339ZM161 263.5V362H168H175V263.5V165H168H161V263.5ZM190 176.5V188H256H322V176.5V165H256H190V176.5ZM337 263.5V362H344H351V263.5V165H344H337V263.5ZM116.587 194.874C112.639 200.571 99.444 213.014 92.106 217.96C88.589 220.331 81.614 224.215 76.606 226.593L67.5 230.916L106.5 230.708L145.5 230.5L145.771 210.75L146.042 191H132.657H119.272L116.587 194.874ZM366.229 210.75L366.5 230.5L405.5 230.708L444.5 230.916L435.394 226.593C430.386 224.215 423.411 220.331 419.894 217.96C412.556 213.014 399.361 200.571 395.413 194.874L392.728 191H379.343H365.958L366.229 210.75ZM190 210V217H256H322V210V203H256H190V210ZM0.232 233C0.232 234.925 0.438 235.713 0.689 234.75C0.941 233.787 0.941 232.213 0.689 231.25C0.438 230.287 0.232 231.075 0.232 233ZM190 297.514V363.028L193.053 365.764C194.873 367.395 196.479 370.116 197.029 372.5C197.537 374.7 197.963 390.113 197.976 406.75L198 437H256H314L314.024 406.75C314.037 390.113 314.463 374.7 314.971 372.5C315.521 370.116 317.127 367.395 318.947 365.764L322 363.028V297.514V232H256H190V297.514ZM19 238.779C19 239.325 20.838 242.524 23.084 245.888C29.225 255.084 37.718 261.358 48.5 264.662C53.949 266.331 58.675 266.5 100 266.5H145.5L145.785 256.25L146.07 246L108.285 245.99C87.503 245.984 65.1 245.514 58.5 244.945C47.816 244.024 25.005 240.09 20.641 238.416C19.739 238.069 19 238.233 19 238.779ZM484 240.092C465.603 244.684 458.392 245.242 411.216 245.732L365.932 246.202L366.216 256.351L366.5 266.5H412C453.325 266.5 458.051 266.331 463.5 264.662C474.282 261.358 482.775 255.084 488.916 245.888C492.901 239.921 493.773 237.887 492.25 238.11C491.837 238.17 488.125 239.062 484 240.092ZM47 321.019V362H54H61V322.019V282.038L58.75 281.584C57.513 281.334 54.362 280.884 51.75 280.584L47 280.038V321.019ZM459 280.68C457.075 280.878 454.488 281.264 453.25 281.539L451 282.038V322.019V362H458H465V321C465 288.781 464.732 280.034 463.75 280.16C463.063 280.248 460.925 280.482 459 280.68ZM76 288V294H111H146V288V282H111H76V288ZM366 288V294H401H436V288V282H401H366V288ZM76 315.987V323H111.046H146.091L145.796 316.25L145.5 309.5L110.75 309.237L76 308.974V315.987ZM366.667 309.667C366.3 310.033 366 313.183 366 316.667V323H401H436V316V309H401.667C382.783 309 367.033 309.3 366.667 309.667ZM76.68 338.654C76.306 339.028 76 344.648 76 351.144C76 362.801 76.034 362.976 78.636 364.681C83.698 367.998 84 370.269 84 404.968V437H111H138L138.004 404.25C138.007 373.585 138.131 371.297 139.95 368.314C141.019 366.561 142.831 364.626 143.977 364.012C145.939 362.962 146.044 362.186 145.78 350.699L145.5 338.5L111.43 338.237C92.691 338.092 77.053 338.28 76.68 338.654ZM366.68 338.654C366.306 339.028 366 344.643 366 351.131C366 362.009 366.16 363.015 368.054 364.029C369.183 364.633 370.981 366.561 372.05 368.314C373.869 371.297 373.993 373.585 373.996 404.25L374 437H401H428V404.968C428 370.234 428.299 368 433.394 364.661L436.061 362.914L435.78 350.707L435.5 338.5L401.43 338.237C382.691 338.092 367.053 338.28 366.68 338.654ZM39 407V437H54H69V407V377H54H39V407ZM153 407V437H167.5H182V407V377H167.5H153V407ZM330 407V437H344.5H359V407V377H344.5H330V407ZM443 407V437H458H473V407V377H458H443V407ZM0.392 459C0.392 466.425 0.549 469.462 0.742 465.75C0.934 462.038 0.934 455.962 0.742 452.25C0.549 448.538 0.392 451.575 0.392 459ZM15 459V466H256H497V459V452H256H15V459Z" fill="#0054f9"/>
</g>
<defs>
<clipPath id="clip0_55_113">
<rect width="512" height="512" fill="white"/>
</clipPath>
</defs>
</svg>
