<svg width="512" height="512" viewBox="0 0 512 512" fill="none" xmlns="http://www.w3.org/2000/svg">
<g clip-path="url(#clip0_64_133)">
<path fill-rule="evenodd" clip-rule="evenodd" d="M20.492 1.79182C10.601 5.22182 3.104 13.5108 0.995999 23.3448C0.201999 27.0478 -0.0230011 93.4448 0.194999 259L0.499999 489.5L2.649 494.149C5.396 500.092 11.908 506.604 17.851 509.351L22.5 511.5H212H401.5L406.149 509.351C412.092 506.604 418.604 500.092 421.351 494.149C423.426 489.661 423.509 488.066 423.758 448C423.956 416.086 423.723 405.923 422.75 404C422.054 402.625 419.8 400.675 417.742 399.668C414.114 397.891 413.886 397.891 410.258 399.668C408.2 400.675 405.956 402.625 405.273 404C404.346 405.864 404.026 416.518 404.015 445.85L404 485.2L400.6 488.6L397.2 492H212H26.8L23.4 488.6L20 485.2V256V26.7998L23.4 23.3998L26.8 19.9998H211.884H396.968L400.234 22.9168L403.5 25.8348L404 84.3948L404.5 142.956L407.159 145.614C410.888 149.342 417.113 149.342 420.841 145.613L423.5 142.954V82.7268C423.5 23.2148 423.474 22.4448 421.351 17.8508C418.604 11.9078 412.092 5.39582 406.149 2.64882L401.5 0.499822L213.5 0.276822C37.235 0.0678219 25.187 0.162822 20.492 1.79182ZM196.342 55.4108C177.541 59.0028 162.38 66.7978 148.638 79.9388C136.394 91.6478 127.343 106.936 122.851 123.5C119.743 134.957 119.743 157.043 122.851 168.5C131.92 201.938 157.867 227.28 191.637 235.684C196.408 236.872 202.615 237.392 212 237.392C237.297 237.392 257.426 229.361 275.343 212.12C287.648 200.279 296.663 185.043 301.149 168.5C304.257 157.043 304.257 134.957 301.149 123.5C296.657 106.936 287.606 91.6478 275.362 79.9388C258.288 63.6118 238.606 55.3028 215 54.4558C207.716 54.1948 200.876 54.5448 196.342 55.4108ZM199.363 75.0238C185.069 77.6038 172.905 84.1868 161.523 95.4998C152.364 104.604 147.118 112.955 143.309 124.5C141.028 131.413 140.668 134.199 140.657 145C140.642 159.283 142.173 166.415 147.631 177.5C153.594 189.611 152.797 189.443 161.331 180.38C167.468 173.862 177.632 166.289 182.357 164.714C182.886 164.538 181.842 161.392 180.036 157.724C177.309 152.185 176.667 149.565 176.253 142.277C174.835 117.342 189.475 100.047 212 100.047C234.427 100.047 249.002 117.159 247.81 142.089C247.46 149.407 246.874 151.814 244.038 157.574C242.192 161.325 241.114 164.538 241.643 164.714C246.368 166.289 256.532 173.862 262.669 180.38C271.203 189.443 270.406 189.611 276.369 177.5C281.827 166.415 283.358 159.283 283.343 145C283.332 134.199 282.972 131.413 280.691 124.5C276.919 113.07 271.673 104.679 262.503 95.4118C248.933 81.6978 234.096 75.1568 215 74.4728C209.225 74.2658 202.188 74.5138 199.363 75.0238ZM205.5 120.889C202.217 122.317 198.175 126.94 196.941 130.679C196.305 132.606 195.959 137.277 196.173 141.059C196.588 148.407 198.157 151.535 203.385 155.438C207.257 158.329 216.743 158.329 220.615 155.438C225.988 151.426 227.44 148.423 227.841 140.487C228.267 132.038 226.066 126.02 221.281 122.549C218.325 120.405 208.893 119.413 205.5 120.889ZM461 125.653C454.812 126.903 444.08 133.117 439.705 137.983C436.804 141.21 412.87 181.669 372.408 251.745C337.87 311.56 308.958 361.805 308.158 363.4C306.759 366.19 298.073 438.429 298.023 447.694C297.989 453.846 301.4 457.5 307.178 457.5C311.29 457.5 313.384 456.133 345.486 432.496L379.443 407.492L441.28 300.496C475.29 241.648 504.632 190.541 506.483 186.924C511.257 177.599 512.659 169.961 511.257 160.905C509.014 146.413 500.448 134.965 487.174 128.717C481.957 126.262 479.327 125.688 472.174 125.444C467.403 125.281 462.375 125.375 461 125.653ZM462.03 146.06C456.992 148.178 452.941 152.255 448.894 159.281C446.606 163.251 443.887 167.915 442.851 169.645L440.967 172.79L459.387 183.395C469.518 189.228 478.253 194 478.798 194C479.343 194 482.357 189.464 485.497 183.92C492.838 170.954 493.634 165.362 489.33 157.006C485.243 149.072 479.937 145.642 471.207 145.291C467.518 145.143 463.388 145.489 462.03 146.06ZM200 179.591C188.262 182.707 176.259 190.991 170.886 199.685L168.682 203.251L171.091 205.098C175.155 208.212 187.15 213.719 194 215.615C198.52 216.866 204.003 217.414 212 217.414C219.997 217.414 225.48 216.866 230 215.615C236.85 213.719 248.845 208.212 252.909 205.098L255.318 203.251L253.114 199.685C249.917 194.512 240.816 186.542 234.75 183.604C223.439 178.125 210.956 176.684 200 179.591ZM423.767 202.755C373.049 290.329 330.956 363.698 330.973 364.5C330.991 365.418 368.019 387.432 368.456 386.785C370.509 383.744 467.953 214.034 468.178 213.108C468.447 212.005 457.873 205.384 432.824 190.973C431.408 190.158 430.008 191.979 423.767 202.755ZM77 271.273C73.236 273.144 70.675 279.014 72.047 282.623C73.646 286.83 75.858 288.883 79.532 289.572C90.627 291.653 95.44 276.295 85.316 271.117C82.503 269.679 80.115 269.724 77 271.273ZM120.5 270.935C114.128 273.575 112.442 281.896 117.295 286.75L120.045 289.5H195H269.955L272.705 286.75C276.542 282.912 276.542 277.088 272.705 273.25L269.955 270.5L196.228 270.303C155.677 270.195 121.6 270.48 120.5 270.935ZM77 327.273C73.236 329.144 70.675 335.014 72.047 338.623C73.646 342.83 75.858 344.883 79.532 345.572C90.627 347.653 95.44 332.295 85.316 327.117C82.503 325.679 80.115 325.724 77 327.273ZM120.5 326.935C114.128 329.575 112.442 337.896 117.295 342.75L120.045 345.5H195H269.955L272.705 342.75C276.542 338.912 276.542 333.088 272.705 329.25L269.955 326.5L196.228 326.303C155.677 326.195 121.6 326.48 120.5 326.935ZM77 383.273C73.236 385.144 70.675 391.014 72.047 394.623C73.646 398.83 75.858 400.883 79.532 401.572C90.627 403.653 95.44 388.295 85.316 383.117C82.503 381.679 80.115 381.724 77 383.273ZM120.5 382.935C114.128 385.575 112.442 393.896 117.295 398.75L120.045 401.5H195H269.955L272.705 398.75C276.542 394.912 276.542 389.088 272.705 385.25L269.955 382.5L196.228 382.303C155.677 382.195 121.6 382.48 120.5 382.935ZM324.538 386.289C323.996 388.065 320.047 425.38 320.366 425.7C320.757 426.09 352.876 402.62 352.943 401.894C353.066 400.584 324.898 385.109 324.538 386.289ZM208.5 438.924C202.121 441.604 200.442 449.896 205.295 454.75L208.045 457.5H239H269.955L272.705 454.75C276.542 450.913 276.542 445.088 272.706 441.25L269.957 438.5L240.229 438.292C223.878 438.177 209.6 438.461 208.5 438.924Z" fill="#0054f9"/>
</g>
<defs>
<clipPath id="clip0_64_133">
<rect width="512" height="512" fill="white"/>
</clipPath>
</defs>
</svg>
