<svg width="129" height="129" viewBox="0 0 129 129" fill="none" xmlns="http://www.w3.org/2000/svg">
<path fill-rule="evenodd" clip-rule="evenodd" d="M26.0546 7.58334C21.3746 10.9743 13.3696 20.1123 8.16757 28.0013C4.74357 33.1943 4.44057 34.1823 5.00857 38.3243C8.74957 65.6173 39.5206 102.581 71.1546 117.782C79.1966 121.646 89.3386 124.758 93.8926 124.758C99.4076 124.758 122.758 105.178 124.229 99.3203C124.718 97.3713 124.357 95.8173 122.974 93.9213C118.971 88.4323 95.8936 74.7583 90.6306 74.7583C89.0746 74.7583 86.6396 76.4803 83.5626 79.7583C80.9806 82.5083 78.3576 84.7583 77.7326 84.7583C74.3846 84.7583 63.4776 77.7883 57.5516 71.8613C51.6246 65.9353 44.6546 55.0283 44.6546 51.6803C44.6546 51.0553 46.9046 48.4323 49.6546 45.8503C55.2196 40.6263 55.5786 39.0793 52.7556 32.4933C49.7066 25.3813 39.8996 10.1423 36.5666 7.33734C32.6626 4.05234 30.8716 4.09434 26.0546 7.58334ZM65.8546 9.95834C64.2956 11.5173 64.3206 14.2503 65.9046 15.4993C66.5926 16.0423 69.7496 16.7773 72.9226 17.1333C93.8616 19.4823 109.694 35.4283 112.382 56.8773C113.237 63.6993 115.249 66.1293 118.405 64.1523C120.799 62.6523 121.075 57.3823 119.188 49.2433C114.743 30.0763 99.5146 14.7673 80.4146 10.2643C72.7926 8.46634 67.4586 8.35434 65.8546 9.95834ZM24.5256 20.5453C21.0216 24.2783 16.8816 29.1913 15.3256 31.4633L12.4966 35.5933L14.1076 41.9263C20.8446 68.4093 52.1076 102.177 79.5616 112.623C92.5526 117.566 93.3356 117.538 100.738 111.878C104.267 109.179 109.158 104.901 111.606 102.372C115.913 97.9213 115.994 97.7243 114.106 96.2613C110.791 93.6943 101.394 88.0633 96.3936 85.6483L91.6326 83.3493L86.2196 88.6943C81.3376 93.5153 80.4936 93.9763 77.6036 93.3983C72.9976 92.4773 63.0166 87.2323 56.8136 82.4723C47.9356 75.6603 37.7416 60.6643 36.0466 51.9193C35.4546 48.8703 35.8616 48.1113 40.7376 43.1743L46.0766 37.7683L43.2576 32.0133C40.0326 25.4273 32.5576 13.7583 31.5636 13.7583C31.1966 13.7583 28.0296 16.8123 24.5256 20.5453ZM65.9046 29.8653C62.9436 32.9283 65.2616 36.7453 70.1046 36.7803C74.0576 36.8083 81.3886 40.1503 84.9936 43.5673C88.7966 47.1713 90.8216 51.1583 92.1666 57.6903C93.4066 63.7083 95.5746 65.9433 98.4046 64.1213C99.7416 63.2603 100.129 61.7263 100.043 57.6263C99.8286 47.4053 92.3966 36.6733 82.2216 31.8933C76.2086 29.0683 67.6986 28.0113 65.9046 29.8653Z" fill="#fff"/>
</svg>
