<svg width="512" height="512" viewBox="0 0 512 512" fill="none" xmlns="http://www.w3.org/2000/svg">
<path fill-rule="evenodd" clip-rule="evenodd" d="M92.3249 34.0279C63.9379 37.6029 34.8289 48.0439 11.7599 62.9259C0.0259228 70.4949 0.00792313 70.5439 0.00392313 94.8489C-7.68716e-05 117.56 0.702923 120.761 6.33992 123.676C8.02792 124.549 12.2419 125.491 15.7049 125.769L21.9999 126.274V234.936V343.598L18.5299 344.853C16.6209 345.543 14.0329 347.546 12.7799 349.304C10.6419 352.301 10.4779 353.645 10.1529 370.859C9.73192 393.132 10.2319 397.107 13.9849 401.313L16.8289 404.5L30.0799 405L43.3309 405.5L45.6259 414.866C48.8189 427.9 53.0679 436.728 56.5709 437.607C60.4359 438.577 64.2729 436.917 65.8709 433.584C67.1259 430.965 66.9769 430.048 64.1699 423.107C59.3849 411.276 58.6099 407.35 58.6169 395C58.6249 381.764 60.2829 374.276 65.6189 363.386C74.6329 344.987 91.9869 331.021 111.528 326.44C116.632 325.243 121.582 324.921 130 325.237C148.513 325.933 161.197 331.419 174.539 344.5C197.058 366.578 202.173 399.798 187.397 428C175.415 450.867 152.381 464.965 127 464.965C113.372 464.965 102.637 461.576 86.7829 452.269C82.3359 449.659 81.9059 449.588 79.2969 451.03C75.7479 452.992 74.0269 456.456 74.9279 459.824C76.4209 465.407 95.2879 475.35 110.208 478.416C154.308 487.479 197.508 459.566 208.356 415L210.669 405.5L218.334 405.208C222.55 405.047 226 405.123 226 405.377C226 405.631 225.268 408.687 224.373 412.169C221.035 425.158 224.152 442.77 231.937 454.901C236.024 461.271 245.076 469.673 251.728 473.272C258.111 476.725 270.654 480 277.5 480C284.737 480 297.153 476.625 303.853 472.836C324.547 461.132 336.004 435.211 330.52 412.5C329.723 409.2 329.055 406.163 329.036 405.75C329.016 405.337 331.925 405 335.5 405C339.075 405 342 405.113 342 405.25C342 405.388 341.333 408.651 340.517 412.5C336.523 431.356 341.767 449.664 355 463.061C363.036 471.197 370.372 475.432 381.154 478.158C399.825 482.88 419.183 477.016 432.938 462.472L438.113 457L468.807 456.976C485.688 456.963 501.3 456.537 503.5 456.028C508.487 454.877 512 450.99 512 446.625C512 442.387 493.957 405.583 491.141 404.075C490.036 403.484 488.181 403 487.02 403C484.108 403 480 407.37 480 410.468C480 411.875 483.153 419.321 487.007 427.013L494.013 441H469.89H445.767L446.435 438.75C447.888 433.856 448.238 419.886 447.061 413.792C443.082 393.194 425.984 375.274 405.76 370.506C388.028 366.325 370.301 371.261 356.399 384.25L350.245 390H335.5H320.755L314.601 384.25C292.962 364.032 262.12 363.924 240.669 383.991L234.245 390H222.623C214.01 390 210.991 389.676 210.965 388.75C210.853 384.724 207.847 371.529 205.726 365.75L203.248 359H328.407H453.567L459.533 371.107C462.815 377.766 466.388 383.841 467.473 384.607C472.148 387.909 479 384.381 479 378.671C479 374.589 466.701 350.768 462.975 347.632L459.82 344.977L462.461 334.964C467.117 317.31 468.186 309.293 468.72 288C469.122 271.989 468.87 264.982 467.571 256C464.531 234.976 456.033 207.159 451.991 204.995C450.943 204.434 441.789 204 431.02 204C412.063 204 411.889 204.02 409.455 206.455C407.439 208.47 407 209.9 407 214.455V220H395.893C387.156 220 384.893 219.721 385.288 218.692C385.564 217.973 389.298 205.935 393.586 191.942L401.382 166.5L401.777 145.833C402.22 122.693 401.567 119.536 395.58 115.886C392.686 114.121 389.757 114.007 347 114.007C303.124 114.007 301.382 114.079 298.19 116.026C292.347 119.588 291.748 122.667 292.266 146.449L292.725 167.5L300.206 191.5C304.32 204.7 308.012 216.512 308.41 217.75C309.132 219.991 309.093 220 298.067 220H287V209.316C287 200.68 286.617 197.84 285.003 194.506C280.869 185.966 275.281 184.011 255 184.011C238.881 184.011 234.545 184.829 229.889 188.747C224.644 193.161 223.047 198.044 223.022 209.75L223 220H214H205V173.145V126.29L212.016 125.702C219.894 125.041 224.004 122.819 225.924 118.183C226.752 116.184 227.02 108.765 226.806 93.7199L226.5 72.1269L223.738 69.2459C219.724 65.0599 202.139 54.7309 189.181 48.9489C176.586 43.3289 159.204 38.0489 145 35.5289C133.898 33.5599 103.029 32.6799 92.3249 34.0279ZM97.9999 48.6739C70.6139 51.4449 43.2139 60.7639 21.7499 74.6059L14.9999 78.9599V94.4499V109.941L76.3959 110.221C135.153 110.488 137.882 110.582 139.896 112.405C142.757 114.995 142.757 121.005 139.896 123.595C137.894 125.407 135.337 125.513 87.3959 125.777L36.9999 126.053V235.027V344H48.0949H59.1889L66.1989 336.494C82.5869 318.946 103.607 309.816 127.488 309.872C149.096 309.923 168.262 317.681 184.25 332.849L190 338.304V318.652V299L183.75 298.978C173.678 298.943 166.93 294.864 163.548 286.768C159.976 278.219 163.008 268.068 170.765 262.604C174.174 260.202 176.169 259.625 182.439 259.222L190 258.737V192.457V126.177L179.025 125.838C169.313 125.539 167.798 125.247 165.859 123.306C162.987 120.431 162.987 115.569 165.859 112.694C167.962 110.59 168.952 110.487 190.026 110.18L212 109.86V94.1779V78.4949L204.25 73.8339C180.994 59.8439 157.834 51.9279 131.789 49.0669C122.692 48.0669 105.923 47.8719 97.9999 48.6739ZM307 139.5V150H347H387V139.5V129H347H307V139.5ZM63.2699 142.483C61.4929 143.255 59.1319 145.375 58.0229 147.193C56.0889 150.366 56.0069 152.156 56.0039 191.346C55.9999 236.131 55.9539 235.77 62.0399 239.364C64.5009 240.818 70.2169 241 113.454 241C166.889 241 166.368 241.056 169.515 234.972C170.854 232.382 171.025 226.326 170.781 190.093C170.511 149.833 170.422 148.121 168.5 145.966C164.141 141.079 163.225 140.997 113.282 141.039C75.3809 141.071 65.8869 141.345 63.2699 142.483ZM70.9999 191V226H113.5H156V191V156H113.5H70.9999V191ZM309.078 168.25C309.582 170.037 313.293 182.3 317.325 195.5L324.655 219.5H346.996H369.337L376.179 197C379.943 184.625 383.668 172.363 384.457 169.75L385.892 165H347.027H308.161L309.078 168.25ZM239.75 200.08C238.279 200.937 238 202.604 238 210.55V220H255H272V210.535C272 202.201 271.769 200.947 270.066 200.035C267.574 198.702 242.052 198.739 239.75 200.08ZM422 281.5V344H432.918H443.837L445.871 337.75C451.501 320.447 454 303.498 454 282.615C454 261.298 451.611 245.832 445.37 226.75L442.836 219H432.418H422V281.5ZM205 246.984V259H233.532H262.063L261.782 247.25L261.5 235.5L233.25 235.234L205 234.969V246.984ZM277 247V259H304.5H332V247V235H304.5H277V247ZM348 247.392C348 259.67 348.022 259.789 350.423 260.391C357.077 262.061 363 270.775 363 278.895C363 287.436 359.479 293.136 351.75 297.112L348 299.041V321.52V344H377.5H407V289.5V235H377.5H348V247.392ZM178.655 275.829C176.577 278.125 176.548 280.405 178.571 282.429C179.975 283.832 188.997 284 262.871 284C325.883 284 345.886 283.714 346.8 282.8C348.701 280.899 348.258 276.208 346.066 275.035C344.778 274.346 316.772 274 262.221 274C184.137 274 180.233 274.085 178.655 275.829ZM205 321.5V344.031L233.25 343.766L261.5 343.5V321.5V299.5L233.25 299.234L205 298.969V321.5ZM277 321.5V344H304.5H332V321.5V299H304.5H277V321.5ZM117.618 354.048C106.084 356.946 95.1549 366.23 89.6849 377.777C86.7239 384.026 86.5019 385.24 86.5299 395C86.5579 404.659 86.8129 406.041 89.7189 412.255C95.5659 424.754 107.259 433.736 120.785 436.119C138.018 439.155 156.306 429.131 164.291 412.274C167.269 405.988 167.5 404.744 167.5 395C167.5 385.272 167.266 384.006 164.315 377.777C157.452 363.288 144.357 354.169 129.385 353.451C125.048 353.243 119.753 353.512 117.618 354.048ZM25.9999 374.5V390H34.4999C40.6149 390 43.0099 389.649 43.0349 388.75C43.1469 384.724 46.1529 371.529 48.2739 365.75L50.7519 359H38.3759H25.9999V374.5ZM118.64 369.632C107.844 372.948 100.183 385.05 101.272 397.067C102.554 411.197 113.218 421.2 127 421.2C136.852 421.2 144.743 416.562 149.377 408.049C155.367 397.043 153.661 384.565 144.979 375.884C137.706 368.611 128.826 366.503 118.64 369.632ZM268.618 385.049C246.674 390.56 233.278 414.095 239.822 435.64C244.795 452.012 257.426 462.622 274.307 464.606C285.691 465.944 299.963 459.694 307.658 450C320.796 433.45 319.63 410.534 304.9 395.804C295.709 386.613 280.427 382.083 268.618 385.049ZM384.746 385.022C361.493 390.896 348.393 416.349 356.933 439.066C361.498 451.209 372.119 460.381 385.414 463.662C410.679 469.897 434.95 447.798 432.672 420.631C431.04 401.161 415.063 385.492 395.794 384.463C391.782 384.249 386.811 384.501 384.746 385.022ZM266.195 401.59C253.011 408.16 248.366 423.715 255.612 437.028C267.265 458.438 299.777 451.634 302.663 427.182C304.992 407.451 283.998 392.718 266.195 401.59ZM384.242 400.494C378.657 402.921 374.434 406.789 371.412 412.246C368.946 416.698 368.512 418.568 368.568 424.5C368.648 433.044 370.944 438.02 377.448 443.745C382.888 448.534 389.063 450.48 396.413 449.721C421.361 447.146 427.345 412.822 404.805 401.59C398.818 398.607 389.703 398.121 384.242 400.494ZM270.766 416.918C267.962 419.423 267.5 420.496 267.5 424.5C267.5 428.504 267.962 429.577 270.766 432.082C276.274 437.004 283.088 435.598 286.594 428.818C288.773 424.605 287.706 419.772 283.889 416.56C279.675 413.014 274.992 413.142 270.766 416.918ZM387.111 416.56C383.294 419.772 382.227 424.605 384.406 428.818C387.912 435.598 394.726 437.004 400.234 432.082C403.038 429.577 403.5 428.504 403.5 424.5C403.5 420.496 403.038 419.423 400.234 416.918C396.008 413.142 391.325 413.014 387.111 416.56Z" fill="black"/>
</svg>
