<svg width="24" height="24" viewBox="0 0 24 24" fill="none" xmlns="http://www.w3.org/2000/svg">
<path d="M7 14V21C7 21.2833 6.904 21.521 6.712 21.713C6.52 21.905 6.28267 22.0007 6 22C5.71733 21.9993 5.48 21.9033 5.288 21.712C5.096 21.5207 5 21.2833 5 21V3C5 2.71667 5.096 2.47934 5.288 2.288C5.48 2.09667 5.71733 2.00067 6 2C6.28267 1.99934 6.52033 2.09534 6.713 2.288C6.90567 2.48067 7.00133 2.718 7 3V4H19.525C19.875 4 20.15 4.146 20.35 4.438C20.55 4.73 20.5833 5.04234 20.45 5.375L19 9L20.45 12.625C20.5833 12.9583 20.55 13.271 20.35 13.563C20.15 13.855 19.875 14.0007 19.525 14H7ZM12.5 11C13.05 11 13.521 10.8043 13.913 10.413C14.305 10.0217 14.5007 9.55067 14.5 9C14.4993 8.44934 14.3037 7.97867 13.913 7.588C13.5223 7.19734 13.0513 7.00134 12.5 7C11.9487 6.99867 11.478 7.19467 11.088 7.588C10.698 7.98134 10.502 8.452 10.5 9C10.498 9.548 10.694 10.019 11.088 10.413C11.482 10.807 11.9527 11.0027 12.5 11ZM7 12H18.05L16.85 9L18.05 6H7V12Z" fill="#ffffff"/>
</svg>
