<svg width="513" height="513" viewBox="0 0 513 513" fill="none" xmlns="http://www.w3.org/2000/svg">
<g clip-path="url(#clip0_55_111)">
<path fill-rule="evenodd" clip-rule="evenodd" d="M137.873 2.21915C136.688 3.04915 132.673 9.51915 128.952 16.5971L122.187 29.4651L113.287 22.5871C103.632 15.1251 100.177 14.1161 96.584 17.7091C93.858 20.4351 93.976 23.1871 98.084 52.8511C100.009 66.7501 101.584 78.2541 101.584 78.4151C101.584 78.5771 98.629 78.7091 95.018 78.7091C87.187 78.7091 85.156 79.6281 83.689 83.8371C82.257 87.9451 82.257 108.473 83.689 112.581C85.2 116.916 87.168 117.709 96.411 117.709H104.37L104.85 132.959C105.114 141.346 105.853 149.876 106.491 151.912C109.15 160.393 120.643 170.654 129.343 172.313C131.578 172.74 132.75 173.607 133.07 175.072C133.327 176.247 136.275 199.934 139.622 227.709C143.64 261.062 146.199 278.968 147.158 280.443C148.969 283.231 152.335 284.134 155.885 282.785C161.32 280.718 161.323 280.876 154.706 226.536C151.335 198.856 148.579 175.622 148.581 174.904C148.583 173.976 149.916 173.687 153.201 173.904L157.818 174.209L182.559 258.625L207.299 343.041L190.691 363.89C181.557 375.357 173.97 384.17 173.831 383.474C173.692 382.778 171.606 365.973 169.196 346.129C166.604 324.795 164.255 309.147 163.449 307.842C161.779 305.142 158.181 304.113 154.696 305.339C149.223 307.263 149.225 307.509 155.185 356.454L160.686 401.635L149.635 415.415C140.773 426.466 138.584 429.825 138.584 432.375C138.584 435.008 141.594 439.252 156.084 457.054L173.584 478.553V493.558V508.564L176.219 510.636C178.852 512.708 178.935 512.709 301.584 512.709C424.233 512.709 424.316 512.708 426.949 510.636C431.526 507.036 430.695 504.443 415.963 476.369L402.341 450.411L409.963 443.291C419.161 434.699 419.543 432.831 413.782 424.625C405.018 412.143 369.166 363.038 367.368 361.054C366.294 359.869 363.878 358.611 361.999 358.259L358.584 357.618L358.57 308.914C358.563 282.126 358.297 259.24 357.979 258.056C357.467 256.149 358.066 255.715 363.243 254.247C378.642 249.879 382.938 248.155 384.847 245.579C387.447 242.07 386.453 237.21 382.744 235.292C379.985 233.865 378.104 234.212 358.28 239.799C354.125 240.97 353.351 240.954 352.545 239.681C352.033 238.871 351.608 237.946 351.599 237.625C351.591 237.304 358.221 232.394 366.334 226.714C385.379 213.381 385.584 213.189 385.584 208.69C385.584 204.176 383.133 201.709 378.651 201.709C375.498 201.709 371.142 204.46 347.484 221.389L342.885 224.681L339.115 221.422L335.346 218.164L348.523 196.235C362.384 173.166 362.843 171.888 358.851 167.459C357.018 165.425 351.727 165.149 349.267 166.959C348.332 167.647 342.025 177.434 335.251 188.709C325.554 204.847 322.524 209.163 321.009 208.991C319.95 208.871 316.065 207.998 312.374 207.05L305.664 205.327L305.374 174.429L305.084 143.53L302.723 141.62C299.533 139.038 295.412 139.199 292.773 142.008C290.672 144.244 290.607 145.12 290.349 174.619L290.084 204.931L281.699 207.352C277.087 208.683 273.196 209.646 273.052 209.491C272.907 209.336 267.493 200.434 261.019 189.709C254.545 178.984 248.346 169.197 247.242 167.959C243.148 163.369 234.583 166.627 234.585 172.773C234.585 174.113 240.21 184.58 247.085 196.033C253.959 207.486 259.584 217.186 259.584 217.587C259.584 217.988 258.098 219.757 256.282 221.517L252.98 224.717L236.633 213.213C223.658 204.082 219.594 201.709 216.935 201.709C210.214 201.709 207.062 209.388 211.888 214.004C213.156 215.217 220.806 220.827 228.888 226.472C242.7 236.118 245.506 239.034 242.199 240.303C241.437 240.596 235.973 239.425 230.056 237.701C224.139 235.977 218.011 234.531 216.438 234.486C212.27 234.367 209.584 237.25 209.584 241.841C209.584 246.797 211.324 247.923 225.633 252.224C231.766 254.067 236.858 255.718 236.948 255.892C237.038 256.066 236.881 276.311 236.598 300.881L236.084 345.552L228.834 342.193C224.846 340.345 221.584 338.603 221.584 338.321C221.584 338.039 210.109 298.666 196.084 250.826L170.584 163.844V140.776V117.709H179.129C186.869 117.709 187.906 117.478 190.129 115.254C192.508 112.875 192.584 112.356 192.584 98.3891C192.584 85.3251 192.39 83.7331 190.511 81.3441C188.656 78.9861 187.764 78.7091 182.011 78.7091C175.843 78.7091 175.584 78.6091 175.584 76.2391C175.584 74.8811 176.934 62.4921 178.584 48.7091C180.234 34.9261 181.584 22.9671 181.584 22.1331C181.584 21.3001 180.479 19.5141 179.129 18.1641C175.23 14.2641 171.922 14.9361 163.752 21.2831C158.822 25.1141 156.421 26.4431 156.075 25.5331C155.798 24.8051 154.059 19.9681 152.211 14.7841C147.528 1.65215 143.599 -1.79085 137.873 2.21915ZM135.206 37.3271C128.583 50.3131 125.574 51.4351 116.537 44.2841C114.123 42.3741 112.065 40.9011 111.963 41.0101C111.86 41.1191 112.971 49.5341 114.43 59.7091L117.084 78.2091L138.285 78.4791L159.486 78.7481L160.048 75.4791C161.238 68.5601 164.203 40.7091 163.75 40.7091C163.487 40.7091 161.789 41.8411 159.974 43.2251C152.259 49.1091 147.433 46.9902 143.66 36.0602C142.359 32.2922 141.019 28.8901 140.681 28.5011C140.344 28.1121 137.88 32.0841 135.206 37.3271ZM98.584 98.2091V102.709H138.084H177.584V98.2091V93.7091H138.084H98.584V98.2091ZM119.732 132.046C120.082 145.572 120.253 146.611 122.754 150.39C126.703 156.358 131.044 157.992 144.334 158.517L155.584 158.961V138.335V117.709H137.473H119.362L119.732 132.046ZM291.084 220.721C274.468 223.25 258.964 236.436 254.563 251.782C253.837 254.313 254.182 254.175 260.438 249.43C272.187 240.516 283.334 236.699 297.544 236.724C302.241 236.732 308.963 237.417 312.481 238.246C320.337 240.098 331.076 245.629 337.084 250.918C339.559 253.096 341.584 254.278 341.583 253.544C341.581 249.921 335.127 239.092 329.789 233.754C319.293 223.258 305.321 218.553 291.084 220.721ZM285.608 253.312C264.747 258.918 249.201 282.015 253.465 301.068C255.408 309.749 259.965 317.814 266.392 323.944C274.965 332.122 282.804 335.551 296.806 337.25C300.272 337.671 302.068 338.509 303.556 340.401C306.21 343.774 306.115 345.98 303.17 349.403C300.943 351.991 300.27 352.188 294.507 351.944C281.454 351.391 267.828 345.889 257.812 337.128L252.584 332.554V342.677V352.801L257.834 355.245L263.084 357.689L303.334 357.699L343.584 357.709L343.576 326.959C343.572 310.046 343.11 293.284 342.549 289.709C338.432 263.475 311.604 246.326 285.608 253.312ZM281.142 274.654C264.029 278.744 261.584 280.118 261.584 285.645C261.584 288.976 265.324 292.712 268.648 292.702C269.988 292.698 274.825 291.798 279.397 290.702C291.223 287.867 290.584 287.581 290.584 295.709C290.584 303.954 292.423 306.709 297.929 306.709C303.046 306.709 304.952 303.892 305.418 295.636C305.634 291.826 306.237 288.709 306.759 288.709C307.281 288.709 311.975 289.689 317.189 290.887C327.86 293.338 331.067 292.885 333.481 288.583C334.719 286.378 334.738 285.494 333.606 282.762C332.872 280.99 331.227 279.144 329.951 278.658C327.845 277.858 297.861 270.617 297.315 270.777C297.188 270.814 289.91 272.559 281.142 274.654ZM188.084 391.326C172.134 411.377 158.302 428.831 157.347 430.113C155.622 432.428 155.693 432.545 167.717 447.326C174.375 455.512 179.958 462.36 180.123 462.545C180.288 462.73 188.523 452.1 198.423 438.924C217.685 413.286 218.84 412.239 224.578 415.206C227.997 416.974 229.333 420.77 227.755 424.234C227.159 425.541 218.102 438.034 207.628 451.995L188.584 477.379V487.544V497.709H221.936H255.287L300.883 435.709L346.479 373.709L306.282 373.741L266.084 373.772L259.084 383.3C255.234 388.54 251.184 393.668 250.084 394.694C246.805 397.755 243.359 398.106 240.291 395.693C235.721 392.098 236.528 388.348 244.077 378.105C247.648 373.259 250.235 368.976 249.827 368.586C248.625 367.438 219.432 354.701 218.205 354.789C217.588 354.833 204.034 371.274 188.084 391.326ZM353.753 389.422C349.375 395.355 329.75 422.034 310.143 448.709L274.495 497.209L341.699 497.466C378.661 497.607 409.083 497.543 409.304 497.323C409.781 496.845 391.308 461.712 390.584 461.721C390.309 461.724 387.46 463.973 384.253 466.718C375.956 473.82 370.034 473.394 368.078 465.555C367.249 462.236 369.691 459.422 387.024 443.724C393.932 437.467 399.584 431.977 399.584 431.524C399.584 431.071 391.063 418.986 380.649 404.668L361.714 378.636L353.753 389.422Z" fill="#0054f9"/>
</g>
<defs>
<clipPath id="clip0_55_111">
<rect width="512" height="512" fill="white" transform="translate(0.583984 0.709229)"/>
</clipPath>
</defs>
</svg>
