<svg width="512" height="512" viewBox="0 0 512 512" fill="none" xmlns="http://www.w3.org/2000/svg">
<g clip-path="url(#clip0_114_75)">
<path fill-rule="evenodd" clip-rule="evenodd" d="M175.919 1.83322C158.253 6.44522 143.362 22.4842 140.084 40.4342C138.48 49.2152 138.74 78.0932 140.499 86.5002C142.682 96.9322 148.948 108.805 156.297 116.43L162.5 122.868L157.397 128.434L152.294 134L127.397 134.022C100.345 134.046 97.4249 134.554 92.2979 140.132C89.6009 143.065 86.9999 149.082 86.9999 152.386V154.837L74.6019 155.168C60.5379 155.545 57.9999 156.66 57.9999 162.464C57.9999 168.766 59.4109 169.445 73.6659 170L86.4999 170.5V176V181.5L80.7839 181.799C76.0219 182.048 74.7289 182.529 73.0339 184.684C70.4099 188.02 70.4649 190.269 73.2499 193.495C75.0209 195.546 76.7249 196.227 81.2499 196.69L86.9999 197.28V204.393C86.9999 211.073 86.8079 211.687 83.8569 214.473C78.2109 219.802 77.9979 221.193 78.0159 252.718C78.0319 280.656 78.0979 281.615 80.2659 285.405C83.6469 291.314 88.6329 294.812 95.5239 296.108C102.14 297.352 118.887 296.666 121.952 295.026C123.006 294.462 128.398 294 133.934 294H144V297.309C144 299.129 144.661 301.491 145.468 302.559C146.352 303.728 146.949 306.788 146.968 310.25L147 316H135.455C124.53 316 123.777 316.132 121.455 318.455C118.326 321.583 118.326 325.417 121.455 328.545C123.777 330.868 124.53 331 135.455 331H147V336V341H139.455C132.777 341 131.627 341.282 129.455 343.455C128.105 344.805 127 347.075 127 348.5C127 352.076 131.161 356 134.955 356C136.63 356 138 356.227 138 356.505C138 356.783 122.813 377.736 104.25 403.068C85.6879 428.4 68.5269 451.846 66.1149 455.169C61.0789 462.11 59.8229 467.829 62.2899 472.584C63.2309 474.396 69.5159 479.475 78.8939 486L93.9839 496.5L59.7419 497.033C40.9089 497.326 25.3659 497.664 25.2019 497.783C25.0379 497.902 24.3019 499.431 23.5659 501.18C21.9969 504.913 23.1419 509.47 26.0389 511.021C28.5509 512.365 483.449 512.365 485.961 511.021C490.282 508.708 489.981 499.358 485.529 497.65C484.598 497.292 459.011 497 428.668 497H373.5V451.605C373.5 408.368 373.409 406.11 371.595 404.105C370.297 402.671 368.483 402 365.902 402C358.848 402 359 400.944 359 449.788C359 477.753 358.633 493.818 357.965 495.066C356.798 497.246 354.002 497.602 352.2 495.8C351.28 494.88 351 465.867 351 371.3V248H355H359V314.277C359 388.583 358.65 385 365.902 385C368.483 385 370.297 384.329 371.595 382.895C373.424 380.875 373.511 378.046 373.763 312.145C373.987 253.87 374.251 243.024 375.513 240.349C377.619 235.886 377.608 199.688 375.5 196C374.714 194.625 374.052 191.475 374.03 189C373.875 171.994 360.915 161.685 347.5 167.896C339.899 171.415 336 177.418 336 185.602V190.074L301.25 189.787L266.5 189.5L260.349 186.658C250.057 181.902 249.351 180.653 248.673 166C247.882 148.883 245.123 140.458 236.832 129.84L233.974 126.179L237.455 124.028C243.179 120.49 252.551 109.427 256.354 101.718C260.548 93.2192 262.965 83.7532 262.985 75.7502L263 70.0002H283C301.667 70.0002 303.133 69.8672 305 68.0002C307.978 65.0222 307.667 59.6702 304.365 57.0732C301.9 55.1342 300.448 55.0002 281.865 55.0002H262V50.1362C262 26.6272 244.578 5.16422 222.114 0.999217C213.016 -0.687783 183.538 -0.155783 175.919 1.83322ZM180.5 15.9082C165.587 19.8512 155.346 32.4362 154.217 48.2052L153.731 55.0002H200.497H247.263L246.787 47.5772C246.182 38.1532 242.794 30.9522 235.955 24.5552C227.154 16.3222 224.415 15.5672 202.5 15.3252C192.05 15.2092 182.15 15.4722 180.5 15.9082ZM154 73.9512C154 87.7462 162.139 103.99 172.719 111.31L176.78 114.12L182.563 112.439C190.711 110.07 207.262 110.862 215.228 114.003C220.338 116.017 221.304 116.117 224.178 114.926C225.949 114.193 230.171 110.871 233.56 107.546C242.748 98.5292 247.962 86.8572 247.988 75.2502L248 70.0002H201H154V73.9512ZM186 126.89C177.434 129.661 169.853 135.437 165.136 142.788C159.782 151.132 159 156.521 159 185.078V210.736L164.816 212.368C171.468 214.235 187.35 214.552 193.5 212.941C199.095 211.476 208 207.898 208 207.115C208 206.756 203.452 201.971 197.892 196.481C186.246 184.981 184.053 181.145 184.022 172.217C183.973 158.306 194.316 147.964 208.218 148.022C215.395 148.052 221.316 150.933 228.25 157.769C234.435 163.866 234.575 163.807 232.876 155.799C230.389 144.08 222.58 134.028 212.196 129.181C207.545 127.01 204.849 126.482 197.5 126.302C192.55 126.18 187.375 126.445 186 126.89ZM103.2 150.2C100.682 152.718 101.837 154.715 106.147 155.293C111.234 155.975 114.333 158.867 114.333 162.932C114.333 167.512 111.521 170 106.345 170H102V176V182H106.345C111.497 182 114.333 184.485 114.333 189C114.333 193.138 111.542 195.796 106.385 196.57L102 197.227V202.477V207.727L111.255 208.212C121.22 208.733 124.782 210.013 129.197 214.661C134.668 220.421 135 222.553 135 251.968V279H139.452H143.903L144.208 215.75C144.376 180.962 144.896 151.713 145.364 150.75C146.16 149.112 144.876 149 125.307 149C110.379 149 104.057 149.343 103.2 150.2ZM201.455 165.455C199.612 167.297 199 168.978 199 172.196C199 176.423 199.251 176.732 216.75 194.108C233.548 210.786 235.01 211.98 244 216.36C259.73 224.023 261.211 224.255 297.75 224.75L330 225.187V215.093V205L298.75 204.994C265.379 204.988 263.873 204.815 253.017 199.717C247.628 197.186 243.539 193.745 229.386 179.828C212.749 163.469 212.155 163 208.09 163C204.984 163 203.278 163.631 201.455 165.455ZM352.2 182.2C351.54 182.86 351 184.687 351 186.26C351 188.954 351.218 189.103 354.75 188.81C357.69 188.567 358.565 188.041 358.803 186.375C359.124 184.127 356.695 181 354.629 181C353.953 181 352.86 181.54 352.2 182.2ZM345 218.54V233.081L353.25 232.79L361.5 232.5L361.777 218.25L362.055 204H353.527H345V218.54ZM211.634 222.08C200.045 227.731 191.444 229.355 176.67 228.682C169.977 228.377 163.262 227.821 161.75 227.447L159 226.767V232.345V237.923L163.25 239.211C165.8 239.985 172.701 240.492 180.5 240.48C191.446 240.464 194.437 240.11 199.432 238.242C206.53 235.587 213.93 231.204 219.817 226.168L224.134 222.475L221.817 220.36L219.5 218.245L211.634 222.08ZM95.2229 224.557C93.0219 226.098 92.9999 226.369 92.9999 252.434C92.9999 275.698 93.1919 278.915 94.6539 280.128C95.8169 281.093 99.3309 281.5 106.5 281.5C113.669 281.5 117.183 281.093 118.346 280.128C119.808 278.915 120 275.698 120 252.434C120 220.998 120.918 223 106.5 223C99.9229 223 96.8369 223.426 95.2229 224.557ZM227.5 239.188C219.535 245.699 205.918 252.437 196.483 254.536C190.577 255.85 186.076 256.11 176.67 255.682C169.977 255.377 163.262 254.821 161.75 254.447L159 253.767V272.383V291H196.5H234V283.5C234 274.716 235.735 272 241.345 272C247.42 272 248.47 274.389 248.707 288.755L248.913 301.304L267.707 320.402C279.122 332.003 287.804 341.724 289.821 345.165C296.146 355.956 297.55 362.199 305.982 417.022C310.421 445.885 314.275 470.512 314.546 471.75C314.942 473.563 315.721 474 318.551 474C323.33 474 328.223 476.197 330.832 479.514C332.61 481.774 333 483.594 333 489.635C333 495.515 333.302 497 334.5 497C335.825 497 336 482.354 336 371.187V245.374L333.25 242.778L330.5 240.182L297 239.71C264.061 239.246 262.175 239.077 251.357 235.618C249.308 234.963 249.199 235.28 248.855 242.865C248.435 252.095 246.684 255 241.536 255C235.709 255 234.558 253.202 234 243.225L233.5 234.283L227.5 239.188ZM162.667 306.667C162.3 307.033 162 309.283 162 311.667V316H167.826C172.622 316 174.035 316.409 175.826 318.314C178.902 321.589 178.698 326.306 175.365 328.927C173.443 330.439 171.279 331 167.365 331H162V336V341H167.326C171.6 341 173.081 341.457 174.826 343.314C177.71 346.385 177.597 350.493 174.545 353.545C172.381 355.71 171.215 356 164.682 356H157.274L128.946 394.75C113.366 416.063 98.2329 436.734 95.3159 440.687L90.0139 447.875L102.589 456.542C114.376 464.666 115.249 465.093 116.499 463.355C136.424 435.644 137.398 434.513 141.585 434.202C144.625 433.977 146.058 434.406 147.468 435.965C151.129 440.01 149.987 442.922 138.667 458.388C132.8 466.404 128 473.179 128 473.445C128 473.71 129.828 475.633 132.062 477.717C137.136 482.449 138.153 487.531 135.171 493.25L133.216 497H194.108H255V489.493C255 483.305 240.197 382.414 238.495 376.999C238.236 376.174 231.296 368.783 223.075 360.574C208.4 345.924 208.115 345.704 207.56 348.575C205.831 357.518 203.667 364.992 201.241 370.403C198.614 376.262 167.56 420.133 164.156 422.795C159.616 426.344 150.959 421.25 152.332 415.837C152.658 414.552 160.203 403.6 169.098 391.5C177.993 379.4 186.381 367.025 187.737 364C191.934 354.639 192.964 347.131 192.983 325.75L193 306H178.167C170.008 306 163.033 306.3 162.667 306.667ZM208 315.221V324.442L229.368 345.971C246.564 363.297 251.048 368.379 252.332 372C253.21 374.475 257.125 397.425 261.033 423C264.941 448.575 268.381 470.512 268.677 471.75C269.208 473.963 269.471 474 284.676 474C298.927 474 300.095 473.863 299.624 472.25C299.343 471.288 295.694 448.225 291.516 421C287.337 393.775 283.222 369.025 282.371 366C279.018 354.09 275.697 349.617 253.598 327.25L232.602 306H220.301H208V315.221ZM78.9649 463.049C77.7639 464.736 76.9429 466.261 77.1409 466.439C78.8319 467.963 115.126 493.022 115.943 493.229C116.53 493.378 117.871 492.15 118.924 490.5L120.839 487.5L102.249 474.5C92.0249 467.35 83.0939 461.159 82.4039 460.742C81.6029 460.258 80.3569 461.095 78.9649 463.049ZM270 492.982V497H294.56H319.121L318.81 493.25L318.5 489.5L294.25 489.232L270 488.964V492.982Z" fill="black"/>
</g>
<defs>
<clipPath id="clip0_114_75">
<rect width="512" height="512" fill="white"/>
</clipPath>
</defs>
</svg>
