<svg width="512" height="512" viewBox="0 0 512 512" fill="none" xmlns="http://www.w3.org/2000/svg">
<g clip-path="url(#clip0_64_135)">
<path fill-rule="evenodd" clip-rule="evenodd" d="M107.5 1.476C84.696 6.482 69.131 21.726 64.499 43.588C62.436 53.324 62.445 96.702 64.511 106.5C66.467 115.776 70.981 124.724 77.06 131.375L82.02 136.802L80.808 146.398L79.596 155.993L72.709 161.906C66.751 167.021 62.964 169.066 44.661 177.058C33.022 182.139 21.674 187.542 19.443 189.064C10.665 195.05 3.411 206.034 1.125 216.799C0.371 220.352 0 239.896 0 276.095V330.091L2.455 332.545C5.434 335.525 9.852 335.75 13.139 333.089L15.5 331.178L16 274.839C16.488 219.821 16.55 218.391 18.652 213.844C22.571 205.366 27.211 202.02 46.685 193.631C56.428 189.433 64.715 186.337 65.101 186.75C65.487 187.162 68.726 196.714 72.299 207.975C75.891 219.296 79.701 229.466 80.822 230.725C84.455 234.803 87.683 233.795 100.135 224.689C106.386 220.118 112.063 216.042 112.75 215.63C113.731 215.043 114 218.74 114 232.833V250.783L111.414 251.432C107.82 252.334 99.655 260.216 97.627 264.741C96.7 266.808 92.884 286.05 89.146 307.5L82.349 346.5L59.705 347C34.122 347.565 33 347.882 33 354.549C33 359.874 38.831 381.955 41.067 385.094C42.138 386.598 45.349 388.992 48.203 390.414L53.393 393H145.037H236.681L242.826 389.929C249.583 386.553 254.214 381.674 256.513 375.512C258.611 369.887 274.996 275.656 274.998 269.2C275 263.972 273.31 259.266 270.132 255.648C266.821 251.879 262.665 250.509 253 250L243.5 249.5L242.906 232.5C242.163 211.268 240.342 205.571 231.143 195.707C224.745 188.847 221.716 187.114 198.254 176.893C186.967 171.975 176.33 166.78 174.616 165.348C163.563 156.109 163.889 156.623 162.433 146.199L161.092 136.596L165.95 131.459C171.907 125.161 176.698 115.916 178.562 107.122C180.542 97.78 180.522 52.126 178.533 42.743C176.55 33.384 170.664 22.649 163.818 15.904C150.76 3.039 127.513 -2.917 107.5 1.476ZM294.429 2.381C291.64 3.679 287.94 6.462 286.207 8.565C281.082 14.782 280.002 19.529 279.982 35.928L279.964 50.5L260.278 60.5C249.451 66 239.273 71.604 237.66 72.953C229.963 79.394 230.158 91.748 238.062 98.399C239.896 99.942 250.043 105.521 260.61 110.797L279.824 120.389L280.182 134.944C280.579 151.121 281.597 154.406 288.162 160.699C295.115 167.364 288.89 167.002 396.218 166.978C506.053 166.953 497.954 167.544 505.252 159.019C512.147 150.963 512.001 152.592 511.994 84.072C511.991 45.25 511.611 21.141 510.967 18.823C509.152 12.286 503.98 5.823 498.136 2.787L492.772 0L396.136 0.01L299.5 0.02L294.429 2.381ZM107.848 17.784C99.797 19.966 91.049 25.569 87.03 31.117C83.497 35.994 80 44.909 80 49.038C80 51.945 80.097 52 85.25 51.996C91.958 51.991 96.139 49.498 99.912 43.252C107.43 30.807 112.854 30.691 118.956 42.845C125.511 55.9 140.737 63.332 157.295 61.559L164 60.841V55.631C164 38.95 154.37 24.674 139.282 18.989C131.122 15.915 116.771 15.364 107.848 17.784ZM298.923 18.923L296 21.846V39.969C296 57.436 295.919 58.171 293.75 60.317C292.512 61.541 281.719 67.483 269.764 73.521C257.809 79.56 248.031 84.95 248.036 85.5C248.041 86.05 258.205 91.675 270.623 98C283.041 104.325 293.831 110.388 294.601 111.473C295.653 112.956 296 117.246 296 128.772C296 144.682 296.904 148.982 300.545 150.379C301.435 150.72 344.652 151 396.582 151C489.261 151 491.036 150.964 492.975 149.025C494.061 147.939 495.201 146.027 495.509 144.775C495.816 143.524 495.94 115.123 495.784 81.663L495.5 20.826L492.694 18.413L489.888 16H395.867H301.846L298.923 18.923ZM334.315 40.995C329.621 42.912 328.48 50.224 332.314 53.826L334.629 56H397.814C459.667 56 461.042 55.958 463 54C466.041 50.959 465.992 45.68 462.894 42.5C460.991 40.547 459.494 40.495 398.723 40.302C364.049 40.191 335.533 40.498 334.315 40.995ZM106.975 60.526C105.675 61.911 102.178 64.234 99.204 65.688C94.842 67.823 92.371 68.333 86.399 68.333H79V82.53C79 98.923 79.989 105.37 83.661 112.9C87.067 119.886 98.641 131.151 106.41 135.041C111.599 137.639 113.378 138 121.01 138C125.791 138 131.231 137.479 133.101 136.841C142.361 133.685 155.565 121.277 160.232 111.347C163.271 104.881 163.471 103.74 163.836 90.823L164.223 77.147L154.861 77.68C138.441 78.615 126.411 74.402 115.45 63.876L109.34 58.009L106.975 60.526ZM332.174 78.314C329.471 81.192 329.355 85.981 331.911 89.139L333.823 91.5L396.83 91.772L459.838 92.044L462.364 89.772C465.991 86.51 466.274 81.274 463 78C461.042 76.042 459.667 76 397.674 76H334.349L332.174 78.314ZM334.315 112.007C329.623 113.898 328.48 121.223 332.314 124.826C334.609 126.981 334.97 127 373.36 127H412.091L414.545 124.545C418.359 120.732 417.226 114.335 412.343 112.11C409.377 110.759 337.648 110.664 334.315 112.007ZM95.778 153.25C95.351 157.444 95.498 157.672 106.836 170.5C113.156 177.65 119.077 184.311 119.994 185.303C121.578 187.015 122.316 186.362 134.76 172.235L147.859 157.365L147.287 153.103C146.839 149.766 146.366 148.957 145.108 149.374C144.223 149.667 140.8 150.875 137.5 152.058C129.225 155.025 110.115 154.548 102.623 151.188C99.94 149.984 97.4 149 96.978 149C96.556 149 96.016 150.912 95.778 153.25ZM82.352 174.777L79.205 177.5L84.649 194.463C87.643 203.793 90.184 211.517 90.296 211.628C90.683 212.011 108.765 198.498 108.955 197.685C109.177 196.732 87.232 171.987 86.199 172.027C85.814 172.042 84.084 173.279 82.352 174.777ZM145.003 184.63C132.126 199.167 132.105 196.82 145.197 206.38L152.895 212.001L158.441 194.75L163.987 177.5L160.978 174.75C159.323 173.238 157.568 172 157.079 172C156.59 172 151.156 177.683 145.003 184.63ZM171.012 207.894C160.948 239.122 162.135 238.686 137.25 220.283L130 214.921V232.461V250H178.586H227.172L226.836 233.75C226.504 217.702 226.461 217.432 223.398 212C221.691 208.975 218.503 205.121 216.312 203.435C213.236 201.068 191.331 190.902 179.638 186.415C178.426 185.949 176.696 190.256 171.012 207.894ZM358 197.555C354.425 198.323 347.865 200.745 343.423 202.938C329.561 209.781 319.777 221.102 314.269 236.672L311.5 244.5V279.5C311.5 313.666 311.556 314.655 313.838 321C316.872 329.436 321.678 337.278 327.588 343.437L332.326 348.375L331.064 363.437C330.37 371.722 329.633 378.777 329.425 379.116C329.217 379.455 314.792 385.505 297.37 392.561C262.806 406.557 257.36 409.636 250.065 419.298C247.816 422.276 244.744 427.59 243.238 431.106L240.5 437.5L240.191 472.236L239.882 506.973L242.396 509.486C245.56 512.651 249.091 512.686 252.694 509.588L255.5 507.176L256 473.838C256.482 441.725 256.584 440.316 258.798 435.5C261.292 430.073 267.858 422.703 272.26 420.389C280.462 416.078 341.734 391.959 348.526 390.368C360.617 387.535 384.052 387.768 398 390.859C408.521 393.19 474.42 417.285 480.5 421.024C485.445 424.064 489.726 429.146 492.696 435.5L495.5 441.5L496 474.84L496.5 508.18L498.861 510.09C502.148 512.75 506.566 512.525 509.545 509.545L512 507.091L511.985 475.795C511.967 436.844 511.098 432.217 501.273 418.728C494.59 409.552 488.069 406.033 454.337 393.398C437.377 387.044 423.21 381.543 422.855 381.173C422.499 380.803 421.522 373.33 420.683 364.568L419.157 348.635L425.146 342.1C431.556 335.104 436.868 325.198 439.141 316C440.141 311.952 440.5 302.186 440.5 279C440.5 251.913 440.251 246.599 438.725 241.072C435.55 229.574 431.235 222.134 422.937 213.854C414.214 205.149 405.301 200.26 393.303 197.597C384.48 195.639 367.016 195.619 358 197.555ZM360.112 213.524C343.194 218.252 331.578 230.332 328.115 246.799C326.307 255.393 326.64 306.198 328.552 313.54C330.448 320.819 333.954 326.967 339.735 333.147C346.999 340.914 347.392 341 375.585 341C398.673 341 400.664 340.857 404.682 338.912C413.332 334.725 421.949 321.35 424.052 308.848C424.764 304.618 425.026 292.416 424.771 275.348C424.411 251.136 424.159 247.856 422.204 241.938C418.061 229.399 408.859 219.888 395.977 214.83C388.734 211.986 368.279 211.241 360.112 213.524ZM49.073 268.635C47.083 271.165 47 272.441 47 300.68V330.091L49.455 332.545C51.002 334.093 53.052 335 55 335C56.948 335 58.998 334.093 60.545 332.545L63 330.091V300.68C63 272.441 62.917 271.165 60.927 268.635C59.329 266.602 57.973 266 55 266C52.027 266 50.671 266.602 49.073 268.635ZM115.37 267.454C114.218 268.26 112.78 270.176 112.174 271.71C111.567 273.245 107.226 296.509 102.525 323.409C94.624 368.628 94.094 372.495 95.512 374.659L97.046 377H165.946H234.847L237.905 374.426C239.587 373.011 241.432 370.198 242.004 368.176C244.03 361.012 259.093 272.561 258.799 269.554L258.5 266.5L187.982 266.243C127.337 266.023 117.171 266.192 115.37 267.454ZM178.455 315.455C175.646 318.263 175.372 320.885 177.463 324.928C179.946 329.73 185.604 330.487 189.545 326.545C194.506 321.585 190.991 313 184 313C182.052 313 180.002 313.907 178.455 315.455ZM349.159 357.841C347.905 359.095 347.115 361.86 346.68 366.527C346.328 370.293 346.219 373.552 346.436 373.77C346.654 373.987 351.219 373.614 356.581 372.939C367.845 371.521 386.651 372.222 397.932 374.481C402.02 375.3 405.442 375.864 405.537 375.735C405.633 375.606 405.329 371.675 404.862 367C404.251 360.878 403.538 358.15 402.316 357.25C401.065 356.329 394.084 356 375.809 356C353.05 356 350.848 356.152 349.159 357.841ZM51.542 366.25C51.927 368.038 52.752 371.075 53.374 373L54.505 376.5L66.503 376.775L78.5 377.05L78.639 370.025L78.779 363H64.81H50.841L51.542 366.25Z" fill="#0054f9"/>
</g>
<defs>
<clipPath id="clip0_64_135">
<rect width="512" height="512" fill="white"/>
</clipPath>
</defs>
</svg>
