<svg width="473" height="512" viewBox="0 0 473 512" fill="none" xmlns="http://www.w3.org/2000/svg">
<path fill-rule="evenodd" clip-rule="evenodd" d="M434.277 1.97277C432.321 3.16477 430.829 5.03077 430.481 6.71877C428.243 17.5948 426.135 20.2438 418.785 21.4168C413.305 22.2918 410.626 24.0748 409.04 27.9028C406.426 34.2128 410.651 40.3748 418.386 41.5348C426.1 42.6918 428.216 45.2708 430.481 56.2808C431.15 59.5318 436.174 62.9908 440.234 62.9958C444.579 63.0018 448.857 58.3758 449.922 52.5218C451.072 46.1938 454.873 42.5458 461.324 41.5788C474.15 39.6548 474.15 23.3448 461.324 21.4208C454.873 20.4538 451.072 16.8058 449.922 10.4778C448.279 1.44477 441.334 -2.33023 434.277 1.97277ZM209.239 14.3348C203.902 16.2708 198.946 20.9198 196.405 26.3758C194.075 31.3798 194.019 32.1378 194.01 58.7818C193.999 88.2498 194.207 89.6498 199.664 96.8038C201.095 98.6798 204.569 101.287 207.383 102.598C211.666 104.592 214.09 104.982 222.25 104.99C227.613 104.996 232 105.363 232 105.806C232 106.249 228.713 114.236 224.696 123.556L217.392 140.5L199.58 140.774C182.884 141.03 181.811 140.936 182.448 139.276C188.661 123.085 181.461 103.888 166.27 96.1378C159.605 92.7368 151.64 91.8368 131.235 92.1778L111.969 92.4998L79.9849 124.532L47.9999 156.564V177.653V198.743L37.7499 204.12C20.8859 212.968 11.2929 224.514 8.10492 239.799C7.49692 242.714 6.99992 253.601 6.99992 263.992C6.99992 280.963 6.79992 283.224 5.03892 286.209C0.172922 294.457 -0.194078 299.047 0.273922 345.842C0.753922 393.767 0.837922 394.563 7.51092 414.66C13.0859 431.451 21.3679 446.334 32.3189 459.243L37.8819 465.8L38.1909 485.984L38.4999 506.168L41.7659 509.084C43.5619 510.688 46.1719 512 47.5649 512C50.8809 512 55.6719 509.481 56.9699 507.055C57.5929 505.892 57.9999 495.831 57.9999 481.614V458.096L51.9079 451.298C40.4479 438.508 31.4869 423.45 26.5039 408.607C20.9389 392.029 20.7789 390.407 20.2889 345.763C19.8779 308.383 20.0079 303.492 21.5289 298.912C23.1859 293.924 26.4869 289.983 35.3649 282.391C38.2839 279.895 38.9999 278.58 38.9999 275.718C38.9999 270.979 35.0609 266.29 30.3359 265.403L26.7919 264.738L27.1879 253.619C27.6469 240.715 29.3899 235.745 35.5889 229.664C38.2049 227.098 50.7589 219.861 73.4999 207.809C92.1999 197.899 108.4 189.369 109.5 188.853C111.138 188.086 119.004 192.096 152.957 211.007C175.758 223.708 195.026 234.606 195.773 235.227C200.19 238.893 201.461 247.717 198.335 253.011C195.974 257.007 188.929 260.436 184.783 259.607C183.07 259.264 166.332 250.437 147.585 239.991C128.838 229.545 112.66 220.998 111.634 220.999C108.827 221.001 72.5209 239.816 69.8599 242.649C66.2399 246.503 66.6469 252.402 70.7889 256.102C72.5869 257.709 75.1789 259 76.6059 259C78.0219 259 86.4519 255.346 95.3399 250.88L111.5 242.76L153.5 266.196C199.779 292.019 200 292.185 200 301.113C200 305.071 199.449 306.558 196.909 309.451C193.356 313.497 187.863 315.4 183.445 314.116C181.825 313.645 166.57 304.876 149.544 294.63L118.588 276H99.3709C80.1549 276 80.1529 276 77.0769 278.589C74.5079 280.75 73.9999 281.897 73.9999 285.533C73.9999 288.694 74.6609 290.658 76.4109 292.694L78.8219 295.5L96.0129 295.817L113.204 296.134L138.852 311.714C152.958 320.283 165.82 328.557 167.433 330.099C169.895 332.454 170.436 333.873 170.803 338.95C171.233 344.896 171.174 345.061 167.238 348.998C163.303 352.933 161.49 353.53 155 353.028C153.625 352.922 141.856 346.347 128.846 338.418L105.192 324H93.0189C80.8979 324 80.8339 324.012 77.9229 326.923C74.1179 330.728 73.8729 336.579 77.3489 340.62C79.3209 342.911 80.6869 343.422 85.8489 343.795L91.9999 344.24V358.571C91.9999 380.965 94.8729 389.925 105.484 400.621C118.235 413.473 124.586 414.959 166.879 414.983L198.258 415L197.573 420.25C194.306 445.32 184.99 468.296 170.032 488.174C163.695 496.595 162.005 499.55 162.022 502.174C162.058 507.578 166.832 512 172.628 512C176.331 512 184.142 503.883 192.11 491.757C204.174 473.396 212.37 452.732 215.992 431.549C217.096 425.088 218 418.721 218 417.401V415L323.25 414.983C438.873 414.964 436.438 415.082 447.993 408.923C458.937 403.09 468.243 390.595 470.875 378.201C472.441 370.822 472.386 325.94 470.805 322.472C468.587 317.604 462.322 315.748 457.145 318.425C452.4 320.878 452 323.209 452 348.366C452 374.142 451.246 378.854 446.134 385.034C444.527 386.977 440.801 389.902 437.856 391.534L432.5 394.5H282H131.5L126.144 391.534C115.364 385.563 111.73 377.755 112.212 361.604L112.5 351.979L127.464 361.109C145.295 371.99 148.353 373.219 157.5 373.188C176.578 373.123 190.899 359.174 191.234 340.329L191.344 334.158L194.876 333.496C199.573 332.614 205.128 329.704 209.586 325.79L213.228 322.593L215.277 325.546C219.556 331.712 233.778 344.808 240.5 348.771C252 355.551 264.41 359.184 278.058 359.766C301.734 360.775 320.528 353.9 337.273 338.104C349.905 326.188 357.201 313.685 361.138 297.209C363.903 285.642 363.385 266.168 360.03 255.5C351.41 228.089 329.452 207.246 301.5 199.941C290.488 197.063 273.607 197.069 262.5 199.954C246.735 204.049 230.124 214.102 220.88 225.143L216.735 230.094L214.987 227.297C211.188 221.219 204.272 216.583 173.5 199.488C155.9 189.71 138.456 179.952 134.735 177.802L127.97 173.894L133.735 167.448L139.5 161.001H284.884C393.423 161 431.263 161.298 434.193 162.176C439.163 163.665 446.425 170.012 449.292 175.372C451.393 179.301 451.525 180.972 452.009 210C452.289 226.775 452.906 241.304 453.381 242.287C454.419 244.44 459.1 247 462 247C465.306 247 469.499 244.394 470.805 241.528C472.723 237.32 472.445 183.128 470.467 175.535C466.923 161.927 458.142 151.356 445.28 145.215L437.5 141.5L392.054 141L346.608 140.5L339.304 123.556C335.287 114.236 332 106.249 332 105.806C332 105.363 336.387 104.996 341.75 104.99C349.91 104.982 352.334 104.592 356.617 102.598C359.431 101.287 362.905 98.6798 364.336 96.8038C369.793 89.6498 370.001 88.2498 369.99 58.7818C369.981 32.2168 369.918 31.3668 367.619 26.4288C364.913 20.6168 359.6 15.7958 354.078 14.1408C348.593 12.4978 213.807 12.6778 209.239 14.3348ZM215.2 34.1998C213.496 35.9038 213.496 82.0958 215.2 83.7998C216.935 85.5348 347.065 85.5348 348.8 83.7998C350.504 82.0958 350.504 35.9038 348.8 34.1998C347.065 32.4648 216.935 32.4648 215.2 34.1998ZM247.222 121.957C243.25 131.283 240 139.383 240 139.957C240 140.665 253.504 141 282 141C310.496 141 324 140.665 324 139.957C324 139.383 320.75 131.283 316.778 121.957L309.556 105H282H254.444L247.222 121.957ZM94.2299 138.381L67.9999 164.92V176.519C67.9999 182.898 68.3379 187.923 68.7499 187.685C69.1619 187.446 77.3749 183.079 86.9999 177.979L104.5 168.707L117.308 155.384C131.816 140.294 132.345 140.014 146.346 140.006C156.858 139.999 160.075 138.542 163.021 132.456C165.416 127.509 165.46 126.19 163.399 121.039C162.386 118.507 160.459 116.206 158.149 114.769C154.796 112.684 153.118 112.473 137.48 112.171L120.461 111.842L94.2299 138.381ZM265.5 219.87C249.257 224.545 234.354 237.058 227.232 252C222.404 262.128 221 268.288 221 279.339C221 295.519 226.955 309.897 238.499 321.592C250.4 333.646 265.414 340 282 340C298.586 340 313.6 333.646 325.501 321.592C337.045 309.897 343 295.519 343 279.339C343 268.288 341.596 262.128 336.768 252C329.466 236.681 313.856 223.842 297.356 219.585C289.149 217.468 273.353 217.609 265.5 219.87ZM270.5 239.346C258.761 243.234 250.316 250.551 244.92 261.511C241.707 268.036 241.502 269.062 241.528 278.478C241.563 291.286 243.883 297.6 251.628 305.965C261.075 316.169 272.251 320.769 285.001 319.702C295.959 318.785 302.498 315.692 310.595 307.595C320.134 298.055 322.442 292.393 322.452 278.5C322.458 269.177 322.23 268.031 319.088 261.561C314.754 252.638 307.89 245.78 299.241 241.73C293.499 239.041 291.166 238.533 283.5 238.297C277.97 238.128 272.958 238.532 270.5 239.346ZM273.5 259.896C259.468 266.392 256.762 284.56 268.316 294.704C278.791 303.901 295.336 300.274 301.135 287.509C308.94 270.328 290.584 251.986 273.5 259.896ZM457.11 273.396C448.441 278.201 452.068 292 462 292C467.067 292 472 287.115 472 282.097C472 274.589 463.703 269.741 457.11 273.396Z" fill="black"/>
</svg>
