<svg width="53" height="53" viewBox="0 0 53 53" fill="none" xmlns="http://www.w3.org/2000/svg">
<path fill-rule="evenodd" clip-rule="evenodd" d="M8.964 0.0787295C6.51152 0.466246 4.51056 2.52182 4.13506 5.03928C3.95818 6.22511 3.95352 29.6634 4.13004 31.002C4.44327 33.379 6.06264 35.3421 8.28852 36.0434C9.24795 36.3456 10.9641 36.3748 11.8201 36.1036C13.3315 35.6245 13.528 35.4458 20.7495 27.9849C24.5215 24.0879 27.6076 20.8399 27.6076 20.7673C27.6076 20.6466 27.0885 20.2781 26.1846 19.757C25.887 19.5855 22.8449 17.6734 19.7896 15.7375L18.9032 15.1759L19.9906 14.0667L21.0781 12.9576L26.386 14.7473L31.6939 16.5369L32.9417 15.2258C33.6281 14.5046 34.6651 13.4099 35.2464 12.7933C35.8276 12.1767 36.4791 11.587 36.6941 11.4828C37.6224 11.0335 38.8862 11.4542 39.306 12.3522C39.5253 12.8213 39.56 13.7399 39.3733 14.1359C39.3044 14.2823 38.1481 15.4992 36.8041 16.8401L34.3603 19.278L36.096 24.5806C37.0506 27.4971 37.8055 29.9929 37.7734 30.127C37.7413 30.2611 37.2832 30.8081 36.7553 31.3424C35.9247 32.1833 35.7737 32.2899 35.6331 32.1347C35.4799 31.9657 32.9131 27.7526 31.2535 24.9463C30.2274 23.2111 30.2562 23.2375 29.8659 23.6748C29.4208 24.1734 27.1907 26.5443 25.4592 28.3595C21.0911 32.939 18.334 35.9479 17.877 36.6343C14.1219 42.2744 16.757 50.2814 23.1007 52.5075C24.1767 52.8852 25.1456 53.01 26.9171 52.9994C32.7719 52.9643 38.3198 50.5436 42.5629 46.1728C45.8587 42.778 47.9581 38.5016 48.7852 33.4983C48.983 32.3023 49 31.1264 49 18.6685V5.13777L48.7365 4.28351C48.2743 2.78561 47.0459 1.31612 45.7161 0.67067C44.2797 -0.0267131 45.609 0.0204619 26.8308 0.00156763C17.3327 -0.00794047 9.29265 0.0268006 8.964 0.0787295Z" fill="url(#paint0_linear_10_35)"/>
<defs>
<linearGradient id="paint0_linear_10_35" x1="46.8488" y1="1.78557" x2="3.0348" y2="51.2714" gradientUnits="userSpaceOnUse">
<stop offset="0.9999" stop-color="#0054F9"/>
<stop offset="1" stop-color="#EBFF00"/>
</linearGradient>
</defs>
</svg>
